<svg width="32" height="32" viewBox="0 0 32 32" fill="none" xmlns="http://www.w3.org/2000/svg">
<rect x="0.75" y="0.75" width="30.5" height="30.5" rx="4.25" stroke="#484848" stroke-width="1.5"/>
<path d="M17.5043 17.6532C17.0565 17.9518 16.5363 18.1097 16 18.1097C15.4637 18.1097 14.9436 17.9518 14.4957 17.6532L7.11985 12.7335C7.07913 12.7062 7.03917 12.6779 7 12.6485V20.7099C7 21.6342 7.74971 22.3677 8.65702 22.3677H23.3429C24.2668 22.3677 25 21.6176 25 20.7099V12.6484C24.9607 12.6779 24.9207 12.7064 24.8799 12.7336L17.5043 17.6532Z" fill="#484848"/>
<path d="M7.70488 11.8581L15.0808 16.7778C15.36 16.9641 15.68 17.0572 16 17.0572C16.32 17.0572 16.64 16.964 16.9192 16.7778L24.2951 11.8581C24.7365 11.5639 25 11.0715 25 10.54C25 9.62622 24.2569 8.88281 23.3435 8.88281H8.65646C7.7431 8.88285 7 9.62625 7 10.5409C6.99973 10.8016 7.06395 11.0583 7.18694 11.2882C7.30993 11.518 7.48787 11.7138 7.70488 11.8581Z" fill="#484848"/>
</svg>
