<svg width="145" height="41" viewBox="0 0 145 41" fill="none" xmlns="http://www.w3.org/2000/svg">
<path fill-rule="evenodd" clip-rule="evenodd" d="M0.000532299 31.5701V5.94678H7.27812V24.8179H8.2501H14.9997H22.3608C23.0469 26.4973 24.1094 27.9148 25.5488 29.0701C26.9386 30.1852 28.6867 31.0182 30.793 31.5696H0L0.000532299 31.5701Z" fill="#121317"/>
<path fill-rule="evenodd" clip-rule="evenodd" d="M55.4972 18.3092C55.4972 18.8729 55.469 19.4928 55.4131 20.1684H32.1756C32.3997 21.9714 33.1348 23.3098 34.382 24.1835C35.6286 25.0566 37.4704 25.4934 39.9072 25.4934C42.1205 25.4934 43.7382 25.1904 44.7607 24.585C45.7833 23.979 46.3784 23.3242 46.5466 22.6197H55.2028C54.6423 27.9164 49.544 30.5647 39.9072 30.5647C34.5848 30.5647 30.6069 29.5079 27.9736 27.3949C25.3403 25.282 24.0234 22.2536 24.0234 18.3087C24.0234 14.3927 25.3329 11.3713 27.9523 9.24383C30.5718 7.11694 34.5145 6.05322 39.7811 6.05322C44.9918 6.05322 48.9137 7.11694 51.547 9.24383C54.1803 11.3707 55.4972 14.3927 55.4972 18.3087V18.3092ZM39.7816 11.1673C37.6247 11.1673 35.9368 11.5126 34.7184 12.2026C33.5 12.8927 32.7084 13.9564 32.3443 15.3932H47.1353C46.743 13.9564 45.9515 12.8927 44.7613 12.2026C43.5705 11.5126 41.9108 11.1673 39.7816 11.1673Z" fill="#121317"/>
<path fill-rule="evenodd" clip-rule="evenodd" d="M99.9055 0C110.209 0 118.562 8.39996 118.562 18.7625C118.562 29.1244 110.209 37.5249 99.9055 37.5249C89.6023 37.5249 81.25 29.125 81.25 18.7625C81.25 8.4005 89.6023 0 99.9055 0ZM99.9055 6.85552C106.444 6.85552 111.745 12.1864 111.745 18.7619C111.745 25.338 106.444 30.6683 99.9055 30.6683C93.3667 30.6683 88.0666 25.3375 88.0666 18.7619C88.0666 12.1859 93.3673 6.85552 99.9055 6.85552Z" fill="url(#paint0_linear_7502_41)"/>
<path fill-rule="evenodd" clip-rule="evenodd" d="M65.6391 31.5175H69.0347H72.4302L81.6943 6.0542H74.0005L69.0347 21.8504L64.0688 6.0542H56.375L65.6391 31.5175Z" fill="#121317"/>
<path fill-rule="evenodd" clip-rule="evenodd" d="M132.337 13.4362L127.942 6.05176H119.678L128.018 18.5652L119.672 31.515H127.771L132.337 23.6215L136.904 31.515H145.003L136.658 18.5652L144.997 6.05176H136.734L132.337 13.4362Z" fill="#121317"/>
<path d="M0.75 35.078H2.01315V40.6049H0.75V35.078ZM5.56784 35.078H7.15941L9.16884 38.7488V35.078H10.432V40.6049H8.84893L6.83098 36.9255V40.6049H5.56784V35.078ZM13.9867 35.078H17.9731V36.1835H15.2498V37.4046H17.4887V38.4935H15.2498V40.6054H13.9867V35.0786V35.078ZM20.8139 37.8415C20.8139 37.4512 20.889 37.0823 21.0396 36.736C21.1903 36.3896 21.3936 36.0872 21.6507 35.8286C21.9078 35.57 22.2096 35.3666 22.5572 35.2183C22.9043 35.07 23.2748 34.9956 23.6687 34.9956C24.0626 34.9956 24.433 35.07 24.7801 35.2183C25.1272 35.3666 25.4306 35.57 25.6903 35.8286C25.9501 36.0872 26.1534 36.3896 26.3014 36.736C26.4494 37.0823 26.5229 37.4512 26.5229 37.8415C26.5229 38.2376 26.4489 38.607 26.3014 38.9512C26.1534 39.2949 25.9501 39.5963 25.6903 39.8548C25.4306 40.1134 25.1272 40.3168 24.7801 40.4651C24.4325 40.6134 24.062 40.6878 23.6687 40.6878C23.2748 40.6878 22.9043 40.6134 22.5572 40.4651C22.2096 40.3163 21.9078 40.1129 21.6507 39.8548C21.3936 39.5963 21.1898 39.2949 21.0396 38.9512C20.8895 38.6075 20.8139 38.2376 20.8139 37.8415ZM22.1426 37.8334C22.1426 38.0534 22.182 38.2596 22.2613 38.4523C22.3406 38.6445 22.4497 38.8126 22.5892 38.9555C22.7286 39.0984 22.8899 39.2114 23.073 39.2938C23.2561 39.3763 23.4542 39.4175 23.6676 39.4175C23.8811 39.4175 24.0791 39.3763 24.2622 39.2938C24.4453 39.2114 24.6066 39.0984 24.746 38.9555C24.8855 38.8126 24.9952 38.6445 25.0739 38.4523C25.1532 38.2601 25.1932 38.0534 25.1932 37.8334C25.1932 37.6187 25.1532 37.4169 25.0739 37.2269C24.9946 37.0374 24.885 36.8709 24.746 36.728C24.6066 36.585 24.4437 36.4721 24.2579 36.3896C24.0721 36.3072 23.8752 36.266 23.6676 36.266C23.46 36.266 23.2631 36.3072 23.0768 36.3896C22.891 36.4721 22.7281 36.585 22.5886 36.728C22.4492 36.8709 22.34 37.0374 22.2607 37.2269C22.1814 37.4169 22.142 37.6187 22.142 37.8334H22.1426ZM30.8563 36.1835H29.1093V35.078H33.875V36.1835H32.1194V40.6054H30.8563V36.1835ZM36.9123 35.078H40.9482V36.2081H38.1754V37.305H40.4638V38.3939H38.1754V39.4748H40.9482V40.6049H36.9123V35.078ZM43.904 37.8415C43.904 37.4512 43.9791 37.0823 44.1297 36.736C44.2804 36.3896 44.4837 36.0872 44.7408 35.8286C44.9979 35.57 45.3002 35.3666 45.6473 35.2183C45.9949 35.07 46.3654 34.9956 46.7587 34.9956C47.1143 34.9956 47.4475 35.0507 47.7595 35.1605C48.0714 35.2702 48.3487 35.4244 48.592 35.6225C48.8352 35.8206 49.0391 36.0572 49.2031 36.3318C49.367 36.607 49.4793 36.9094 49.5395 37.2392H48.1369C48.0437 36.9421 47.8744 36.706 47.628 36.5299C47.3821 36.3538 47.0951 36.266 46.7667 36.266C46.5533 36.266 46.3537 36.3072 46.1679 36.3896C45.9821 36.4721 45.8192 36.585 45.6798 36.728C45.5403 36.8709 45.4306 37.0374 45.3519 37.2269C45.2726 37.4169 45.2326 37.6187 45.2326 37.8334C45.2326 38.0534 45.272 38.2596 45.3519 38.4523C45.4312 38.6445 45.5403 38.8126 45.6798 38.9555C45.8192 39.0984 45.9821 39.2114 46.1679 39.2938C46.3537 39.3763 46.5533 39.4175 46.7667 39.4175C47.0946 39.4175 47.3821 39.3297 47.628 39.1536C47.8744 38.9774 48.0437 38.7414 48.1369 38.4442H49.5395C49.4793 38.774 49.367 39.0765 49.2031 39.3516C49.0386 39.6268 48.8352 39.8629 48.592 40.061C48.3487 40.259 48.0709 40.4127 47.7595 40.523C47.4481 40.6327 47.1143 40.6878 46.7587 40.6878C46.3648 40.6878 45.9944 40.6134 45.6473 40.4651C45.3002 40.3163 44.9979 40.1129 44.7408 39.8548C44.4837 39.5963 44.2804 39.2938 44.1297 38.9475C43.9791 38.6011 43.904 38.2322 43.904 37.842V37.8415ZM52.7652 35.078H54.0289V37.4207H56.3662V35.078H57.6294V40.6049H56.3662V38.5754H54.0289V40.6049H52.7652V35.078Z" fill="#121317"/>
<defs>
<linearGradient id="paint0_linear_7502_41" x1="90.6244" y1="1.47955" x2="106.16" y2="37.7286" gradientUnits="userSpaceOnUse">
<stop stop-color="#48A4EC"/>
<stop offset="0.20497" stop-color="#CB88C6"/>
<stop offset="0.352019" stop-color="#FC486F"/>
<stop offset="0.484837" stop-color="#FF6A51"/>
<stop offset="0.660347" stop-color="#FE6B1C"/>
<stop offset="0.802652" stop-color="#FF1EAA"/>
<stop offset="1" stop-color="#94B2E2"/>
</linearGradient>
</defs>
</svg>
