<svg width="32" height="32" viewBox="0 0 32 32" fill="none" xmlns="http://www.w3.org/2000/svg">
<rect x="0.75" y="0.75" width="30.5" height="30.5" rx="4.25" stroke="#484848" stroke-width="1.5"/>
<path d="M16.1863 5.65625C11.8791 5.65625 8.375 9.16198 8.375 13.4711C8.375 14.8505 8.73926 16.2065 9.42837 17.3927C9.58976 17.6704 9.76804 17.9379 9.9622 18.1938L15.8469 26.0706H16.5256L22.4104 18.1938C22.6045 17.9379 22.7828 17.6704 22.9442 17.3928C23.6333 16.2065 23.9976 14.8505 23.9976 13.4711C23.9976 9.16198 20.4934 5.65625 16.1863 5.65625ZM16.1863 16.0628C14.7579 16.0628 13.5958 14.9002 13.5958 13.4711C13.5958 12.0421 14.7579 10.8795 16.1863 10.8795C17.6147 10.8795 18.7768 12.0421 18.7768 13.4711C18.7768 14.9002 17.6147 16.0628 16.1863 16.0628Z" fill="#484848"/>
</svg>
