<svg width="32" height="32" viewBox="0 0 32 32" fill="none" xmlns="http://www.w3.org/2000/svg">
<rect x="0.75" y="0.75" width="30.5" height="30.5" rx="4.25" stroke="#484848" stroke-width="1.5"/>
<path d="M24.528 20.1035L22.0108 17.5851C21.1117 16.6856 19.5834 17.0454 19.2238 18.2147C18.9541 19.0242 18.0551 19.4739 17.246 19.294C15.4479 18.8443 13.0206 16.5057 12.5711 14.6169C12.3014 13.8074 12.8408 12.908 13.6499 12.6382C14.8186 12.2784 15.1782 10.7494 14.2792 9.84997L11.762 7.33157C11.0428 6.70198 9.96397 6.70198 9.33466 7.33157L7.62653 9.04049C5.9184 10.8393 7.80633 15.6063 12.0317 19.8336C16.2571 24.0609 21.0218 26.0397 22.8199 24.2408L24.528 22.5319C25.1573 21.8124 25.1573 20.7331 24.528 20.1035Z" fill="#484848"/>
</svg>
