<?xml version="1.0" standalone="no"?>
<!DOCTYPE svg PUBLIC "-//W3C//DTD SVG 1.1//EN" "http://www.w3.org/Graphics/SVG/1.1/DTD/svg11.dtd" >
<svg xmlns="http://www.w3.org/2000/svg" xmlns:xlink="http://www.w3.org/1999/xlink" version="1.1">
<metadata>
Created by FontForge 20201107 at Thu Sep 25 12:32:28 2025
 By 
Copyright (c) Andrew Lethbridge
</metadata>
<defs>
<font id="BRHendrix-Regular" horiz-adv-x="0" >
  <font-face 
    font-family="BR Hendrix"
    font-weight="400"
    font-stretch="normal"
    units-per-em="2048"
    panose-1="0 0 0 0 0 0 0 0 0 0"
    ascent="1556"
    descent="-492"
    x-height="963"
    cap-height="1434"
    bbox="-88 -516 2546 1997"
    underline-thickness="143"
    underline-position="-419"
    unicode-range="U+000D-2B51"
  />
<missing-glyph horiz-adv-x="1572" 
d="M197 0v1434h1179v-1434h-1179zM498 918h155q9 143 146 143q57 0 89 -25t32 -71q0 -55 -62 -105l-65 -53q-66 -54 -86.5 -93t-20.5 -108v-63h156v57q0 41 10.5 61t46.5 50l59 49q66 55 93.5 104.5t27.5 106.5q0 106 -77 171.5t-201 65.5q-134 0 -218 -78t-85 -212z
M659 322q0 -47 29.5 -77t75.5 -30t75 30t29 77t-29 76.5t-75 29.5t-75.5 -29.5t-29.5 -76.5z" />
    <glyph glyph-name=".notdef" horiz-adv-x="1572" 
d="M197 0v1434h1179v-1434h-1179zM498 918h155q9 143 146 143q57 0 89 -25t32 -71q0 -55 -62 -105l-65 -53q-66 -54 -86.5 -93t-20.5 -108v-63h156v57q0 41 10.5 61t46.5 50l59 49q66 55 93.5 104.5t27.5 106.5q0 106 -77 171.5t-201 65.5q-134 0 -218 -78t-85 -212z
M659 322q0 -47 29.5 -77t75.5 -30t75 30t29 77t-29 76.5t-75 29.5t-75.5 -29.5t-29.5 -76.5z" />
    <glyph glyph-name=".null" 
 />
    <glyph glyph-name="nonmarkingreturn" horiz-adv-x="682" 
 />
    <glyph glyph-name="CR" unicode="&#xd;" horiz-adv-x="491" 
 />
    <glyph glyph-name="space" unicode=" " horiz-adv-x="491" 
 />
    <glyph glyph-name="exclam" unicode="!" horiz-adv-x="569" 
d="M215 442l-25 992h189l-25 -992h-139zM156 115q0 55 37 92t92 37t92 -37t37 -92t-37 -92t-92 -37t-92 37t-37 92z" />
    <glyph glyph-name="quotedbl" unicode="&#x22;" horiz-adv-x="733" 
d="M135 905l-33 553h189l-33 -553h-123zM442 1458h189l-33 -553h-123z" />
    <glyph glyph-name="numbersign" unicode="#" horiz-adv-x="1441" 
d="M762 31l76 385h-353l-75 -385h-164l76 385h-220v143h248l62 315h-224v144h252l76 385h164l-76 -385h352l76 385h164l-76 -385h219v-144h-247l-62 -315h223v-143h-252l-75 -385h-164zM514 559h352l62 315h-353z" />
    <glyph glyph-name="dollar" unicode="$" horiz-adv-x="1112" 
d="M496 -86v139q-183 18 -297.5 128.5t-120.5 287.5h188q7 -108 67.5 -172t162.5 -82v442l-39 9q-351 76 -351 340q0 153 109.5 257t288.5 119v138h114v-138q170 -15 276 -113t116 -263h-189q-6 94 -57.5 148.5t-145.5 66.5v-422l58 -13q182 -39 266 -122.5t84 -214.5
q0 -165 -115 -274.5t-301 -123.5v-137h-114zM289 1012q0 -71 46.5 -113.5t168.5 -73.5v396q-102 -12 -158.5 -67t-56.5 -142zM610 213q108 12 171 72.5t63 150.5q0 73 -52 118.5t-182 76.5v-418z" />
    <glyph glyph-name="percent" unicode="%" horiz-adv-x="1783" 
d="M336 0l930 1434h182l-930 -1434h-182zM82 1094q0 153 104.5 258.5t257.5 105.5t258 -105.5t105 -258.5t-105 -259t-258 -106t-257.5 106t-104.5 259zM236 1094q0 -98 57 -161t151 -63t151.5 63t57.5 161t-57.5 160.5t-151.5 62.5t-151 -62.5t-57 -160.5zM977 340
q0 153 104.5 259t257.5 106t258 -106t105 -259t-105 -259t-258 -106t-257.5 106t-104.5 259zM1130 340q0 -99 57 -161t152 -62t152 62t57 161t-57 161t-152 62t-152 -62t-57 -161z" />
    <glyph glyph-name="ampersand" unicode="&#x26;" horiz-adv-x="1335" 
d="M1090 0l-132 150q-163 -175 -407 -175q-199 0 -329 110.5t-130 279.5q0 116 70.5 215t224.5 188l16 8l-2 2q-98 112 -140 192t-42 160q0 138 106.5 233t270.5 95q161 0 267 -90.5t106 -230.5q0 -102 -60 -194t-184 -163l-76 -43l295 -338q61 123 76 287h166
q-22 -240 -127 -416l235 -270h-204zM272 371q0 -108 75.5 -172t199.5 -64q182 0 305 129l-348 398l-17 -9q-117 -68 -166 -135.5t-49 -146.5zM391 1133q0 -102 119 -238l39 -43l100 57q152 87 152 211q0 86 -58 136.5t-147 50.5q-90 0 -147.5 -50t-57.5 -124z" />
    <glyph glyph-name="quotesingle" unicode="'" horiz-adv-x="393" 
d="M135 905l-33 553h189l-33 -553h-123z" />
    <glyph glyph-name="parenleft" unicode="(" horiz-adv-x="671" 
d="M467 -254q-156 182 -240 417t-84 482t84 482t240 417l135 -98q-118 -143 -196 -362.5t-78 -438.5t78 -438.5t196 -362.5z" />
    <glyph glyph-name="parenright" unicode=")" horiz-adv-x="671" 
d="M70 -156q118 143 196 362.5t78 438.5t-78 438.5t-196 362.5l135 98q156 -182 239.5 -416.5t83.5 -482.5t-83.5 -482.5t-239.5 -416.5z" />
    <glyph glyph-name="asterisk" unicode="*" horiz-adv-x="954" 
d="M406 1458h143l-10 -315l299 106l45 -137l-301 -88l192 -252l-119 -84l-178 262l-178 -262l-119 84l193 252l-301 88l45 137l299 -106z" />
    <glyph glyph-name="plus" unicode="+" horiz-adv-x="1331" 
d="M582 178v391h-367v160h367v391h168v-391h366v-160h-366v-391h-168z" />
    <glyph glyph-name="comma" unicode="," horiz-adv-x="540" 
d="M139 -281q142 142 142 277q-10 -2 -29 -2q-55 0 -90 36t-35 89t37.5 89t95.5 36q68 0 111 -52.5t43 -144.5q0 -104 -52.5 -208.5t-154.5 -190.5z" />
    <glyph glyph-name="hyphen" unicode="-" horiz-adv-x="847" 
d="M106 487v160h635v-160h-635z" />
    <glyph glyph-name="period" unicode="." horiz-adv-x="512" 
d="M256 -14q-56 0 -92.5 37t-36.5 92t36.5 92t92.5 37t92.5 -37t36.5 -92t-36.5 -92t-92.5 -37z" />
    <glyph glyph-name="slash" unicode="/" horiz-adv-x="999" 
d="M31 -188l757 1708h181l-758 -1708h-180z" />
    <glyph glyph-name="zero" unicode="0" horiz-adv-x="1323" 
d="M662 -25q-242 0 -374 142t-132 393v414q0 251 132 392.5t374 141.5t373.5 -141.5t131.5 -392.5v-414q0 -251 -131.5 -393t-373.5 -142zM340 510q0 -184 84 -277.5t238 -93.5t237.5 93.5t83.5 277.5v414q0 184 -83.5 277t-237.5 93t-238 -93t-84 -277v-414z" />
    <glyph glyph-name="one" unicode="1" horiz-adv-x="843" 
d="M444 0v1122h-280v148h61q128 0 181.5 34t78.5 130h144v-1434h-185z" />
    <glyph glyph-name="two" unicode="2" horiz-adv-x="1173" 
d="M125 86q0 115 36 203t126 176t252 188q190 118 258.5 207t68.5 189q0 116 -68 181.5t-192 65.5q-135 0 -212 -84t-83 -251h-184q4 233 136.5 365t346.5 132q196 0 318.5 -113t122.5 -305q0 -141 -85 -253.5t-304 -247.5q-186 -115 -260.5 -195.5t-86.5 -179.5h744v-164
h-934v86z" />
    <glyph glyph-name="three" unicode="3" horiz-adv-x="1216" 
d="M598 -25q-210 0 -338.5 115.5t-132.5 319.5h184q6 -130 85.5 -200.5t209.5 -70.5q137 0 218 74.5t81 194.5q0 119 -82 185t-231 66h-125v158h125q135 0 203.5 64.5t68.5 175.5q0 112 -68 174.5t-194 62.5q-259 0 -276 -272h-185q7 202 135 319t330 117q197 0 319 -110
t122 -285q0 -216 -195 -320v-6q115 -44 176.5 -131.5t61.5 -206.5q0 -184 -136.5 -304t-355.5 -120z" />
    <glyph glyph-name="four" unicode="4" horiz-adv-x="1204" 
d="M778 0v279h-696v147l651 1008h219v-1000h199v-155h-199v-279h-174zM270 434h508v787z" />
    <glyph glyph-name="five" unicode="5" horiz-adv-x="1210" 
d="M608 -25q-199 0 -329 115.5t-140 315.5h185q15 -128 92 -197.5t198 -69.5q143 0 228.5 89.5t85.5 238.5q0 145 -80.5 227t-218.5 82q-90 0 -167.5 -36.5t-129.5 -106.5h-160l86 801h758v-164h-600l-49 -432q125 94 288 94q196 0 326.5 -130.5t130.5 -338.5
q0 -215 -140.5 -351.5t-363.5 -136.5z" />
    <glyph glyph-name="six" unicode="6" horiz-adv-x="1202" 
d="M600 -25q-212 0 -357 139t-145 343q0 102 41.5 209t136.5 247l349 521h209l-345 -506q68 22 140 22q131 0 241 -62.5t175 -173.5t65 -245q0 -206 -147 -350t-363 -144zM283 467q0 -144 91.5 -236t229.5 -92t230 92.5t92 235.5t-92 235.5t-230 92.5t-229.5 -92t-91.5 -236
z" />
    <glyph glyph-name="seven" unicode="7" horiz-adv-x="1069" 
d="M215 0l578 1270h-707v164h905v-148l-579 -1286h-197z" />
    <glyph glyph-name="eight" unicode="8" horiz-adv-x="1232" 
d="M616 -25q-219 0 -354 112.5t-135 293.5q0 122 65.5 218t176.5 142v4q-106 46 -159.5 131t-53.5 191q0 171 128 281t332 110t332.5 -110t128.5 -281q0 -106 -53.5 -191t-159.5 -131v-4q111 -46 176.5 -142t65.5 -218q0 -180 -135.5 -293t-354.5 -113zM309 393
q0 -118 83.5 -188t223.5 -70t224 70t84 188q0 119 -85.5 194t-222.5 75t-222 -75t-85 -194zM336 1059q0 -110 74 -175t206 -65t206.5 65t74.5 175q0 109 -73.5 174t-207.5 65t-207 -64.5t-73 -174.5z" />
    <glyph glyph-name="nine" unicode="9" horiz-adv-x="1202" 
d="M602 1458q212 0 357 -138.5t145 -342.5q0 -102 -41.5 -209.5t-136.5 -247.5l-348 -520h-209l344 506q-71 -23 -140 -23q-131 0 -241 62.5t-175 174t-65 245.5q0 101 39 191.5t106.5 157t162.5 105.5t202 39zM276 967q0 -143 92 -235.5t230 -92.5t230 92.5t92 235.5
t-92 235t-230 92t-230 -92t-92 -235z" />
    <glyph glyph-name="colon" unicode=":" horiz-adv-x="532" 
d="M276 -14q-56 0 -92.5 37t-36.5 92t36.5 92t92.5 37t93 -37t37 -92t-37 -92t-93 -37zM147 834q0 56 36.5 92.5t92.5 36.5t93 -37t37 -92t-37 -92t-93 -37t-92.5 36.5t-36.5 92.5z" />
    <glyph glyph-name="semicolon" unicode=";" horiz-adv-x="561" 
d="M276 705q-56 0 -92.5 36.5t-36.5 92.5t36.5 92.5t92.5 36.5t93 -37t37 -92t-37 -92t-93 -37zM147 119q0 53 38 89t96 36q68 0 110.5 -52.5t42.5 -144.5q0 -104 -52.5 -208.5t-154.5 -190.5l-67 71q141 141 141 277q-10 -2 -29 -2q-55 0 -90 36t-35 89z" />
    <glyph glyph-name="less" unicode="&#x3c;" horiz-adv-x="1331" 
d="M1116 207l-901 356v172l901 357v-177l-692 -266l692 -266v-176z" />
    <glyph glyph-name="equal" unicode="=" horiz-adv-x="1331" 
d="M215 774v162h901v-162h-901zM215 362v162h901v-162h-901z" />
    <glyph glyph-name="greater" unicode="&#x3e;" horiz-adv-x="1331" 
d="M215 207v176l692 266l-692 266v177l901 -357v-172z" />
    <glyph glyph-name="question" unicode="?" horiz-adv-x="985" 
d="M362 537q0 102 32 165t128 144l101 84q61 52 84.5 93.5t23.5 90.5q0 84 -55 134t-152 50q-112 0 -179.5 -67t-68.5 -187h-182q6 191 125 302.5t303 111.5q171 0 280 -94.5t109 -243.5q0 -83 -42.5 -159.5t-141.5 -159.5l-100 -84q-54 -45 -69 -78t-15 -102v-95h-181v95z
M324 115q0 55 37 92t92 37t92 -37t37 -92t-37 -92t-92 -37t-92 37t-37 92z" />
    <glyph glyph-name="at" unicode="@" horiz-adv-x="1935" 
d="M1012 -395q-258 0 -463.5 108.5t-321.5 305.5t-116 446q0 189 70 354t189 280t281.5 181t343.5 66q136 0 263 -37t231.5 -107.5t182.5 -167t121.5 -221.5t43.5 -264q0 -225 -103.5 -364.5t-258.5 -139.5q-88 0 -153 47t-89 137h-6q-36 -90 -113.5 -137t-175.5 -47
q-160 0 -265.5 118t-105.5 304t105.5 304t265.5 118q86 0 154.5 -39t103.5 -111h6l12 121h138v-508q0 -172 125 -172q93 0 147.5 92.5t54.5 257.5q0 153 -52.5 279.5t-144.5 210t-216 129t-267 45.5q-156 0 -290 -54.5t-228.5 -149.5t-148 -230t-53.5 -291q0 -210 93 -373
t260.5 -252.5t383.5 -89.5q230 0 403 90v-157q-187 -82 -407 -82zM735 467q0 -126 66 -199t168 -73t167.5 73t65.5 199t-65.5 199t-167.5 73t-168 -73t-66 -199z" />
    <glyph glyph-name="A" unicode="A" horiz-adv-x="1325" 
d="M33 0l528 1434h203l528 -1434h-190l-129 358h-621l-129 -358h-190zM410 522h505l-249 695h-7z" />
    <glyph glyph-name="B" unicode="B" horiz-adv-x="1323" 
d="M197 0v1434h485q219 0 346 -107.5t127 -284.5q0 -216 -188 -305v-6q241 -73 241 -336q0 -188 -121.5 -291.5t-349.5 -103.5h-540zM385 164h344q148 0 217.5 58.5t69.5 178.5t-69.5 179t-217.5 59h-344v-475zM385 799h297q285 0 285 233q0 116 -72.5 177t-212.5 61h-297
v-471z" />
    <glyph glyph-name="C" unicode="C" horiz-adv-x="1558" 
d="M809 -25q-197 0 -356.5 93.5t-251.5 263.5t-92 385q0 161 54 300t148 235.5t223.5 151t276.5 54.5q257 0 437 -151t208 -394h-192q-33 180 -152.5 276.5t-294.5 96.5q-224 0 -370 -155t-146 -414t146 -414.5t370 -155.5q179 0 302 99t155 274h186q-26 -243 -208 -394
t-443 -151z" />
    <glyph glyph-name="D" unicode="D" horiz-adv-x="1421" 
d="M197 0v1434h352q226 0 398.5 -87t268 -250t95.5 -380t-95.5 -380t-268 -250t-398.5 -87h-352zM385 172h172q257 0 409 143t152 402t-152 402t-409 143h-172v-1090z" />
    <glyph glyph-name="E" unicode="E" horiz-adv-x="1204" 
d="M197 0v1434h872v-172h-684v-455h627v-172h-627v-463h684v-172h-872z" />
    <glyph glyph-name="F" unicode="F" horiz-adv-x="1183" 
d="M197 0v1434h872v-172h-684v-492h643v-172h-643v-598h-188z" />
    <glyph glyph-name="G" unicode="G" horiz-adv-x="1599" 
d="M797 -25q-193 0 -350 92.5t-247.5 262t-90.5 385.5q0 162 53.5 301t147.5 236t226 151.5t285 54.5q248 0 422 -133.5t213 -361.5h-196q-29 152 -146 238.5t-289 86.5q-232 0 -378 -155t-146 -416q0 -260 144.5 -416t369.5 -156q190 0 318 114.5t151 313.5h-444v168h616
v-741h-149l-23 213h-6q-70 -113 -197.5 -175.5t-283.5 -62.5z" />
    <glyph glyph-name="H" unicode="H" horiz-adv-x="1454" 
d="M1069 0v610h-684v-610h-188v1434h188v-652h684v652h188v-1434h-188z" />
    <glyph glyph-name="I" unicode="I" horiz-adv-x="581" 
d="M197 0v1434h188v-1434h-188z" />
    <glyph glyph-name="J" unicode="J" horiz-adv-x="1236" 
d="M573 -25q-234 0 -360.5 130t-126.5 384v158h188v-145q0 -184 75.5 -269.5t223.5 -85.5q299 0 299 355v760h-606v172h795v-945q0 -254 -127 -384t-361 -130z" />
    <glyph glyph-name="K" unicode="K" horiz-adv-x="1288" 
d="M197 0v1434h188v-666h6l623 666h233l-669 -713l686 -721h-250l-623 653h-6v-653h-188z" />
    <glyph glyph-name="L" unicode="L" horiz-adv-x="1105" 
d="M197 0v1434h188v-1262h655v-172h-843z" />
    <glyph glyph-name="M" unicode="M" horiz-adv-x="1878" 
d="M197 0v1434h204l535 -1182h6l535 1182h204v-1434h-184v1042h-6l-479 -1042h-146l-479 1042h-6v-1042h-184z" />
    <glyph glyph-name="N" unicode="N" horiz-adv-x="1529" 
d="M197 0v1434h198l744 -1129h6v1129h188v-1434h-198l-744 1128h-6v-1128h-188z" />
    <glyph glyph-name="O" unicode="O" horiz-adv-x="1630" 
d="M815 -25q-201 0 -362 94.5t-252.5 264t-91.5 383.5t91.5 383.5t252.5 263.5t362 94q150 0 281 -55t225 -152t147.5 -235.5t53.5 -298.5q0 -214 -91.5 -383.5t-253 -264t-362.5 -94.5zM301 717q0 -258 144 -414t370 -156t370 156t144 414t-144 413.5t-370 155.5
t-370 -155.5t-144 -413.5z" />
    <glyph glyph-name="P" unicode="P" horiz-adv-x="1292" 
d="M197 0v1434h460q249 0 396 -129.5t147 -350.5t-147 -350t-396 -129h-272v-475h-188zM385 647h268q175 0 265 78t90 229t-90 229.5t-265 78.5h-268v-615z" />
    <glyph glyph-name="Q" unicode="Q" horiz-adv-x="1630" 
d="M1337 -154l-178 213q-158 -84 -344 -84q-201 0 -362 94.5t-252.5 264t-91.5 383.5t91.5 383.5t252.5 263.5t362 94q150 0 281 -55t225 -152t147.5 -235.5t53.5 -298.5q0 -169 -59 -312t-165 -243l172 -205zM301 717q0 -258 144 -414t370 -156q124 0 227 50l-274 327
l133 111l281 -334q147 157 147 416q0 258 -144 413.5t-370 155.5t-370 -155.5t-144 -413.5z" />
    <glyph glyph-name="R" unicode="R" horiz-adv-x="1329" 
d="M197 0v1434h456q251 0 399 -127t148 -340q0 -171 -98.5 -289.5t-272.5 -159.5l390 -518h-232l-371 500h-231v-500h-188zM385 672h268q172 0 263.5 76.5t91.5 218.5t-91.5 218.5t-263.5 76.5h-268v-590z" />
    <glyph glyph-name="S" unicode="S" horiz-adv-x="1220" 
d="M621 -25q-227 0 -374 129.5t-153 346.5h193q13 -149 104.5 -227.5t235.5 -78.5q141 0 227 71t86 183q0 88 -68 143.5t-239 92.5l-131 29q-387 84 -387 376q0 183 138 300.5t355 117.5q213 0 348 -115.5t154 -318.5h-192q-20 133 -101.5 198.5t-212.5 65.5
q-137 0 -218 -65.5t-81 -173.5q0 -88 67 -140.5t238 -89.5l131 -28q203 -45 296 -137.5t93 -237.5q0 -195 -142.5 -318t-366.5 -123z" />
    <glyph glyph-name="T" unicode="T" horiz-adv-x="1155" 
d="M483 0v1262h-438v172h1065v-172h-438v-1262h-189z" />
    <glyph glyph-name="U" unicode="U" horiz-adv-x="1445" 
d="M723 -25q-251 0 -399 158t-148 428v873h189v-881q0 -194 96 -300t262 -106t262 106t96 300v881h189v-873q0 -270 -148 -428t-399 -158z" />
    <glyph glyph-name="V" unicode="V" horiz-adv-x="1308" 
d="M545 0l-512 1434h192l426 -1215h6l426 1215h193l-512 -1434h-219z" />
    <glyph glyph-name="W" unicode="W" horiz-adv-x="2050" 
d="M487 0l-444 1434h190l351 -1145h6l344 1145h182l344 -1145h6l351 1145h190l-444 -1434h-189l-346 1159h-6l-346 -1159h-189z" />
    <glyph glyph-name="X" unicode="X" horiz-adv-x="1220" 
d="M37 0l461 748l-441 686h209l344 -547l344 547h209l-440 -686l461 -748h-205l-369 606l-368 -606h-205z" />
    <glyph glyph-name="Y" unicode="Y" horiz-adv-x="1277" 
d="M545 0v563l-529 871h213l408 -695h4l408 695h213l-529 -871v-563h-188z" />
    <glyph glyph-name="Z" unicode="Z" horiz-adv-x="1175" 
d="M102 0v143l727 1119h-710v172h938v-144l-727 -1118h743v-172h-971z" />
    <glyph glyph-name="bracketleft" unicode="[" horiz-adv-x="743" 
d="M197 -233v1753h475v-160h-295v-1434h295v-159h-475z" />
    <glyph glyph-name="backslash" unicode="\" horiz-adv-x="999" 
d="M969 -188h-181l-757 1708h180z" />
    <glyph glyph-name="bracketright" unicode="]" horiz-adv-x="743" 
d="M547 -233h-475v159h295v1434h-295v160h475v-1753z" />
    <glyph glyph-name="asciicircum" unicode="^" horiz-adv-x="1185" 
d="M61 715l447 669h170l446 -669h-204l-326 508l-328 -508h-205z" />
    <glyph glyph-name="underscore" unicode="_" horiz-adv-x="839" 
d="M20 -268v155h799v-155h-799z" />
    <glyph glyph-name="grave" unicode="`" horiz-adv-x="1228" 
d="M594 1114l-203 287h223l138 -287h-158z" />
    <glyph glyph-name="a" unicode="a" horiz-adv-x="1110" 
d="M438 -25q-146 0 -234.5 77t-88.5 200q0 119 86.5 195.5t251.5 99.5l327 45v20q0 222 -225 222q-104 0 -160.5 -47t-62.5 -134h-185q11 156 120.5 245t293.5 89q190 0 293.5 -98t103.5 -277v-612h-161l-13 131h-6q-47 -69 -139.5 -112.5t-200.5 -43.5zM299 258
q0 -62 46.5 -97.5t131.5 -35.5q133 0 218 82t85 207v41l-268 -37q-213 -28 -213 -160z" />
    <glyph glyph-name="b" unicode="b" horiz-adv-x="1226" 
d="M666 -25q-106 0 -195 43t-131 111h-6l-12 -129h-162v1434h180v-598h6q42 69 130.5 110t189.5 41q197 0 328.5 -142.5t131.5 -363.5t-131 -363.5t-329 -142.5zM332 481q0 -162 82.5 -256t222.5 -94q138 0 221.5 94.5t83.5 255.5t-83.5 255.5t-221.5 94.5
q-140 0 -222.5 -94t-82.5 -256z" />
    <glyph glyph-name="c" unicode="c" horiz-adv-x="1122" 
d="M592 -25q-218 0 -355 141.5t-137 364.5t140 364.5t358 141.5q184 0 304 -100t140 -277h-184q-13 101 -84.5 161t-177.5 60q-136 0 -223.5 -95t-87.5 -255t87 -255t222 -95q107 0 185 60.5t91 160.5h179q-20 -175 -145.5 -276t-311.5 -101z" />
    <glyph glyph-name="d" unicode="d" horiz-adv-x="1226" 
d="M561 -25q-198 0 -329.5 142.5t-131.5 363.5t132 363.5t329 142.5q101 0 189.5 -41t130.5 -110h6v598h180v-1434h-162l-12 129h-6q-42 -68 -131 -111t-195 -43zM285 481q0 -161 83.5 -255.5t221.5 -94.5q140 0 222.5 94t82.5 256t-82.5 256t-222.5 94q-138 0 -221.5 -94.5
t-83.5 -255.5z" />
    <glyph glyph-name="e" unicode="e" horiz-adv-x="1144" 
d="M592 -25q-218 0 -356 139t-138 361q0 225 141 368.5t355 143.5q201 0 329 -129.5t128 -341.5q0 -31 -7 -78h-761q10 -148 96 -227.5t219 -79.5q91 0 161 39.5t107 112.5h170q-38 -142 -159 -225t-285 -83zM291 580h577q-17 128 -89 193t-185 65q-117 0 -198 -67.5
t-105 -190.5z" />
    <glyph glyph-name="f" unicode="f" horiz-adv-x="708" 
d="M217 1083q0 183 87 279t245 96q65 0 119 -14v-150q-41 9 -80 9q-99 0 -145 -50t-46 -166v-124h262v-154h-262v-809h-180v809h-180v154h180v120z" />
    <glyph glyph-name="g" unicode="g" horiz-adv-x="1026" 
d="M510 -483q-226 0 -343.5 76.5t-117.5 211.5q0 73 35.5 129.5t101.5 88.5q-96 58 -96 167q0 69 40 121t106 76q-101 98 -101 248q0 155 106.5 253.5t278.5 98.5h481v-110l-178 -15q82 -91 82 -227q0 -155 -106.5 -253.5t-278.5 -98.5q-92 0 -174 32q-41 -8 -66.5 -34.5
t-25.5 -63.5q0 -40 31 -62t88 -22h311q152 0 234.5 -74t82.5 -209q0 -158 -122.5 -245.5t-368.5 -87.5zM221 -168q0 -162 301 -162q307 0 307 176q0 64 -42.5 96.5t-139.5 32.5h-270q-70 0 -113 -40t-43 -103zM303 635q0 -95 58.5 -152t158.5 -57t158.5 57t58.5 152
q0 96 -58.5 153.5t-158.5 57.5t-158.5 -57.5t-58.5 -153.5z" />
    <glyph glyph-name="h" unicode="h" horiz-adv-x="1153" 
d="M160 0v1434h180v-600h6q48 73 127 113t180 40q160 0 254 -100t94 -279v-608h-180v539q0 155 -54 221.5t-163 66.5q-123 0 -193.5 -77t-70.5 -226v-524h-180z" />
    <glyph glyph-name="i" unicode="i" horiz-adv-x="499" 
d="M160 0v963h180v-963h-180zM127 1257q0 52 36 87.5t87 35.5t87 -35.5t36 -87.5t-36 -87t-87 -35t-87 35t-36 87z" />
    <glyph glyph-name="j" unicode="j" horiz-adv-x="499" 
d="M63 -483q-55 0 -100 10v149q32 -4 62 -4q73 0 104 34t31 122v1135h180v-1135q0 -164 -67 -237.5t-210 -73.5zM127 1257q0 52 36 87.5t87 35.5t87 -35.5t36 -87.5t-36 -87t-87 -35t-87 35t-36 87z" />
    <glyph glyph-name="k" unicode="k" horiz-adv-x="1036" 
d="M160 0v1434h180v-883h4l428 412h232l-474 -455l486 -508h-236l-434 457h-6v-457h-180z" />
    <glyph glyph-name="l" unicode="l" horiz-adv-x="499" 
d="M160 0v1434h180v-1434h-180z" />
    <glyph glyph-name="m" unicode="m" horiz-adv-x="1757" 
d="M160 0v963h162l12 -129h6q45 71 126.5 112t174.5 41q98 0 174 -46t115 -134h6q48 81 137.5 130.5t196.5 49.5q152 0 244 -100.5t92 -278.5v-608h-181v547q0 146 -51 213t-151 67q-113 0 -181.5 -78.5t-68.5 -220.5v-528h-180v547q0 147 -50.5 213.5t-150.5 66.5
q-113 0 -182.5 -78t-69.5 -221v-528h-180z" />
    <glyph glyph-name="n" unicode="n" horiz-adv-x="1153" 
d="M160 0v963h162l12 -129h6q46 72 128.5 112.5t184.5 40.5q160 0 254 -100t94 -279v-608h-180v539q0 155 -54 221.5t-163 66.5q-123 0 -193.5 -77t-70.5 -226v-524h-180z" />
    <glyph glyph-name="o" unicode="o" horiz-adv-x="1187" 
d="M594 -25q-215 0 -355.5 142t-140.5 364t140.5 364t355.5 142t355.5 -142t140.5 -364t-140.5 -364t-355.5 -142zM283 481q0 -157 87.5 -253.5t223.5 -96.5t223.5 96.5t87.5 253.5t-87.5 253.5t-223.5 96.5t-223.5 -96.5t-87.5 -253.5z" />
    <glyph glyph-name="p" unicode="p" horiz-adv-x="1226" 
d="M160 -459v1422h162l12 -129h6q42 68 131 110.5t195 42.5q198 0 329 -142.5t131 -363.5t-131.5 -363.5t-328.5 -142.5q-101 0 -189.5 41t-130.5 111h-6v-586h-180zM332 481q0 -161 84.5 -255.5t220.5 -94.5t220.5 94.5t84.5 255.5t-84.5 255.5t-220.5 94.5t-220.5 -94.5
t-84.5 -255.5z" />
    <glyph glyph-name="q" unicode="q" horiz-adv-x="1226" 
d="M1067 -459h-180v586h-6q-42 -70 -130.5 -111t-189.5 -41q-197 0 -329 142.5t-132 363.5t131.5 363.5t329.5 142.5q106 0 195 -42.5t131 -110.5h6l12 129h162v-1422zM285 481q0 -161 84.5 -255.5t220.5 -94.5t220.5 94.5t84.5 255.5t-84.5 255.5t-220.5 94.5t-220.5 -94.5
t-84.5 -255.5z" />
    <glyph glyph-name="r" unicode="r" horiz-adv-x="751" 
d="M160 0v963h159l15 -148h6q34 77 105.5 121.5t160.5 44.5q53 0 96 -16v-156q-44 6 -84 6q-136 0 -207 -77.5t-71 -233.5v-504h-180z" />
    <glyph glyph-name="s" unicode="s" horiz-adv-x="946" 
d="M485 -25q-175 0 -281.5 85t-117.5 231h180q10 -82 68.5 -126t152.5 -44q93 0 149 41t56 106q0 53 -44 86t-150 54l-117 22q-281 55 -281 262q0 130 102.5 212.5t276.5 82.5q163 0 261 -75.5t110 -213.5h-180q-8 68 -59.5 106t-141.5 38q-91 0 -143 -38t-52 -102
q0 -47 40 -76t153 -51l117 -22q146 -28 214 -93.5t68 -176.5q0 -138 -102 -223t-279 -85z" />
    <glyph glyph-name="t" unicode="t" horiz-adv-x="739" 
d="M541 -25q-170 0 -251 84.5t-81 276.5v473h-176v154h176v243h180v-243h273v-154h-273v-473q0 -119 42.5 -163t146.5 -44q51 0 92 8v-147q-58 -15 -129 -15z" />
    <glyph glyph-name="u" unicode="u" horiz-adv-x="1140" 
d="M494 -25q-153 0 -247.5 100t-94.5 279v609h180v-539q0 -154 53.5 -221.5t157.5 -67.5q119 0 188.5 77.5t69.5 225.5v525h180v-963h-162l-12 129h-6q-46 -72 -128 -113t-179 -41z" />
    <glyph glyph-name="v" unicode="v" horiz-adv-x="1017" 
d="M418 0l-393 963h188l293 -748h6l293 748h188l-393 -963h-182z" />
    <glyph glyph-name="w" unicode="w" horiz-adv-x="1613" 
d="M367 0l-322 963h186l232 -732h6l256 732h164l256 -732h6l231 732h187l-322 -963h-184l-254 727h-4l-254 -727h-184z" />
    <glyph glyph-name="x" unicode="x" horiz-adv-x="1001" 
d="M37 0l358 498l-338 465h199l246 -338l243 338h199l-338 -465l359 -498h-201l-262 369l-264 -369h-201z" />
    <glyph glyph-name="y" unicode="y" horiz-adv-x="1021" 
d="M231 -459l189 459l-395 963h190l293 -748h6l297 748h186l-583 -1422h-183z" />
    <glyph glyph-name="z" unicode="z" horiz-adv-x="913" 
d="M78 0v119l520 690h-512v154h737v-119l-518 -688h531v-156h-758z" />
    <glyph glyph-name="braceleft" unicode="{" horiz-adv-x="759" 
d="M520 -233q-150 0 -218.5 62.5t-68.5 197.5v417q0 62 -30.5 90.5t-100.5 28.5h-24v160h24q70 0 100.5 28.5t30.5 90.5v418q0 135 68.5 197.5t218.5 62.5h168v-160h-156q-118 0 -118 -117v-387q0 -161 -138 -209v-8q138 -48 138 -209v-387q0 -117 118 -117h156v-159h-168z
" />
    <glyph glyph-name="bar" unicode="|" horiz-adv-x="647" 
d="M238 -205v1772h172v-1772h-172z" />
    <glyph glyph-name="braceright" unicode="}" horiz-adv-x="759" 
d="M240 -233h-168v159h155q119 0 119 117v387q0 162 137 209v8q-137 47 -137 209v387q0 117 -119 117h-155v160h168q150 0 218 -62t68 -198v-418q0 -62 30.5 -90.5t100.5 -28.5h25v-160h-25q-70 0 -100.5 -28.5t-30.5 -90.5v-417q0 -136 -68 -198t-218 -62z" />
    <glyph glyph-name="asciitilde" unicode="~" horiz-adv-x="1331" 
d="M881 526q-75 0 -214 43t-214 43q-114 0 -238 -84v160q112 82 242 82q72 0 213 -43t209 -43q63 0 127.5 23t109.5 61v-160q-116 -82 -235 -82z" />
    <glyph glyph-name="uni00A0" unicode="&#xa0;" horiz-adv-x="491" 
 />
    <glyph glyph-name="exclamdown" unicode="&#xa1;" horiz-adv-x="569" 
d="M215 530h139l25 -991h-189zM156 858q0 56 37 92.5t92 36.5t92 -36.5t37 -92.5t-37 -92.5t-92 -36.5t-92 36.5t-37 92.5z" />
    <glyph glyph-name="cent" unicode="&#xa2;" horiz-adv-x="1150" 
d="M530 0v215q-189 23 -305 160.5t-116 341.5q0 201 116 338.5t305 163.5v215h119v-213q171 -11 281 -111t129 -264h-176q-12 94 -74 152.5t-160 70.5v-704q101 12 167.5 71t78.5 152h170q-19 -161 -131.5 -261t-284.5 -114v-213h-119zM287 717q0 -140 66 -231t177 -115v692
q-111 -24 -177 -115t-66 -231z" />
    <glyph glyph-name="sterling" unicode="&#xa3;" horiz-adv-x="1103" 
d="M94 125q137 68 201.5 153t64.5 193q0 53 -18 123h-240v143h179q-2 5 -15 30.5t-16 32t-14.5 30t-15 33t-12.5 31.5t-12.5 34.5t-9.5 33t-8 36.5t-4 35t-2 38q0 167 120 277t314 110t308 -114.5t114 -321.5h-178q-3 142 -65.5 214.5t-178.5 72.5q-117 0 -186.5 -68
t-69.5 -174q0 -31 5.5 -62t20.5 -70.5t23.5 -60t33 -72t30.5 -65.5h389v-143h-336q19 -82 19 -131q0 -186 -148 -303h643v-160h-936v125z" />
    <glyph glyph-name="currency" unicode="&#xa4;" horiz-adv-x="1122" 
d="M561 319q-129 0 -229 68l-150 -149l-100 98l154 153q-66 97 -66 228q0 130 66 227l-154 154l100 98l150 -149q98 67 229 67q135 0 230 -67l151 149l98 -98l-151 -154q65 -100 65 -227q0 -128 -65 -228l151 -153l-98 -98l-151 149q-96 -68 -230 -68zM330 717
q0 -109 63.5 -176.5t167.5 -67.5t169 67.5t65 176.5t-65 176.5t-169 67.5t-167.5 -67.5t-63.5 -176.5z" />
    <glyph glyph-name="yen" unicode="&#xa5;" horiz-adv-x="1150" 
d="M487 0v272h-368v127h368v181h-368v127h307l-389 727h194l344 -668l345 668h194l-389 -727h307v-127h-368v-181h368v-127h-368v-272h-177z" />
    <glyph glyph-name="brokenbar" unicode="&#xa6;" horiz-adv-x="647" 
d="M238 834v733h172v-733h-172zM238 -205v717h172v-717h-172z" />
    <glyph glyph-name="section" unicode="&#xa7;" horiz-adv-x="1112" 
d="M561 -268q-187 0 -301.5 99t-120.5 280h189q4 -105 66.5 -160t170.5 -55q105 0 166.5 48t61.5 122q0 58 -50 96.5t-180 68.5l-110 25q-156 34 -238 107.5t-82 203.5q0 97 48 174.5t132 110.5q-180 85 -180 266q0 147 115 243.5t295 96.5q176 0 286.5 -95.5t120.5 -262.5
h-188q-7 96 -65.5 145t-159.5 49t-159.5 -47t-58.5 -123q0 -61 49.5 -98.5t180.5 -67.5l110 -24q156 -34 238 -107.5t82 -203.5q0 -97 -48 -174.5t-132 -110.5q180 -85 180 -266q0 -148 -115.5 -244t-302.5 -96zM317 590q0 -72 44 -111t157 -65l72 -17q74 -18 139.5 44
t65.5 159q0 72 -44 111t-157 65l-72 17q-74 18 -139.5 -44t-65.5 -159z" />
    <glyph glyph-name="dieresis" unicode="&#xa8;" horiz-adv-x="1228" 
d="M819 1135q-51 0 -87 35t-36 87t36 87.5t87 35.5t87 -35.5t36 -87.5t-36 -87t-87 -35zM287 1257q0 52 36 87.5t87 35.5t86.5 -35.5t35.5 -87.5t-35.5 -87t-86.5 -35t-87 35t-36 87z" />
    <glyph glyph-name="copyright" unicode="&#xa9;" horiz-adv-x="1712" 
d="M856 -25q-206 0 -377.5 98.5t-270.5 269t-99 374.5q0 153 58.5 290t158 236t238 157t292.5 58t292.5 -58t238.5 -157t158.5 -236t58.5 -290t-58.5 -290.5t-158.5 -236.5t-238.5 -157t-292.5 -58zM260 717q0 -165 77 -303t214 -218.5t305 -80.5t305 80.5t214 218.5t77 303
t-77 303t-214 218.5t-305 80.5t-305 -80.5t-214 -218.5t-77 -303zM473 717q0 181 112.5 295t288.5 114q151 0 250 -84.5t109 -232.5h-170q-8 75 -60 120.5t-131 45.5q-98 0 -161.5 -70.5t-63.5 -187.5t63.5 -187.5t161.5 -70.5q85 0 138 45t61 121h166q-13 -148 -113 -233
t-250 -85q-175 0 -288 114.5t-113 295.5z" />
    <glyph glyph-name="ordfeminine" unicode="&#xaa;" horiz-adv-x="1017" 
d="M457 592q-165 0 -276 121t-111 311q0 191 111 312.5t276 121.5q89 0 162.5 -36t107.5 -95h6l10 111h160v-826h-160l-10 111h-6q-35 -60 -108 -95.5t-162 -35.5zM250 1024q0 -127 67.5 -203t176.5 -76q108 0 175.5 75.5t67.5 203.5t-67.5 203.5t-175.5 75.5t-176 -75.5
t-68 -203.5z" />
    <glyph glyph-name="guillemotleft" unicode="&#xab;" horiz-adv-x="1146" 
d="M399 147l-307 439l307 438h205l-305 -438l305 -439h-205zM532 586l308 438h204l-305 -438l305 -439h-204z" />
    <glyph glyph-name="logicalnot" unicode="&#xac;" horiz-adv-x="1331" 
d="M948 354v215h-733v160h901v-375h-168z" />
    <glyph glyph-name="registered" unicode="&#xae;" horiz-adv-x="968" 
d="M485 635q-171 0 -292 120.5t-121 291.5q0 172 120.5 291.5t292.5 119.5q171 0 291.5 -120t120.5 -291t-120.5 -291.5t-291.5 -120.5zM162 1047q0 -138 93 -234t230 -96q136 0 229 96.5t93 233.5t-93 233t-229 96q-137 0 -230 -96t-93 -233zM322 836v436h196
q69 0 109.5 -38.5t40.5 -107.5q0 -113 -101 -135l115 -155h-119l-100 149h-43v-149h-98zM420 1077h92q51 0 51 47t-51 47h-92v-94z" />
    <glyph glyph-name="macron" unicode="&#xaf;" horiz-adv-x="1228" 
d="M346 1178v139h537v-139h-537z" />
    <glyph glyph-name="degree" unicode="&#xb0;" horiz-adv-x="770" 
d="M385 860q-131 0 -217 86t-86 213t86 213t217 86t217 -86t86 -213t-86 -213t-217 -86zM229 1159q0 -70 42.5 -115t113.5 -45t113.5 45t42.5 115t-42.5 115t-113.5 45t-113.5 -45t-42.5 -115z" />
    <glyph glyph-name="plusminus" unicode="&#xb1;" horiz-adv-x="1331" 
d="M215 0v160h901v-160h-901zM215 690v160h367v369h170v-369h364v-160h-364v-366h-170v366h-367z" />
    <glyph glyph-name="uni00B2" unicode="&#xb2;" horiz-adv-x="757" 
d="M86 637q0 117 48.5 187t197.5 163q112 70 150 113t38 94q0 57 -34 89t-95 32q-68 0 -109 -42t-44 -126h-162q3 145 89.5 228t227.5 83q131 0 209 -71.5t78 -190.5q0 -87 -53 -157.5t-187 -151.5q-91 -55 -133 -98.5t-53 -88.5h424v-145h-592v82z" />
    <glyph glyph-name="uni00B3" unicode="&#xb3;" horiz-adv-x="774" 
d="M387 541q-138 0 -220.5 77t-82.5 213h162q0 -68 39.5 -106.5t105.5 -38.5q65 0 105.5 37.5t40.5 95.5q0 56 -40 89.5t-112 33.5h-88v133h86q65 0 100 32t35 87q0 56 -35 87.5t-96 31.5t-96.5 -33t-38.5 -98h-162q6 125 88 200.5t215 75.5q127 0 205 -68t78 -180
q0 -142 -129 -198q71 -27 110 -83.5t39 -129.5q0 -111 -86 -184.5t-223 -73.5z" />
    <glyph glyph-name="acute" unicode="&#xb4;" horiz-adv-x="1228" 
d="M461 1114l137 287h223l-203 -287h-157z" />
    <glyph glyph-name="uni00B5" unicode="&#xb5;" horiz-adv-x="1148" 
d="M160 -459v1422h180v-545q0 -279 227 -279q111 0 176.5 77t65.5 222v525h180v-963h-162l-12 129h-6q-98 -154 -258 -154q-134 0 -211 107v-541h-180z" />
    <glyph glyph-name="paragraph" unicode="&#xb6;" horiz-adv-x="1355" 
d="M543 -262v1081h-31q-170 0 -269.5 86t-99.5 221q0 136 102.5 222t286.5 86h191v-1696h-180zM938 -262v1696h180v-1696h-180z" />
    <glyph glyph-name="periodcentered" unicode="&#xb7;" horiz-adv-x="512" 
d="M256 516q-56 0 -92.5 37t-36.5 92t36.5 92t92.5 37t92.5 -37t36.5 -92t-36.5 -92t-92.5 -37z" />
    <glyph glyph-name="cedilla" unicode="&#xb8;" horiz-adv-x="1228" 
d="M528 -463q-42 0 -88 6v129q29 -4 76 -4q123 0 123 68q0 29 -34.5 43t-137.5 14l16 207h127l-2 -109q85 -9 131.5 -52t46.5 -115q0 -86 -66.5 -136.5t-191.5 -50.5z" />
    <glyph glyph-name="uni00B9" unicode="&#xb9;" horiz-adv-x="579" 
d="M281 545v659h-191v113h37q91 0 129 24.5t55 92.5h129v-889h-159z" />
    <glyph glyph-name="ordmasculine" unicode="&#xba;" horiz-adv-x="991" 
d="M496 592q-185 0 -305.5 121t-120.5 311t120.5 312t305.5 122t305.5 -121.5t120.5 -312.5q0 -190 -120.5 -311t-305.5 -121zM250 1024q0 -125 69.5 -202t176.5 -77q108 0 177.5 77.5t69.5 201.5q0 125 -69.5 202t-177.5 77q-107 0 -176.5 -77t-69.5 -202z" />
    <glyph glyph-name="guillemotright" unicode="&#xbb;" horiz-adv-x="1146" 
d="M748 147h-205l305 439l-305 438h205l307 -438zM102 147l306 439l-306 438h205l307 -438l-307 -439h-205z" />
    <glyph glyph-name="onequarter" unicode="&#xbc;" horiz-adv-x="1798" 
d="M313 545v659h-190v113h37q91 0 129 24.5t55 92.5h129v-889h-160zM301 0l930 1434h182l-930 -1434h-182zM969 168v127l387 594h190v-584h109v-137h-109v-168h-149v168h-428zM1133 305h264v406z" />
    <glyph glyph-name="onehalf" unicode="&#xbd;" horiz-adv-x="1851" 
d="M313 545v659h-190v113h37q91 0 129 24.5t55 92.5h129v-889h-160zM293 0l930 1434h182l-930 -1434h-182zM1104 592q3 145 89.5 228t227.5 83q131 0 209 -71.5t78 -190.5q0 -87 -53 -157.5t-187 -151.5q-91 -55 -133 -98.5t-53 -88.5h424v-145h-592v82q0 117 48.5 187
t197.5 163q112 70 150 113t38 94q0 57 -34 89t-95 32q-68 0 -109 -42t-44 -126h-162z" />
    <glyph glyph-name="threequarters" unicode="&#xbe;" horiz-adv-x="2000" 
d="M504 0l930 1434h182l-930 -1434h-182zM133 831h162q0 -68 39.5 -106.5t105.5 -38.5q65 0 105.5 37.5t40.5 95.5q0 56 -40 89.5t-112 33.5h-88v133h86q65 0 100 32t35 87q0 56 -35 87.5t-96 31.5t-96.5 -33t-38.5 -98h-162q6 125 88 200.5t215 75.5q127 0 205 -68t78 -180
q0 -142 -129 -198q71 -27 110 -83.5t39 -129.5q0 -111 -86 -184.5t-223 -73.5q-138 0 -220.5 77t-82.5 213zM1171 168v127l388 594h190v-584h109v-137h-109v-168h-150v168h-428zM1335 305h264v406z" />
    <glyph glyph-name="questiondown" unicode="&#xbf;" horiz-adv-x="1005" 
d="M643 438q0 -102 -32 -165t-128 -144l-100 -84q-61 -53 -85 -94t-24 -90q0 -84 55 -134.5t152 -50.5q112 0 179.5 67t68.5 187h182q-6 -191 -125 -302t-303 -111q-171 0 -280 94.5t-109 243.5q0 83 42.5 159t142.5 160l100 84q54 45 69 78t15 102v94h180v-94zM424 860
q0 56 37 92.5t92 36.5t92 -36.5t37 -92.5t-37 -92.5t-92 -36.5t-92 36.5t-37 92.5z" />
    <glyph glyph-name="Agrave" unicode="&#xc0;" horiz-adv-x="1325" 
d="M33 0l528 1434h203l528 -1434h-190l-129 358h-621l-129 -358h-190zM397 1880h236l145 -303h-166zM410 522h505l-249 695h-7z" />
    <glyph glyph-name="Aacute" unicode="&#xc1;" horiz-adv-x="1325" 
d="M33 0l528 1434h203l528 -1434h-190l-129 358h-621l-129 -358h-190zM410 522h505l-249 695h-7zM541 1577l145 303h236l-215 -303h-166z" />
    <glyph glyph-name="Acircumflex" unicode="&#xc2;" horiz-adv-x="1325" 
d="M33 0l528 1434h203l528 -1434h-190l-129 358h-621l-129 -358h-190zM326 1577l254 303h168l253 -303h-182l-155 188l-156 -188h-182zM410 522h505l-249 695h-7z" />
    <glyph glyph-name="Atilde" unicode="&#xc3;" horiz-adv-x="1325" 
d="M33 0l528 1434h203l528 -1434h-190l-129 358h-621l-129 -358h-190zM315 1589q0 146 55.5 221.5t147.5 75.5q51 0 95 -25.5t94 -82.5q64 -72 102 -72q32 0 52 40t20 124h133q0 -146 -55.5 -221.5t-147.5 -75.5q-50 0 -93 25t-95 83q-67 72 -103 72q-32 0 -51.5 -40
t-19.5 -124h-134zM410 522h505l-249 695h-7z" />
    <glyph glyph-name="Adieresis" unicode="&#xc4;" horiz-adv-x="1325" 
d="M33 0l528 1434h203l528 -1434h-190l-129 358h-621l-129 -358h-190zM315 1729q0 55 38.5 93t92.5 38t93 -38t39 -93t-39 -93.5t-93 -38.5t-92.5 38.5t-38.5 93.5zM410 522h505l-249 695h-7zM750 1729q0 55 38.5 93t92.5 38t92.5 -38t38.5 -93t-38.5 -93.5t-92.5 -38.5
t-92.5 38.5t-38.5 93.5z" />
    <glyph glyph-name="Aring" unicode="&#xc5;" horiz-adv-x="1325" 
d="M33 0l528 1434h203l528 -1434h-190l-129 358h-621l-129 -358h-190zM410 522h505l-249 695h-7zM434 1778q0 93 66 156t164 63t163.5 -63t65.5 -156t-65.5 -156t-163.5 -63t-164 63t-66 156zM567 1778q0 -41 27 -69t70 -28t69.5 28t26.5 69t-26.5 68.5t-69.5 27.5
t-70 -27.5t-27 -68.5z" />
    <glyph glyph-name="AE" unicode="&#xc6;" horiz-adv-x="2064" 
d="M25 0l929 1434h975v-172h-684v-455h627v-172h-627v-463h684v-172h-872v375h-576l-237 -375h-219zM586 539h471v723h-13z" />
    <glyph glyph-name="Ccedilla" unicode="&#xc7;" horiz-adv-x="1558" 
d="M752 -463q-42 0 -88 6v129q29 -4 75 -4q123 0 123 68q0 29 -34.5 43t-137.5 14l15 189q-262 37 -429 238.5t-167 496.5q0 161 54 300t148 235.5t223.5 151t276.5 54.5q257 0 437 -151t208 -394h-192q-33 180 -152.5 276.5t-294.5 96.5q-224 0 -370 -155t-146 -414
t146 -414.5t370 -155.5q179 0 302 99t155 274h186q-26 -237 -200 -387t-426 -158l-3 -84q85 -9 132 -52t47 -115q0 -86 -66.5 -136.5t-191.5 -50.5z" />
    <glyph glyph-name="Egrave" unicode="&#xc8;" horiz-adv-x="1204" 
d="M197 0v1434h872v-172h-684v-455h627v-172h-627v-463h684v-172h-872zM367 1880h235l146 -303h-166z" />
    <glyph glyph-name="Eacute" unicode="&#xc9;" horiz-adv-x="1204" 
d="M197 0v1434h872v-172h-684v-455h627v-172h-627v-463h684v-172h-872zM510 1577l145 303h236l-215 -303h-166z" />
    <glyph glyph-name="Ecircumflex" unicode="&#xca;" horiz-adv-x="1204" 
d="M197 0v1434h872v-172h-684v-455h627v-172h-627v-463h684v-172h-872zM295 1577l254 303h168l254 -303h-183l-155 188l-156 -188h-182z" />
    <glyph glyph-name="Edieresis" unicode="&#xcb;" horiz-adv-x="1204" 
d="M197 0v1434h872v-172h-684v-455h627v-172h-627v-463h684v-172h-872zM285 1729q0 55 38.5 93t92.5 38t92.5 -38t38.5 -93t-38.5 -93.5t-92.5 -38.5t-92.5 38.5t-38.5 93.5zM719 1729q0 55 38.5 93t92.5 38t92.5 -38t38.5 -93t-38.5 -93.5t-92.5 -38.5t-92.5 38.5
t-38.5 93.5z" />
    <glyph glyph-name="Igrave" unicode="&#xcc;" horiz-adv-x="581" 
d="M197 0v1434h188v-1434h-188zM25 1880h235l146 -303h-166z" />
    <glyph glyph-name="Iacute" unicode="&#xcd;" horiz-adv-x="581" 
d="M197 0v1434h188v-1434h-188zM168 1577l145 303h236l-215 -303h-166z" />
    <glyph glyph-name="Icircumflex" unicode="&#xce;" horiz-adv-x="581" 
d="M197 0v1434h188v-1434h-188zM-47 1577l254 303h168l254 -303h-183l-155 188l-156 -188h-182z" />
    <glyph glyph-name="Idieresis" unicode="&#xcf;" horiz-adv-x="581" 
d="M197 0v1434h188v-1434h-188zM-57 1729q0 55 38.5 93t92.5 38t92.5 -38t38.5 -93t-38.5 -93.5t-92.5 -38.5t-92.5 38.5t-38.5 93.5zM377 1729q0 55 38.5 93t92.5 38t92.5 -38t38.5 -93t-38.5 -93.5t-92.5 -38.5t-92.5 38.5t-38.5 93.5z" />
    <glyph glyph-name="Eth" unicode="&#xd0;" horiz-adv-x="1437" 
d="M213 0v641h-213v152h213v641h352q226 0 398.5 -87t268 -250t95.5 -380t-95.5 -380t-268 -250t-398.5 -87h-352zM401 172h172q257 0 409.5 143t152.5 402t-152.5 402t-409.5 143h-172v-469h324v-152h-324v-469z" />
    <glyph glyph-name="Ntilde" unicode="&#xd1;" horiz-adv-x="1529" 
d="M197 0v1434h198l744 -1129h6v1129h188v-1434h-198l-744 1128h-6v-1128h-188zM418 1589q0 146 55.5 221.5t147.5 75.5q51 0 94.5 -25.5t93.5 -82.5q64 -72 102 -72q32 0 52 40t20 124h133q0 -146 -55.5 -221.5t-147.5 -75.5q-50 0 -93 25t-95 83q-67 72 -102 72
q-32 0 -52 -40t-20 -124h-133z" />
    <glyph glyph-name="Ograve" unicode="&#xd2;" horiz-adv-x="1630" 
d="M815 -25q-201 0 -362 94.5t-252.5 264t-91.5 383.5t91.5 383.5t252.5 263.5t362 94q150 0 281 -55t225 -152t147.5 -235.5t53.5 -298.5q0 -214 -91.5 -383.5t-253 -264t-362.5 -94.5zM301 717q0 -258 144 -414t370 -156t370 156t144 414t-144 413.5t-370 155.5
t-370 -155.5t-144 -413.5zM549 1880h235l146 -303h-166z" />
    <glyph glyph-name="Oacute" unicode="&#xd3;" horiz-adv-x="1630" 
d="M815 -25q-201 0 -362 94.5t-252.5 264t-91.5 383.5t91.5 383.5t252.5 263.5t362 94q150 0 281 -55t225 -152t147.5 -235.5t53.5 -298.5q0 -214 -91.5 -383.5t-253 -264t-362.5 -94.5zM301 717q0 -258 144 -414t370 -156t370 156t144 414t-144 413.5t-370 155.5
t-370 -155.5t-144 -413.5zM692 1577l146 303h235l-215 -303h-166z" />
    <glyph glyph-name="Ocircumflex" unicode="&#xd4;" horiz-adv-x="1630" 
d="M815 -25q-201 0 -362 94.5t-252.5 264t-91.5 383.5t91.5 383.5t252.5 263.5t362 94q150 0 281 -55t225 -152t147.5 -235.5t53.5 -298.5q0 -214 -91.5 -383.5t-253 -264t-362.5 -94.5zM301 717q0 -258 144 -414t370 -156t370 156t144 414t-144 413.5t-370 155.5
t-370 -155.5t-144 -413.5zM477 1577l254 303h168l254 -303h-182l-156 188l-156 -188h-182z" />
    <glyph glyph-name="Otilde" unicode="&#xd5;" horiz-adv-x="1630" 
d="M815 -25q-201 0 -362 94.5t-252.5 264t-91.5 383.5t91.5 383.5t252.5 263.5t362 94q150 0 281 -55t225 -152t147.5 -235.5t53.5 -298.5q0 -214 -91.5 -383.5t-253 -264t-362.5 -94.5zM301 717q0 -258 144 -414t370 -156t370 156t144 414t-144 413.5t-370 155.5
t-370 -155.5t-144 -413.5zM467 1589q0 146 55.5 221.5t147.5 75.5q51 0 94.5 -25.5t93.5 -82.5q64 -72 103 -72q32 0 51.5 40t19.5 124h133q0 -146 -55.5 -221.5t-146.5 -75.5q-50 0 -93.5 25t-95.5 83q-67 72 -102 72q-32 0 -52 -40t-20 -124h-133z" />
    <glyph glyph-name="Odieresis" unicode="&#xd6;" horiz-adv-x="1630" 
d="M815 -25q-201 0 -362 94.5t-252.5 264t-91.5 383.5t91.5 383.5t252.5 263.5t362 94q150 0 281 -55t225 -152t147.5 -235.5t53.5 -298.5q0 -214 -91.5 -383.5t-253 -264t-362.5 -94.5zM301 717q0 -258 144 -414t370 -156t370 156t144 414t-144 413.5t-370 155.5
t-370 -155.5t-144 -413.5zM467 1729q0 55 38.5 93t92.5 38t92.5 -38t38.5 -93t-38.5 -93.5t-92.5 -38.5t-92.5 38.5t-38.5 93.5zM901 1729q0 55 38.5 93t92.5 38t92.5 -38t38.5 -93t-38.5 -93.5t-92.5 -38.5t-92.5 38.5t-38.5 93.5z" />
    <glyph glyph-name="multiply" unicode="&#xd7;" horiz-adv-x="1331" 
d="M354 229l-108 109l311 311l-311 312l108 108l312 -311l311 311l108 -108l-311 -312l311 -311l-108 -109l-311 312z" />
    <glyph glyph-name="Oslash" unicode="&#xd8;" horiz-adv-x="1658" 
d="M829 -25q-266 0 -462 166l-156 -155l-113 112l162 162q-137 196 -137 457q0 214 91.5 383.5t252.5 263.5t362 94q267 0 463 -166l156 156l113 -113l-162 -161q137 -196 137 -457q0 -214 -91.5 -383.5t-253 -264t-362.5 -94.5zM315 717q0 -186 80 -324l770 770
q-135 123 -336 123q-226 0 -370 -155.5t-144 -413.5zM494 270q135 -123 335 -123q226 0 370 156t144 414q0 187 -79 323z" />
    <glyph glyph-name="Ugrave" unicode="&#xd9;" horiz-adv-x="1445" 
d="M723 -25q-251 0 -399 158t-148 428v873h189v-881q0 -194 96 -300t262 -106t262 106t96 300v881h189v-873q0 -270 -148 -428t-399 -158zM457 1880h235l146 -303h-166z" />
    <glyph glyph-name="Uacute" unicode="&#xda;" horiz-adv-x="1445" 
d="M723 -25q-251 0 -399 158t-148 428v873h189v-881q0 -194 96 -300t262 -106t262 106t96 300v881h189v-873q0 -270 -148 -428t-399 -158zM600 1577l145 303h236l-215 -303h-166z" />
    <glyph glyph-name="Ucircumflex" unicode="&#xdb;" horiz-adv-x="1445" 
d="M723 -25q-251 0 -399 158t-148 428v873h189v-881q0 -194 96 -300t262 -106t262 106t96 300v881h189v-873q0 -270 -148 -428t-399 -158zM385 1577l254 303h168l254 -303h-182l-156 188l-156 -188h-182z" />
    <glyph glyph-name="Udieresis" unicode="&#xdc;" horiz-adv-x="1445" 
d="M723 -25q-251 0 -399 158t-148 428v873h189v-881q0 -194 96 -300t262 -106t262 106t96 300v881h189v-873q0 -270 -148 -428t-399 -158zM375 1729q0 55 38.5 93t92.5 38t92.5 -38t38.5 -93t-38.5 -93.5t-92.5 -38.5t-92.5 38.5t-38.5 93.5zM809 1729q0 55 38.5 93t92.5 38
t92.5 -38t38.5 -93t-38.5 -93.5t-92.5 -38.5t-92.5 38.5t-38.5 93.5z" />
    <glyph glyph-name="Yacute" unicode="&#xdd;" horiz-adv-x="1277" 
d="M545 0v563l-529 871h213l408 -695h4l408 695h213l-529 -871v-563h-188zM516 1577l146 303h235l-215 -303h-166z" />
    <glyph glyph-name="Thorn" unicode="&#xde;" horiz-adv-x="1300" 
d="M197 0v1434h188v-240h264q259 0 405 -128t146 -349q0 -224 -145.5 -352.5t-405.5 -128.5h-264v-236h-188zM385 408h248q191 0 283 77.5t92 231.5q0 305 -375 305h-248v-614z" />
    <glyph glyph-name="germandbls" unicode="&#xdf;" horiz-adv-x="1181" 
d="M647 -25q-78 0 -149 19v151q55 -14 112 -14q146 0 219.5 66t73.5 186q0 121 -73 186.5t-212 65.5h-110v164h35q142 0 213 70t71 198q0 117 -59.5 176.5t-175.5 59.5q-127 0 -189.5 -74t-62.5 -228v-1001h-180v1010q0 214 113.5 331t314.5 117q192 0 306 -104.5
t114 -278.5q0 -127 -62.5 -216.5t-177.5 -123.5v-4q152 -23 235.5 -117t83.5 -241q0 -177 -118.5 -287.5t-321.5 -110.5z" />
    <glyph glyph-name="agrave" unicode="&#xe0;" horiz-adv-x="1110" 
d="M438 -25q-146 0 -234.5 77t-88.5 200q0 119 86.5 195.5t251.5 99.5l327 45v20q0 222 -225 222q-104 0 -160.5 -47t-62.5 -134h-185q11 156 120.5 245t293.5 89q190 0 293.5 -98t103.5 -277v-612h-161l-13 131h-6q-47 -69 -139.5 -112.5t-200.5 -43.5zM291 1401h223
l137 -287h-157zM299 258q0 -62 46.5 -97.5t131.5 -35.5q133 0 218 82t85 207v41l-268 -37q-213 -28 -213 -160z" />
    <glyph glyph-name="aacute" unicode="&#xe1;" horiz-adv-x="1110" 
d="M438 -25q-146 0 -234.5 77t-88.5 200q0 119 86.5 195.5t251.5 99.5l327 45v20q0 222 -225 222q-104 0 -160.5 -47t-62.5 -134h-185q11 156 120.5 245t293.5 89q190 0 293.5 -98t103.5 -277v-612h-161l-13 131h-6q-47 -69 -139.5 -112.5t-200.5 -43.5zM299 258
q0 -62 46.5 -97.5t131.5 -35.5q133 0 218 82t85 207v41l-268 -37q-213 -28 -213 -160zM434 1114l137 287h224l-203 -287h-158z" />
    <glyph glyph-name="acircumflex" unicode="&#xe2;" horiz-adv-x="1110" 
d="M438 -25q-146 0 -234.5 77t-88.5 200q0 119 86.5 195.5t251.5 99.5l327 45v20q0 222 -225 222q-104 0 -160.5 -47t-62.5 -134h-185q11 156 120.5 245t293.5 89q190 0 293.5 -98t103.5 -277v-612h-161l-13 131h-6q-47 -69 -139.5 -112.5t-200.5 -43.5zM227 1114l240 287
h160l239 -287h-172l-147 178l-148 -178h-172zM299 258q0 -62 46.5 -97.5t131.5 -35.5q133 0 218 82t85 207v41l-268 -37q-213 -28 -213 -160z" />
    <glyph glyph-name="atilde" unicode="&#xe3;" horiz-adv-x="1110" 
d="M438 -25q-146 0 -234.5 77t-88.5 200q0 119 86.5 195.5t251.5 99.5l327 45v20q0 222 -225 222q-104 0 -160.5 -47t-62.5 -134h-185q11 156 120.5 245t293.5 89q190 0 293.5 -98t103.5 -277v-612h-161l-13 131h-6q-47 -69 -139.5 -112.5t-200.5 -43.5zM219 1126
q0 137 52.5 209t138.5 72q92 0 178 -102q58 -68 96 -68q30 0 49 37t19 117h125q0 -137 -52.5 -209t-138.5 -72q-47 0 -89 24t-89 78q-60 68 -96 68q-30 0 -49 -37t-19 -117h-125zM299 258q0 -62 46.5 -97.5t131.5 -35.5q133 0 218 82t85 207v41l-268 -37q-213 -28 -213 -160
z" />
    <glyph glyph-name="adieresis" unicode="&#xe4;" horiz-adv-x="1110" 
d="M438 -25q-146 0 -234.5 77t-88.5 200q0 119 86.5 195.5t251.5 99.5l327 45v20q0 222 -225 222q-104 0 -160.5 -47t-62.5 -134h-185q11 156 120.5 245t293.5 89q190 0 293.5 -98t103.5 -277v-612h-161l-13 131h-6q-47 -69 -139.5 -112.5t-200.5 -43.5zM219 1257
q0 52 36 87.5t87 35.5t87 -35.5t36 -87.5t-36 -87t-87 -35t-87 35t-36 87zM299 258q0 -62 46.5 -97.5t131.5 -35.5q133 0 218 82t85 207v41l-268 -37q-213 -28 -213 -160zM629 1257q0 52 36 87.5t87 35.5t86.5 -35.5t35.5 -87.5t-35.5 -87t-86.5 -35t-87 35t-36 87z" />
    <glyph glyph-name="aring" unicode="&#xe5;" horiz-adv-x="1110" 
d="M438 -25q-146 0 -234.5 77t-88.5 200q0 119 86.5 195.5t251.5 99.5l327 45v20q0 222 -225 222q-104 0 -160.5 -47t-62.5 -134h-185q11 156 120.5 245t293.5 89q190 0 293.5 -98t103.5 -277v-612h-161l-13 131h-6q-47 -69 -139.5 -112.5t-200.5 -43.5zM299 258
q0 -62 46.5 -97.5t131.5 -35.5q133 0 218 82t85 207v41l-268 -37q-213 -28 -213 -160zM330 1307q0 88 62.5 147t154.5 59t154.5 -59t62.5 -147t-62.5 -147.5t-154.5 -59.5t-154.5 59.5t-62.5 147.5zM457 1307q0 -39 24.5 -64.5t65.5 -25.5t65.5 25.5t24.5 64.5t-24.5 64.5
t-65.5 25.5t-65.5 -25.5t-24.5 -64.5z" />
    <glyph glyph-name="ae" unicode="&#xe6;" horiz-adv-x="1830" 
d="M467 -25q-166 0 -259 77.5t-93 207.5q0 143 115 226t335 83h236v31q0 122 -57 178t-177 56q-222 0 -235 -181h-185q11 156 122.5 245t303.5 89q254 0 342 -166h7q66 80 161 123t205 43q196 0 322.5 -130t126.5 -341q0 -38 -6 -78h-746q10 -147 93.5 -227t205.5 -80
q90 0 158.5 39.5t105.5 112.5h172q-38 -141 -159 -224.5t-283 -83.5q-126 0 -233 56t-164 153h-7q-51 -97 -159 -153t-248 -56zM299 268q0 -67 47.5 -103t138.5 -36q141 0 228.5 81.5t87.5 207.5v8h-238q-264 0 -264 -158zM993 580h561q-17 127 -87.5 190.5t-178.5 63.5
q-113 0 -192 -66t-103 -188z" />
    <glyph glyph-name="ccedilla" unicode="&#xe7;" horiz-adv-x="1122" 
d="M539 -463q-42 0 -88 6v129q29 -4 75 -4q123 0 123 68q0 29 -34.5 43t-137.5 14l15 191q-178 32 -285 167t-107 330q0 223 140 364.5t358 141.5q184 0 304 -100t140 -277h-184q-13 101 -84.5 161t-177.5 60q-136 0 -223.5 -95t-87.5 -255t87 -255t222 -95q107 0 185 60.5
t91 160.5h179q-18 -168 -135.5 -268.5t-292.5 -108.5l-3 -84q85 -9 132 -52t47 -115q0 -86 -66.5 -136.5t-191.5 -50.5z" />
    <glyph glyph-name="egrave" unicode="&#xe8;" horiz-adv-x="1144" 
d="M592 -25q-218 0 -356 139t-138 361q0 225 141 368.5t355 143.5q201 0 329 -129.5t128 -341.5q0 -31 -7 -78h-761q10 -148 96 -227.5t219 -79.5q91 0 161 39.5t107 112.5h170q-38 -142 -159 -225t-285 -83zM291 580h577q-17 128 -89 193t-185 65q-117 0 -198 -67.5
t-105 -190.5zM336 1401h223l137 -287h-157z" />
    <glyph glyph-name="eacute" unicode="&#xe9;" horiz-adv-x="1144" 
d="M592 -25q-218 0 -356 139t-138 361q0 225 141 368.5t355 143.5q201 0 329 -129.5t128 -341.5q0 -31 -7 -78h-761q10 -148 96 -227.5t219 -79.5q91 0 161 39.5t107 112.5h170q-38 -142 -159 -225t-285 -83zM291 580h577q-17 128 -89 193t-185 65q-117 0 -198 -67.5
t-105 -190.5zM479 1114l137 287h224l-203 -287h-158z" />
    <glyph glyph-name="ecircumflex" unicode="&#xea;" horiz-adv-x="1144" 
d="M592 -25q-218 0 -356 139t-138 361q0 225 141 368.5t355 143.5q201 0 329 -129.5t128 -341.5q0 -31 -7 -78h-761q10 -148 96 -227.5t219 -79.5q91 0 161 39.5t107 112.5h170q-38 -142 -159 -225t-285 -83zM272 1114l240 287h160l239 -287h-172l-147 178l-148 -178h-172z
M291 580h577q-17 128 -89 193t-185 65q-117 0 -198 -67.5t-105 -190.5z" />
    <glyph glyph-name="edieresis" unicode="&#xeb;" horiz-adv-x="1144" 
d="M592 -25q-218 0 -356 139t-138 361q0 225 141 368.5t355 143.5q201 0 329 -129.5t128 -341.5q0 -31 -7 -78h-761q10 -148 96 -227.5t219 -79.5q91 0 161 39.5t107 112.5h170q-38 -142 -159 -225t-285 -83zM264 1257q0 52 36 87.5t87 35.5t87 -35.5t36 -87.5t-36 -87
t-87 -35t-87 35t-36 87zM291 580h577q-17 128 -89 193t-185 65q-117 0 -198 -67.5t-105 -190.5zM674 1257q0 52 36 87.5t87 35.5t87 -35.5t36 -87.5t-36 -87t-87 -35t-87 35t-36 87z" />
    <glyph glyph-name="igrave" unicode="&#xec;" horiz-adv-x="499" 
d="M160 0v963h180v-963h-180zM35 1401h223l96 -287h-157z" />
    <glyph glyph-name="iacute" unicode="&#xed;" horiz-adv-x="499" 
d="M160 0v963h180v-963h-180zM137 1114l96 287h224l-162 -287h-158z" />
    <glyph glyph-name="icircumflex" unicode="&#xee;" horiz-adv-x="499" 
d="M160 0v963h180v-963h-180zM-41 1114l219 287h144l219 -287h-164l-127 172l-127 -172h-164z" />
    <glyph glyph-name="idieresis" unicode="&#xef;" horiz-adv-x="499" 
d="M160 0v963h180v-963h-180zM-51 1257q0 52 36 87.5t87 35.5t87 -35.5t36 -87.5t-36 -87t-87 -35t-87 35t-36 87zM305 1257q0 52 36 87.5t87 35.5t87 -35.5t36 -87.5t-36 -87t-87 -35t-87 35t-36 87z" />
    <glyph glyph-name="eth" unicode="&#xf0;" horiz-adv-x="1185" 
d="M594 -25q-110 0 -204 42t-157.5 112t-99 161t-35.5 189q0 97 35.5 187.5t98 159t154.5 110t198 41.5q196 0 299 -137q-63 215 -224 352l-198 -145l-64 86l168 122q-95 59 -229 101l51 145q183 -52 313 -147l189 139l65 -86l-168 -123q145 -134 223 -320.5t78 -402.5
q0 -253 -122 -409q-64 -84 -159.5 -130.5t-211.5 -46.5zM279 479q0 -149 87 -248.5t226 -99.5t228 100t89 248q0 150 -88.5 246t-228.5 96q-139 0 -226 -97.5t-87 -244.5z" />
    <glyph glyph-name="ntilde" unicode="&#xf1;" horiz-adv-x="1153" 
d="M160 0v963h162l12 -129h6q46 72 128.5 112.5t184.5 40.5q160 0 254 -100t94 -279v-608h-180v539q0 155 -54 221.5t-163 66.5q-123 0 -193.5 -77t-70.5 -226v-524h-180zM256 1126q0 137 52 209t138 72q93 0 179 -102q58 -68 96 -68q67 0 67 154h125q0 -137 -52 -209
t-138 -72q-47 0 -89 24t-89 78q-60 68 -96 68q-30 0 -49 -37t-19 -117h-125z" />
    <glyph glyph-name="ograve" unicode="&#xf2;" horiz-adv-x="1187" 
d="M594 -25q-215 0 -355.5 142t-140.5 364t140.5 364t355.5 142t355.5 -142t140.5 -364t-140.5 -364t-355.5 -142zM283 481q0 -157 87.5 -253.5t223.5 -96.5t223.5 96.5t87.5 253.5t-87.5 253.5t-223.5 96.5t-223.5 -96.5t-87.5 -253.5zM338 1401h223l137 -287h-157z" />
    <glyph glyph-name="oacute" unicode="&#xf3;" horiz-adv-x="1187" 
d="M594 -25q-215 0 -355.5 142t-140.5 364t140.5 364t355.5 142t355.5 -142t140.5 -364t-140.5 -364t-355.5 -142zM283 481q0 -157 87.5 -253.5t223.5 -96.5t223.5 96.5t87.5 253.5t-87.5 253.5t-223.5 96.5t-223.5 -96.5t-87.5 -253.5zM481 1114l137 287h224l-203 -287
h-158z" />
    <glyph glyph-name="ocircumflex" unicode="&#xf4;" horiz-adv-x="1187" 
d="M594 -25q-215 0 -355.5 142t-140.5 364t140.5 364t355.5 142t355.5 -142t140.5 -364t-140.5 -364t-355.5 -142zM274 1114l240 287h160l239 -287h-172l-147 178l-148 -178h-172zM283 481q0 -157 87.5 -253.5t223.5 -96.5t223.5 96.5t87.5 253.5t-87.5 253.5t-223.5 96.5
t-223.5 -96.5t-87.5 -253.5z" />
    <glyph glyph-name="otilde" unicode="&#xf5;" horiz-adv-x="1187" 
d="M594 -25q-215 0 -355.5 142t-140.5 364t140.5 364t355.5 142t355.5 -142t140.5 -364t-140.5 -364t-355.5 -142zM266 1126q0 137 52.5 209t138.5 72q92 0 178 -102q58 -68 96 -68q30 0 49 37t19 117h125q0 -137 -52.5 -209t-138.5 -72q-47 0 -89 24t-89 78q-60 68 -96 68
q-30 0 -49 -37t-19 -117h-125zM283 481q0 -157 87.5 -253.5t223.5 -96.5t223.5 96.5t87.5 253.5t-87.5 253.5t-223.5 96.5t-223.5 -96.5t-87.5 -253.5z" />
    <glyph glyph-name="odieresis" unicode="&#xf6;" horiz-adv-x="1187" 
d="M594 -25q-215 0 -355.5 142t-140.5 364t140.5 364t355.5 142t355.5 -142t140.5 -364t-140.5 -364t-355.5 -142zM266 1257q0 52 36 87.5t87 35.5t87 -35.5t36 -87.5t-36 -87t-87 -35t-87 35t-36 87zM283 481q0 -157 87.5 -253.5t223.5 -96.5t223.5 96.5t87.5 253.5
t-87.5 253.5t-223.5 96.5t-223.5 -96.5t-87.5 -253.5zM676 1257q0 52 36 87.5t87 35.5t87 -35.5t36 -87.5t-36 -87t-87 -35t-87 35t-36 87z" />
    <glyph glyph-name="divide" unicode="&#xf7;" horiz-adv-x="1331" 
d="M213 569v160h903v-160h-903zM541 289q0 52 35 86.5t90 34.5q53 0 87.5 -34.5t34.5 -86.5q0 -53 -34 -88t-88 -35q-55 0 -90 35t-35 88zM541 1010q0 53 35 88t90 35q54 0 88 -35t34 -88q0 -52 -34.5 -86.5t-87.5 -34.5q-55 0 -90 34.5t-35 86.5z" />
    <glyph glyph-name="oslash" unicode="&#xf8;" horiz-adv-x="1202" 
d="M602 -25q-174 0 -309 101l-135 -135l-97 96l138 137q-93 137 -93 307q0 222 140.5 364t355.5 142q176 0 309 -100l133 133l97 -96l-135 -136q92 -136 92 -307q0 -222 -140.5 -364t-355.5 -142zM285 481q0 -108 41 -188l475 475q-82 70 -199 70q-139 0 -228 -98.5
t-89 -258.5zM403 195q82 -70 199 -70q139 0 228.5 98t89.5 258q0 109 -41 189z" />
    <glyph glyph-name="ugrave" unicode="&#xf9;" horiz-adv-x="1140" 
d="M494 -25q-153 0 -247.5 100t-94.5 279v609h180v-539q0 -154 53.5 -221.5t157.5 -67.5q119 0 188.5 77.5t69.5 225.5v525h180v-963h-162l-12 129h-6q-46 -72 -128 -113t-179 -41zM315 1401h224l137 -287h-158z" />
    <glyph glyph-name="uacute" unicode="&#xfa;" horiz-adv-x="1140" 
d="M494 -25q-153 0 -247.5 100t-94.5 279v609h180v-539q0 -154 53.5 -221.5t157.5 -67.5q119 0 188.5 77.5t69.5 225.5v525h180v-963h-162l-12 129h-6q-46 -72 -128 -113t-179 -41zM459 1114l137 287h223l-203 -287h-157z" />
    <glyph glyph-name="ucircumflex" unicode="&#xfb;" horiz-adv-x="1140" 
d="M494 -25q-153 0 -247.5 100t-94.5 279v609h180v-539q0 -154 53.5 -221.5t157.5 -67.5q119 0 188.5 77.5t69.5 225.5v525h180v-963h-162l-12 129h-6q-46 -72 -128 -113t-179 -41zM252 1114l240 287h159l240 -287h-172l-148 178l-147 -178h-172z" />
    <glyph glyph-name="udieresis" unicode="&#xfc;" horiz-adv-x="1140" 
d="M494 -25q-153 0 -247.5 100t-94.5 279v609h180v-539q0 -154 53.5 -221.5t157.5 -67.5q119 0 188.5 77.5t69.5 225.5v525h180v-963h-162l-12 129h-6q-46 -72 -128 -113t-179 -41zM244 1257q0 52 36 87.5t87 35.5t86.5 -35.5t35.5 -87.5t-35.5 -87t-86.5 -35t-87 35t-36 87
zM653 1257q0 52 36 87.5t87 35.5t87 -35.5t36 -87.5t-36 -87t-87 -35t-87 35t-36 87z" />
    <glyph glyph-name="yacute" unicode="&#xfd;" horiz-adv-x="1021" 
d="M231 -459l189 459l-395 963h190l293 -748h6l297 748h186l-583 -1422h-183zM399 1114l138 287h223l-203 -287h-158z" />
    <glyph glyph-name="thorn" unicode="&#xfe;" horiz-adv-x="1226" 
d="M160 -459v1893h180v-598h6q41 68 128.5 109.5t191.5 41.5q198 0 329 -142.5t131 -363.5t-131.5 -363.5t-328.5 -142.5q-101 0 -189.5 41t-130.5 111h-6v-586h-180zM332 481q0 -161 84.5 -255.5t220.5 -94.5t220.5 94.5t84.5 255.5t-84.5 255.5t-220.5 94.5t-220.5 -94.5
t-84.5 -255.5z" />
    <glyph glyph-name="ydieresis" unicode="&#xff;" horiz-adv-x="1021" 
d="M231 -459l189 459l-395 963h190l293 -748h6l297 748h186l-583 -1422h-183zM184 1257q0 52 36 87.5t87 35.5t87 -35.5t36 -87.5t-36 -87t-87 -35t-87 35t-36 87zM594 1257q0 52 36 87.5t87 35.5t87 -35.5t36 -87.5t-36 -87t-87 -35t-87 35t-36 87z" />
    <glyph glyph-name="Amacron" unicode="&#x100;" horiz-adv-x="1325" 
d="M33 0l528 1434h203l528 -1434h-190l-129 358h-621l-129 -358h-190zM379 1645v147h569v-147h-569zM410 522h505l-249 695h-7z" />
    <glyph glyph-name="amacron" unicode="&#x101;" horiz-adv-x="1110" 
d="M438 -25q-146 0 -234.5 77t-88.5 200q0 119 86.5 195.5t251.5 99.5l327 45v20q0 222 -225 222q-104 0 -160.5 -47t-62.5 -134h-185q11 156 120.5 245t293.5 89q190 0 293.5 -98t103.5 -277v-612h-161l-13 131h-6q-47 -69 -139.5 -112.5t-200.5 -43.5zM279 1178v139h536
v-139h-536zM299 258q0 -62 46.5 -97.5t131.5 -35.5q133 0 218 82t85 207v41l-268 -37q-213 -28 -213 -160z" />
    <glyph glyph-name="Abreve" unicode="&#x102;" horiz-adv-x="1325" 
d="M33 0l528 1434h203l528 -1434h-190l-129 358h-621l-129 -358h-190zM371 1862v10h155q0 -84 36.5 -126t101.5 -42t101 42t36 126h155v-10q0 -133 -77.5 -209t-214.5 -76t-215 76t-78 209zM410 522h505l-249 695h-7z" />
    <glyph glyph-name="abreve" unicode="&#x103;" horiz-adv-x="1110" 
d="M438 -25q-146 0 -234.5 77t-88.5 200q0 119 86.5 195.5t251.5 99.5l327 45v20q0 222 -225 222q-104 0 -160.5 -47t-62.5 -134h-185q11 156 120.5 245t293.5 89q190 0 293.5 -98t103.5 -277v-612h-161l-13 131h-6q-47 -69 -139.5 -112.5t-200.5 -43.5zM270 1382v11h148
q0 -158 129 -158t129 158h147v-11q0 -125 -73 -196.5t-203 -71.5t-203.5 71.5t-73.5 196.5zM299 258q0 -62 46.5 -97.5t131.5 -35.5q133 0 218 82t85 207v41l-268 -37q-213 -28 -213 -160z" />
    <glyph glyph-name="Aogonek" unicode="&#x104;" horiz-adv-x="1325" 
d="M33 0l528 1434h203l528 -1434q-170 -129 -170 -227q0 -86 103 -86q36 0 67 10v-152q-48 -10 -96 -10q-112 0 -178 55.5t-66 149.5q0 76 47.5 145.5t135.5 114.5h-33l-129 358h-621l-129 -358h-190zM410 522h505l-249 695h-7z" />
    <glyph glyph-name="aogonek" unicode="&#x105;" horiz-adv-x="1110" 
d="M438 -25q-146 0 -234.5 77t-88.5 200q0 119 86.5 195.5t251.5 99.5l327 45v20q0 222 -225 222q-104 0 -160.5 -47t-62.5 -134h-185q11 156 120.5 245t293.5 89q190 0 293.5 -98t103.5 -277v-612q-87 -66 -123 -117t-36 -98q0 -80 96 -80q32 0 63 8v-141q-45 -10 -90 -10
q-105 0 -167 52t-62 140q0 74 44.5 139t127.5 107h-14l-13 131h-6q-47 -69 -139.5 -112.5t-200.5 -43.5zM299 258q0 -62 46.5 -97.5t131.5 -35.5q133 0 218 82t85 207v41l-268 -37q-213 -28 -213 -160z" />
    <glyph glyph-name="Cacute" unicode="&#x106;" horiz-adv-x="1558" 
d="M809 -25q-197 0 -356.5 93.5t-251.5 263.5t-92 385q0 161 54 300t148 235.5t223.5 151t276.5 54.5q257 0 437 -151t208 -394h-192q-33 180 -152.5 276.5t-294.5 96.5q-224 0 -370 -155t-146 -414t146 -414.5t370 -155.5q179 0 302 99t155 274h186q-26 -243 -208 -394
t-443 -151zM686 1577l145 303h236l-215 -303h-166z" />
    <glyph glyph-name="cacute" unicode="&#x107;" horiz-adv-x="1122" 
d="M592 -25q-218 0 -355 141.5t-137 364.5t140 364.5t358 141.5q184 0 304 -100t140 -277h-184q-13 101 -84.5 161t-177.5 60q-136 0 -223.5 -95t-87.5 -255t87 -255t222 -95q107 0 185 60.5t91 160.5h179q-20 -175 -145.5 -276t-311.5 -101zM475 1114l137 287h224
l-203 -287h-158z" />
    <glyph glyph-name="Ccircumflex" unicode="&#x108;" horiz-adv-x="1558" 
d="M809 -25q-197 0 -356.5 93.5t-251.5 263.5t-92 385q0 161 54 300t148 235.5t223.5 151t276.5 54.5q257 0 437 -151t208 -394h-192q-33 180 -152.5 276.5t-294.5 96.5q-224 0 -370 -155t-146 -414t146 -414.5t370 -155.5q179 0 302 99t155 274h186q-26 -243 -208 -394
t-443 -151zM471 1577l254 303h168l254 -303h-182l-156 188l-156 -188h-182z" />
    <glyph glyph-name="ccircumflex" unicode="&#x109;" horiz-adv-x="1122" 
d="M592 -25q-218 0 -355 141.5t-137 364.5t140 364.5t358 141.5q184 0 304 -100t140 -277h-184q-13 101 -84.5 161t-177.5 60q-136 0 -223.5 -95t-87.5 -255t87 -255t222 -95q107 0 185 60.5t91 160.5h179q-20 -175 -145.5 -276t-311.5 -101zM268 1114l240 287h160l239 -287
h-172l-147 178l-148 -178h-172z" />
    <glyph glyph-name="Cdotaccent" unicode="&#x10a;" horiz-adv-x="1558" 
d="M809 -25q-197 0 -356.5 93.5t-251.5 263.5t-92 385q0 161 54 300t148 235.5t223.5 151t276.5 54.5q257 0 437 -151t208 -394h-192q-33 180 -152.5 276.5t-294.5 96.5q-224 0 -370 -155t-146 -414t146 -414.5t370 -155.5q179 0 302 99t155 274h186q-26 -243 -208 -394
t-443 -151zM678 1729q0 55 38.5 93t92.5 38t92.5 -38t38.5 -93t-38.5 -93.5t-92.5 -38.5t-92.5 38.5t-38.5 93.5z" />
    <glyph glyph-name="cdotaccent" unicode="&#x10b;" horiz-adv-x="1122" 
d="M592 -25q-218 0 -355 141.5t-137 364.5t140 364.5t358 141.5q184 0 304 -100t140 -277h-184q-13 101 -84.5 161t-177.5 60q-136 0 -223.5 -95t-87.5 -255t87 -255t222 -95q107 0 185 60.5t91 160.5h179q-20 -175 -145.5 -276t-311.5 -101zM465 1257q0 52 36 87.5t87 35.5
t87 -35.5t36 -87.5t-36 -87t-87 -35t-87 35t-36 87z" />
    <glyph glyph-name="Ccaron" unicode="&#x10c;" horiz-adv-x="1558" 
d="M809 -25q-197 0 -356.5 93.5t-251.5 263.5t-92 385q0 161 54 300t148 235.5t223.5 151t276.5 54.5q257 0 437 -151t208 -394h-192q-33 180 -152.5 276.5t-294.5 96.5q-224 0 -370 -155t-146 -414t146 -414.5t370 -155.5q179 0 302 99t155 274h186q-26 -243 -208 -394
t-443 -151zM471 1880h182l156 -188l156 188h182l-254 -303h-168z" />
    <glyph glyph-name="ccaron" unicode="&#x10d;" horiz-adv-x="1122" 
d="M592 -25q-218 0 -355 141.5t-137 364.5t140 364.5t358 141.5q184 0 304 -100t140 -277h-184q-13 101 -84.5 161t-177.5 60q-136 0 -223.5 -95t-87.5 -255t87 -255t222 -95q107 0 185 60.5t91 160.5h179q-20 -175 -145.5 -276t-311.5 -101zM268 1401h172l148 -178l147 178
h172l-239 -287h-160z" />
    <glyph glyph-name="Dcaron" unicode="&#x10e;" horiz-adv-x="1421" 
d="M197 0v1434h352q226 0 398.5 -87t268 -250t95.5 -380t-95.5 -380t-268 -250t-398.5 -87h-352zM311 1880h183l155 -188l156 188h182l-254 -303h-168zM385 172h172q257 0 409 143t152 402t-152 402t-409 143h-172v-1090z" />
    <glyph glyph-name="dcaron" unicode="&#x10f;" horiz-adv-x="1386" 
d="M561 -25q-198 0 -329.5 142.5t-131.5 363.5t132 363.5t329 142.5q101 0 189.5 -41t130.5 -110h6v598h180v-1434h-162l-12 129h-6q-42 -68 -131 -111t-195 -43zM285 481q0 -161 83.5 -255.5t221.5 -94.5q140 0 222.5 94t82.5 256t-82.5 256t-222.5 94q-138 0 -221.5 -94.5
t-83.5 -255.5zM1219 1341q0 48 35.5 82.5t88.5 34.5q64 0 105 -49.5t41 -136.5q0 -181 -178 -314l-64 68q124 110 121 201q-20 -4 -33 -4q-51 0 -83.5 33.5t-32.5 84.5z" />
    <glyph glyph-name="Dcroat" unicode="&#x110;" horiz-adv-x="1437" 
d="M213 0v641h-213v152h213v641h352q226 0 398.5 -87t268 -250t95.5 -380t-95.5 -380t-268 -250t-398.5 -87h-352zM401 172h172q257 0 409.5 143t152.5 402t-152.5 402t-409.5 143h-172v-469h324v-152h-324v-469z" />
    <glyph glyph-name="dcroat" unicode="&#x111;" horiz-adv-x="1226" 
d="M586 1112v135h301v187h180v-187h203v-135h-203v-1112h-162l-12 129h-6q-42 -68 -131 -111t-195 -43q-198 0 -329.5 142.5t-131.5 363.5t132 363.5t329 142.5q101 0 189.5 -41t130.5 -110h6v276h-301zM285 481q0 -161 83.5 -255.5t221.5 -94.5q140 0 222.5 94t82.5 256
t-82.5 256t-222.5 94q-138 0 -221.5 -94.5t-83.5 -255.5z" />
    <glyph glyph-name="Emacron" unicode="&#x112;" horiz-adv-x="1204" 
d="M197 0v1434h872v-172h-684v-455h627v-172h-627v-463h684v-172h-872zM348 1645v147h570v-147h-570z" />
    <glyph glyph-name="emacron" unicode="&#x113;" horiz-adv-x="1144" 
d="M592 -25q-218 0 -356 139t-138 361q0 225 141 368.5t355 143.5q201 0 329 -129.5t128 -341.5q0 -31 -7 -78h-761q10 -148 96 -227.5t219 -79.5q91 0 161 39.5t107 112.5h170q-38 -142 -159 -225t-285 -83zM291 580h577q-17 128 -89 193t-185 65q-117 0 -198 -67.5
t-105 -190.5zM324 1178v139h536v-139h-536z" />
    <glyph glyph-name="Ebreve" unicode="&#x114;" horiz-adv-x="1204" 
d="M197 0v1434h872v-172h-684v-455h627v-172h-627v-463h684v-172h-872zM340 1862v10h156q0 -84 36 -126t101 -42t101 42t36 126h156v-10q0 -133 -78 -209t-215 -76t-215 76t-78 209z" />
    <glyph glyph-name="ebreve" unicode="&#x115;" horiz-adv-x="1144" 
d="M592 -25q-218 0 -356 139t-138 361q0 225 141 368.5t355 143.5q201 0 329 -129.5t128 -341.5q0 -31 -7 -78h-761q10 -148 96 -227.5t219 -79.5q91 0 161 39.5t107 112.5h170q-38 -142 -159 -225t-285 -83zM291 580h577q-17 128 -89 193t-185 65q-117 0 -198 -67.5
t-105 -190.5zM315 1382v11h148q0 -158 129 -158t129 158h147v-11q0 -125 -73 -196.5t-203 -71.5t-203.5 71.5t-73.5 196.5z" />
    <glyph glyph-name="Edotaccent" unicode="&#x116;" horiz-adv-x="1204" 
d="M197 0v1434h872v-172h-684v-455h627v-172h-627v-463h684v-172h-872zM502 1729q0 55 38.5 93t92.5 38t92.5 -38t38.5 -93t-38.5 -93.5t-92.5 -38.5t-92.5 38.5t-38.5 93.5z" />
    <glyph glyph-name="edotaccent" unicode="&#x117;" horiz-adv-x="1144" 
d="M592 -25q-218 0 -356 139t-138 361q0 225 141 368.5t355 143.5q201 0 329 -129.5t128 -341.5q0 -31 -7 -78h-761q10 -148 96 -227.5t219 -79.5q91 0 161 39.5t107 112.5h170q-38 -142 -159 -225t-285 -83zM291 580h577q-17 128 -89 193t-185 65q-117 0 -198 -67.5
t-105 -190.5zM469 1257q0 52 36 87.5t87 35.5t87 -35.5t36 -87.5t-36 -87t-87 -35t-87 35t-36 87z" />
    <glyph glyph-name="Eogonek" unicode="&#x118;" horiz-adv-x="1204" 
d="M197 0v1434h872v-172h-684v-455h627v-172h-627v-463h684v-172q-170 -129 -170 -227q0 -86 102 -86q37 0 68 10v-152q-48 -10 -96 -10q-112 0 -178 55.5t-66 149.5q0 77 47.5 146t134.5 114h-714z" />
    <glyph glyph-name="eogonek" unicode="&#x119;" horiz-adv-x="1144" 
d="M688 -430q-105 0 -167 52t-62 140q0 126 119 213q-211 5 -345.5 144t-134.5 356q0 225 141 368.5t355 143.5q201 0 329 -129.5t128 -341.5q0 -31 -7 -78h-761q10 -148 96 -227.5t219 -79.5q91 0 161 39.5t107 112.5h170q-26 -98 -94 -169.5t-166 -107.5
q-158 -119 -158 -213q0 -80 97 -80q32 0 63 8v-141q-45 -10 -90 -10zM291 580h577q-17 128 -89 193t-185 65q-117 0 -198 -67.5t-105 -190.5z" />
    <glyph glyph-name="Ecaron" unicode="&#x11a;" horiz-adv-x="1204" 
d="M197 0v1434h872v-172h-684v-455h627v-172h-627v-463h684v-172h-872zM295 1880h182l156 -188l155 188h183l-254 -303h-168z" />
    <glyph glyph-name="ecaron" unicode="&#x11b;" horiz-adv-x="1144" 
d="M592 -25q-218 0 -356 139t-138 361q0 225 141 368.5t355 143.5q201 0 329 -129.5t128 -341.5q0 -31 -7 -78h-761q10 -148 96 -227.5t219 -79.5q91 0 161 39.5t107 112.5h170q-38 -142 -159 -225t-285 -83zM272 1401h172l148 -178l147 178h172l-239 -287h-160zM291 580
h577q-17 128 -89 193t-185 65q-117 0 -198 -67.5t-105 -190.5z" />
    <glyph glyph-name="Gcircumflex" unicode="&#x11c;" horiz-adv-x="1599" 
d="M797 -25q-193 0 -350 92.5t-247.5 262t-90.5 385.5q0 162 53.5 301t147.5 236t226 151.5t285 54.5q248 0 422 -133.5t213 -361.5h-196q-29 152 -146 238.5t-289 86.5q-232 0 -378 -155t-146 -416q0 -260 144.5 -416t369.5 -156q190 0 318 114.5t151 313.5h-444v168h616
v-741h-149l-23 213h-6q-70 -113 -197.5 -175.5t-283.5 -62.5zM481 1577l254 303h168l254 -303h-182l-156 188l-155 -188h-183z" />
    <glyph glyph-name="gcircumflex" unicode="&#x11d;" horiz-adv-x="1026" 
d="M510 -483q-226 0 -343.5 76.5t-117.5 211.5q0 73 35.5 129.5t101.5 88.5q-96 58 -96 167q0 69 40 121t106 76q-101 98 -101 248q0 155 106.5 253.5t278.5 98.5h481v-110l-178 -15q82 -91 82 -227q0 -155 -106.5 -253.5t-278.5 -98.5q-92 0 -174 32q-41 -8 -66.5 -34.5
t-25.5 -63.5q0 -40 31 -62t88 -22h311q152 0 234.5 -74t82.5 -209q0 -158 -122.5 -245.5t-368.5 -87.5zM213 1114l240 287h159l240 -287h-172l-148 178l-147 -178h-172zM221 -168q0 -162 301 -162q307 0 307 176q0 64 -42.5 96.5t-139.5 32.5h-270q-70 0 -113 -40t-43 -103z
M303 635q0 -95 58.5 -152t158.5 -57t158.5 57t58.5 152q0 96 -58.5 153.5t-158.5 57.5t-158.5 -57.5t-58.5 -153.5z" />
    <glyph glyph-name="Gbreve" unicode="&#x11e;" horiz-adv-x="1599" 
d="M797 -25q-193 0 -350 92.5t-247.5 262t-90.5 385.5q0 162 53.5 301t147.5 236t226 151.5t285 54.5q248 0 422 -133.5t213 -361.5h-196q-29 152 -146 238.5t-289 86.5q-232 0 -378 -155t-146 -416q0 -260 144.5 -416t369.5 -156q190 0 318 114.5t151 313.5h-444v168h616
v-741h-149l-23 213h-6q-70 -113 -197.5 -175.5t-283.5 -62.5zM526 1862v10h156q0 -84 36 -126t101 -42t101 42t36 126h156v-10q0 -133 -78 -209t-215 -76t-215 76t-78 209z" />
    <glyph glyph-name="gbreve" unicode="&#x11f;" horiz-adv-x="1026" 
d="M510 -483q-226 0 -343.5 76.5t-117.5 211.5q0 73 35.5 129.5t101.5 88.5q-96 58 -96 167q0 69 40 121t106 76q-101 98 -101 248q0 155 106.5 253.5t278.5 98.5h481v-110l-178 -15q82 -91 82 -227q0 -155 -106.5 -253.5t-278.5 -98.5q-92 0 -174 32q-41 -8 -66.5 -34.5
t-25.5 -63.5q0 -40 31 -62t88 -22h311q152 0 234.5 -74t82.5 -209q0 -158 -122.5 -245.5t-368.5 -87.5zM221 -168q0 -162 301 -162q307 0 307 176q0 64 -42.5 96.5t-139.5 32.5h-270q-70 0 -113 -40t-43 -103zM256 1382v11h147q0 -158 129 -158q62 0 96 39t34 119h147v-11
q0 -125 -73.5 -196.5t-203.5 -71.5t-203 71.5t-73 196.5zM303 635q0 -95 58.5 -152t158.5 -57t158.5 57t58.5 152q0 96 -58.5 153.5t-158.5 57.5t-158.5 -57.5t-58.5 -153.5z" />
    <glyph glyph-name="Gdotaccent" unicode="&#x120;" horiz-adv-x="1599" 
d="M797 -25q-193 0 -350 92.5t-247.5 262t-90.5 385.5q0 162 53.5 301t147.5 236t226 151.5t285 54.5q248 0 422 -133.5t213 -361.5h-196q-29 152 -146 238.5t-289 86.5q-232 0 -378 -155t-146 -416q0 -260 144.5 -416t369.5 -156q190 0 318 114.5t151 313.5h-444v168h616
v-741h-149l-23 213h-6q-70 -113 -197.5 -175.5t-283.5 -62.5zM688 1729q0 55 38.5 93t92.5 38t92.5 -38t38.5 -93t-38.5 -93.5t-92.5 -38.5t-92.5 38.5t-38.5 93.5z" />
    <glyph glyph-name="gdotaccent" unicode="&#x121;" horiz-adv-x="1026" 
d="M510 -483q-226 0 -343.5 76.5t-117.5 211.5q0 73 35.5 129.5t101.5 88.5q-96 58 -96 167q0 69 40 121t106 76q-101 98 -101 248q0 155 106.5 253.5t278.5 98.5h481v-110l-178 -15q82 -91 82 -227q0 -155 -106.5 -253.5t-278.5 -98.5q-92 0 -174 32q-41 -8 -66.5 -34.5
t-25.5 -63.5q0 -40 31 -62t88 -22h311q152 0 234.5 -74t82.5 -209q0 -158 -122.5 -245.5t-368.5 -87.5zM221 -168q0 -162 301 -162q307 0 307 176q0 64 -42.5 96.5t-139.5 32.5h-270q-70 0 -113 -40t-43 -103zM303 635q0 -95 58.5 -152t158.5 -57t158.5 57t58.5 152
q0 96 -58.5 153.5t-158.5 57.5t-158.5 -57.5t-58.5 -153.5zM410 1257q0 52 35.5 87.5t86.5 35.5t87 -35.5t36 -87.5t-36 -87t-87 -35t-86.5 35t-35.5 87z" />
    <glyph glyph-name="uni0122" unicode="&#x122;" horiz-adv-x="1599" 
d="M797 -25q-193 0 -350 92.5t-247.5 262t-90.5 385.5q0 162 53.5 301t147.5 236t226 151.5t285 54.5q248 0 422 -133.5t213 -361.5h-196q-29 152 -146 238.5t-289 86.5q-232 0 -378 -155t-146 -416q0 -260 144.5 -416t369.5 -156q190 0 318 114.5t151 313.5h-444v168h616
v-741h-149l-23 213h-6q-70 -113 -197.5 -175.5t-283.5 -62.5zM678 -279q0 48 36 82.5t89 34.5q63 0 104 -49.5t41 -136.5q0 -91 -49 -168h-113q41 61 41 123q-20 -4 -32 -4q-51 0 -84 33.5t-33 84.5z" />
    <glyph glyph-name="uni0123" unicode="&#x123;" horiz-adv-x="1026" 
d="M510 -483q-226 0 -343.5 76.5t-117.5 211.5q0 73 35.5 129.5t101.5 88.5q-96 58 -96 167q0 69 40 121t106 76q-101 98 -101 248q0 155 106.5 253.5t278.5 98.5h481v-110l-178 -15q82 -91 82 -227q0 -155 -106.5 -253.5t-278.5 -98.5q-92 0 -174 32q-41 -8 -66.5 -34.5
t-25.5 -63.5q0 -40 31 -62t88 -22h311q152 0 234.5 -74t82.5 -209q0 -158 -122.5 -245.5t-368.5 -87.5zM221 -168q0 -162 301 -162q307 0 307 176q0 64 -42.5 96.5t-139.5 32.5h-270q-70 0 -113 -40t-43 -103zM303 635q0 -95 58.5 -152t158.5 -57t158.5 57t58.5 152
q0 96 -58.5 153.5t-158.5 57.5t-158.5 -57.5t-58.5 -153.5zM397 1311q0 91 49 168h113q-41 -61 -41 -123q20 4 33 4q51 0 84 -34t33 -85q0 -48 -36 -82.5t-89 -34.5q-63 0 -104.5 50t-41.5 137z" />
    <glyph glyph-name="Hcircumflex" unicode="&#x124;" horiz-adv-x="1454" 
d="M1069 0v610h-684v-610h-188v1434h188v-652h684v652h188v-1434h-188zM389 1577l254 303h168l254 -303h-182l-156 188l-156 -188h-182z" />
    <glyph glyph-name="hcircumflex" unicode="&#x125;" horiz-adv-x="1153" 
d="M160 0v1434h180v-600h6q48 73 127 113t180 40q160 0 254 -100t94 -279v-608h-180v539q0 155 -54 221.5t-163 66.5q-123 0 -193.5 -77t-70.5 -226v-524h-180zM-88 1577l254 303h168l254 -303h-182l-156 188l-156 -188h-182z" />
    <glyph glyph-name="Hbar" unicode="&#x126;" horiz-adv-x="1515" 
d="M1100 0v610h-684v-610h-189v1012h-186v143h186v279h189v-279h684v279h188v-279h187v-143h-187v-1012h-188zM416 782h684v230h-684v-230z" />
    <glyph glyph-name="hbar" unicode="&#x127;" horiz-adv-x="1153" 
d="M-43 1112v135h203v187h180v-187h301v-135h-301v-278h6q48 73 127 113t180 40q160 0 254 -100t94 -279v-608h-180v539q0 155 -54 221.5t-163 66.5q-123 0 -193.5 -77t-70.5 -226v-524h-180v1112h-203z" />
    <glyph glyph-name="Itilde" unicode="&#x128;" horiz-adv-x="581" 
d="M197 0v1434h188v-1434h-188zM-57 1589q0 146 55.5 221.5t146.5 75.5q51 0 95 -25.5t94 -82.5q64 -72 102 -72q32 0 52 40t20 124h133q0 -146 -55.5 -221.5t-147.5 -75.5q-50 0 -93 25t-95 83q-67 72 -103 72q-32 0 -51.5 -40t-19.5 -124h-133z" />
    <glyph glyph-name="itilde" unicode="&#x129;" horiz-adv-x="499" 
d="M160 0v963h180v-963h-180zM-61 1126q0 136 49 208.5t129 72.5q47 0 87.5 -24t86.5 -78q58 -68 90 -68q26 0 43.5 37.5t17.5 116.5h119q0 -136 -49 -208.5t-129 -72.5q-46 0 -85 23.5t-87 78.5q-60 68 -92 68q-26 0 -44 -37.5t-18 -116.5h-118z" />
    <glyph glyph-name="Imacron" unicode="&#x12a;" horiz-adv-x="581" 
d="M197 0v1434h188v-1434h-188zM6 1645v147h569v-147h-569z" />
    <glyph glyph-name="imacron" unicode="&#x12b;" horiz-adv-x="499" 
d="M160 0v963h180v-963h-180zM0 1178v139h500v-139h-500z" />
    <glyph glyph-name="Ibreve" unicode="&#x12c;" horiz-adv-x="581" 
d="M197 0v1434h188v-1434h-188zM-2 1862v10h156q0 -84 36 -126t101 -42t101 42t36 126h156v-10q0 -133 -78 -209t-215 -76t-215 76t-78 209z" />
    <glyph glyph-name="ibreve" unicode="&#x12d;" horiz-adv-x="499" 
d="M160 0v963h180v-963h-180zM-10 1382v11h137q0 -79 32.5 -118.5t90.5 -39.5t90.5 39.5t32.5 118.5h137v-11q0 -126 -67.5 -197t-192.5 -71t-192.5 71t-67.5 197z" />
    <glyph glyph-name="Iogonek" unicode="&#x12e;" horiz-adv-x="581" 
d="M197 0v1434h188v-1434q-75 -75 -103 -123.5t-28 -89.5q0 -82 80 -82q24 0 51 8v-141q-42 -10 -80 -10q-94 0 -151.5 51t-57.5 133q0 72 44.5 141t121.5 113h-65z" />
    <glyph glyph-name="iogonek" unicode="&#x12f;" horiz-adv-x="499" 
d="M160 0v963h180v-963q-75 -75 -103 -123.5t-28 -89.5q0 -82 80 -82q24 0 51 8v-141q-42 -10 -80 -10q-94 0 -151.5 51t-57.5 133q0 72 44.5 141t121.5 113h-57zM127 1257q0 52 36 87.5t87 35.5t87 -35.5t36 -87.5t-36 -87t-87 -35t-87 35t-36 87z" />
    <glyph glyph-name="Idotaccent" unicode="&#x130;" horiz-adv-x="581" 
d="M197 0v1434h188v-1434h-188zM160 1729q0 55 38.5 93t92.5 38t92.5 -38t38.5 -93t-38.5 -93.5t-92.5 -38.5t-92.5 38.5t-38.5 93.5z" />
    <glyph glyph-name="dotlessi" unicode="&#x131;" horiz-adv-x="499" 
d="M160 0v963h180v-963h-180z" />
    <glyph glyph-name="Jcircumflex" unicode="&#x134;" horiz-adv-x="1236" 
d="M573 -25q-234 0 -360.5 130t-126.5 384v158h188v-145q0 -184 75.5 -269.5t223.5 -85.5q299 0 299 355v760h-606v172h795v-945q0 -254 -127 -384t-361 -130zM319 1577l254 303h168l254 -303h-182l-156 188l-155 -188h-183z" />
    <glyph glyph-name="jcircumflex" unicode="&#x135;" horiz-adv-x="499" 
d="M63 -483q-55 0 -100 10v149q32 -4 62 -4q73 0 104 34t31 122v1135h180v-1135q0 -164 -67 -237.5t-210 -73.5zM-41 1114l219 287h144l219 -287h-164l-127 172l-127 -172h-164z" />
    <glyph glyph-name="uni0136" unicode="&#x136;" horiz-adv-x="1288" 
d="M197 0v1434h188v-666h6l623 666h233l-669 -713l686 -721h-250l-623 653h-6v-653h-188zM551 -279q0 48 36 82.5t89 34.5q63 0 104 -49.5t41 -136.5q0 -91 -49 -168h-113q41 61 41 123q-20 -4 -32 -4q-51 0 -84 33.5t-33 84.5z" />
    <glyph glyph-name="uni0137" unicode="&#x137;" horiz-adv-x="1034" 
d="M160 0v1434h180v-883h4l428 412h232l-474 -455l486 -508h-236l-434 457h-6v-457h-180zM406 -279q0 48 35.5 82.5t88.5 34.5q64 0 105 -49.5t41 -136.5q0 -91 -49 -168h-113q41 61 41 123q-20 -4 -33 -4q-51 0 -83.5 33.5t-32.5 84.5z" />
    <glyph glyph-name="Lacute" unicode="&#x139;" horiz-adv-x="1105" 
d="M197 0v1434h188v-1262h655v-172h-843zM168 1577l145 303h236l-215 -303h-166z" />
    <glyph glyph-name="lacute" unicode="&#x13a;" horiz-adv-x="499" 
d="M160 0v1434h180v-1434h-180zM127 1577l145 303h236l-215 -303h-166z" />
    <glyph glyph-name="uni013B" unicode="&#x13b;" horiz-adv-x="1105" 
d="M197 0v1434h188v-1262h655v-172h-843zM498 -279q0 48 36 82.5t89 34.5q63 0 104 -49.5t41 -136.5q0 -91 -49 -168h-113q41 61 41 123q-20 -4 -33 -4q-51 0 -83.5 33.5t-32.5 84.5z" />
    <glyph glyph-name="uni013C" unicode="&#x13c;" horiz-adv-x="499" 
d="M160 0v1434h180v-1434h-180zM115 -279q0 48 36 82.5t89 34.5q63 0 104 -49.5t41 -136.5q0 -91 -49 -168h-113q41 61 41 123q-20 -4 -33 -4q-51 0 -83.5 33.5t-32.5 84.5z" />
    <glyph glyph-name="Lcaron" unicode="&#x13d;" horiz-adv-x="1105" 
d="M197 0v1434h188v-1262h655v-172h-843zM598 1341q0 48 36 82.5t89 34.5q63 0 104 -49.5t41 -136.5q0 -181 -178 -314l-63 68q124 110 121 201q-20 -4 -33 -4q-51 0 -84 33.5t-33 84.5z" />
    <glyph glyph-name="lcaron" unicode="&#x13e;" horiz-adv-x="659" 
d="M160 0v1434h180v-1434h-180zM492 1341q0 48 35.5 82.5t88.5 34.5q64 0 105 -49.5t41 -136.5q0 -181 -178 -314l-64 68q124 110 121 201q-20 -4 -33 -4q-51 0 -83.5 33.5t-32.5 84.5z" />
    <glyph glyph-name="Ldot" unicode="&#x13f;" horiz-adv-x="1146" 
d="M197 0v1434h188v-1262h655v-172h-843zM645 618q0 56 37 93t92 37t92 -37t37 -93t-36.5 -92.5t-92.5 -36.5t-92.5 36.5t-36.5 92.5z" />
    <glyph glyph-name="ldot" unicode="&#x140;" horiz-adv-x="856" 
d="M160 0v1434h180v-1434h-180zM537 502q0 56 36.5 92.5t92.5 36.5t92.5 -36.5t36.5 -92.5t-36.5 -92.5t-92.5 -36.5t-92.5 36.5t-36.5 92.5z" />
    <glyph glyph-name="Lslash" unicode="&#x141;" horiz-adv-x="1142" 
d="M233 0v496l-243 -177v164l243 176v775h189v-637l366 266v-164l-366 -266v-461h655v-172h-844z" />
    <glyph glyph-name="lslash" unicode="&#x142;" horiz-adv-x="679" 
d="M250 0v543l-221 -160v164l221 160v727h180v-596l221 159v-163l-221 -160v-674h-180z" />
    <glyph glyph-name="Nacute" unicode="&#x143;" horiz-adv-x="1529" 
d="M197 0v1434h198l744 -1129h6v1129h188v-1434h-198l-744 1128h-6v-1128h-188zM643 1577l145 303h236l-215 -303h-166z" />
    <glyph glyph-name="nacute" unicode="&#x144;" horiz-adv-x="1153" 
d="M160 0v963h162l12 -129h6q46 72 128.5 112.5t184.5 40.5q160 0 254 -100t94 -279v-608h-180v539q0 155 -54 221.5t-163 66.5q-123 0 -193.5 -77t-70.5 -226v-524h-180zM471 1114l137 287h223l-202 -287h-158z" />
    <glyph glyph-name="uni0145" unicode="&#x145;" horiz-adv-x="1529" 
d="M197 0v1434h198l744 -1129h6v1129h188v-1434h-198l-744 1128h-6v-1128h-188zM631 -279q0 48 36 82.5t89 34.5q63 0 104 -49.5t41 -136.5q0 -91 -49 -168h-113q41 61 41 123q-20 -4 -32 -4q-51 0 -84 33.5t-33 84.5z" />
    <glyph glyph-name="uni0146" unicode="&#x146;" horiz-adv-x="1153" 
d="M160 0v963h162l12 -129h6q46 72 128.5 112.5t184.5 40.5q160 0 254 -100t94 -279v-608h-180v539q0 155 -54 221.5t-163 66.5q-123 0 -193.5 -77t-70.5 -226v-524h-180zM442 -279q0 48 36 82.5t89 34.5q64 0 105 -49.5t41 -136.5q0 -91 -49 -168h-113q41 61 41 123
q-20 -4 -33 -4q-51 0 -84 33.5t-33 84.5z" />
    <glyph glyph-name="Ncaron" unicode="&#x147;" horiz-adv-x="1529" 
d="M197 0v1434h198l744 -1129h6v1129h188v-1434h-198l-744 1128h-6v-1128h-188zM428 1880h182l156 -188l156 188h182l-254 -303h-168z" />
    <glyph glyph-name="ncaron" unicode="&#x148;" horiz-adv-x="1153" 
d="M160 0v963h162l12 -129h6q46 72 128.5 112.5t184.5 40.5q160 0 254 -100t94 -279v-608h-180v539q0 155 -54 221.5t-163 66.5q-123 0 -193.5 -77t-70.5 -226v-524h-180zM264 1401h172l148 -178l147 178h172l-239 -287h-160z" />
    <glyph glyph-name="Eng" unicode="&#x14a;" horiz-adv-x="1529" 
d="M1057 -375q-56 0 -101 10v168q32 -4 62 -4q60 0 88.5 32.5t28.5 105.5v63l-744 1128h-6v-1128h-188v1434h198l744 -1129h6v1129h188v-1497q0 -162 -67 -237t-209 -75z" />
    <glyph glyph-name="eng" unicode="&#x14b;" horiz-adv-x="1153" 
d="M725 -326q-51 0 -100 11v149q32 -4 61 -4q73 0 104 34t31 122v553q0 155 -54 221.5t-163 66.5q-123 0 -193.5 -77t-70.5 -226v-524h-180v963h162l12 -129h6q46 72 128.5 112.5t184.5 40.5q160 0 254 -100t94 -279v-622q0 -164 -67 -238t-209 -74z" />
    <glyph glyph-name="Omacron" unicode="&#x14c;" horiz-adv-x="1630" 
d="M815 -25q-201 0 -362 94.5t-252.5 264t-91.5 383.5t91.5 383.5t252.5 263.5t362 94q150 0 281 -55t225 -152t147.5 -235.5t53.5 -298.5q0 -214 -91.5 -383.5t-253 -264t-362.5 -94.5zM301 717q0 -258 144 -414t370 -156t370 156t144 414t-144 413.5t-370 155.5
t-370 -155.5t-144 -413.5zM530 1645v147h570v-147h-570z" />
    <glyph glyph-name="omacron" unicode="&#x14d;" horiz-adv-x="1187" 
d="M594 -25q-215 0 -355.5 142t-140.5 364t140.5 364t355.5 142t355.5 -142t140.5 -364t-140.5 -364t-355.5 -142zM283 481q0 -157 87.5 -253.5t223.5 -96.5t223.5 96.5t87.5 253.5t-87.5 253.5t-223.5 96.5t-223.5 -96.5t-87.5 -253.5zM326 1178v139h536v-139h-536z" />
    <glyph glyph-name="Obreve" unicode="&#x14e;" horiz-adv-x="1630" 
d="M815 -25q-201 0 -362 94.5t-252.5 264t-91.5 383.5t91.5 383.5t252.5 263.5t362 94q150 0 281 -55t225 -152t147.5 -235.5t53.5 -298.5q0 -214 -91.5 -383.5t-253 -264t-362.5 -94.5zM301 717q0 -258 144 -414t370 -156t370 156t144 414t-144 413.5t-370 155.5
t-370 -155.5t-144 -413.5zM522 1862v10h156q0 -84 36 -126t101 -42t101 42t36 126h156v-10q0 -133 -78 -209t-215 -76t-215 76t-78 209z" />
    <glyph glyph-name="obreve" unicode="&#x14f;" horiz-adv-x="1187" 
d="M594 -25q-215 0 -355.5 142t-140.5 364t140.5 364t355.5 142t355.5 -142t140.5 -364t-140.5 -364t-355.5 -142zM283 481q0 -157 87.5 -253.5t223.5 -96.5t223.5 96.5t87.5 253.5t-87.5 253.5t-223.5 96.5t-223.5 -96.5t-87.5 -253.5zM317 1382v11h148q0 -158 129 -158
t129 158h147v-11q0 -125 -73 -196.5t-203 -71.5t-203.5 71.5t-73.5 196.5z" />
    <glyph glyph-name="Ohungarumlaut" unicode="&#x150;" horiz-adv-x="1630" 
d="M815 -25q-201 0 -362 94.5t-252.5 264t-91.5 383.5t91.5 383.5t252.5 263.5t362 94q150 0 281 -55t225 -152t147.5 -235.5t53.5 -298.5q0 -214 -91.5 -383.5t-253 -264t-362.5 -94.5zM301 717q0 -258 144 -414t370 -156t370 156t144 414t-144 413.5t-370 155.5
t-370 -155.5t-144 -413.5zM522 1577l127 303h197l-180 -303h-144zM862 1577l129 303h195l-180 -303h-144z" />
    <glyph glyph-name="ohungarumlaut" unicode="&#x151;" horiz-adv-x="1187" 
d="M594 -25q-215 0 -355.5 142t-140.5 364t140.5 364t355.5 142t355.5 -142t140.5 -364t-140.5 -364t-355.5 -142zM283 481q0 -157 87.5 -253.5t223.5 -96.5t223.5 96.5t87.5 253.5t-87.5 253.5t-223.5 96.5t-223.5 -96.5t-87.5 -253.5zM319 1114l121 287h185l-170 -287
h-136zM641 1114l121 287h184l-170 -287h-135z" />
    <glyph glyph-name="OE" unicode="&#x152;" horiz-adv-x="2043" 
d="M872 0q-343 0 -552 194.5t-209 522.5t209 522.5t552 194.5h1037v-172h-684v-455h626v-172h-626v-463h684v-172h-1037zM303 717q0 -259 152 -402t409 -143h172v1090h-172q-257 0 -409 -143t-152 -402z" />
    <glyph glyph-name="oe" unicode="&#x153;" horiz-adv-x="1951" 
d="M594 -25q-215 0 -355.5 142t-140.5 364t140.5 364t355.5 142q127 0 231 -53t170 -150h9q65 97 168 150t229 53q201 0 329 -129.5t128 -341.5q0 -31 -7 -78h-761q10 -148 95.5 -227.5t215.5 -79.5q94 0 164.5 39.5t107.5 112.5h170q-38 -142 -159.5 -225t-286.5 -83
q-129 0 -232 52t-166 149h-8q-66 -97 -168.5 -149t-228.5 -52zM283 481q0 -157 87.5 -253.5t223.5 -96.5t223.5 96.5t87.5 253.5t-87.5 253.5t-223.5 96.5t-223.5 -96.5t-87.5 -253.5zM1098 580h577q-17 128 -89 193t-185 65q-117 0 -198 -67.5t-105 -190.5z" />
    <glyph glyph-name="Racute" unicode="&#x154;" horiz-adv-x="1329" 
d="M197 0v1434h456q251 0 399 -127t148 -340q0 -171 -98.5 -289.5t-272.5 -159.5l390 -518h-232l-371 500h-231v-500h-188zM385 672h268q172 0 263.5 76.5t91.5 218.5t-91.5 218.5t-263.5 76.5h-268v-590zM494 1577l145 303h235l-215 -303h-165z" />
    <glyph glyph-name="racute" unicode="&#x155;" horiz-adv-x="751" 
d="M160 0v963h159l15 -148h6q34 77 105.5 121.5t160.5 44.5q53 0 96 -16v-156q-44 6 -84 6q-136 0 -207 -77.5t-71 -233.5v-504h-180zM305 1114l137 287h224l-203 -287h-158z" />
    <glyph glyph-name="uni0156" unicode="&#x156;" horiz-adv-x="1329" 
d="M197 0v1434h456q251 0 399 -127t148 -340q0 -171 -98.5 -289.5t-272.5 -159.5l390 -518h-232l-371 500h-231v-500h-188zM385 672h268q172 0 263.5 76.5t91.5 218.5t-91.5 218.5t-263.5 76.5h-268v-590zM530 -279q0 48 36 82.5t89 34.5q64 0 105 -49.5t41 -136.5
q0 -91 -49 -168h-113q41 61 41 123q-20 -4 -33 -4q-51 0 -84 33.5t-33 84.5z" />
    <glyph glyph-name="uni0157" unicode="&#x157;" horiz-adv-x="751" 
d="M160 0v963h159l15 -148h6q34 77 105.5 121.5t160.5 44.5q53 0 96 -16v-156q-44 6 -84 6q-136 0 -207 -77.5t-71 -233.5v-504h-180zM115 -279q0 48 36 82.5t89 34.5q63 0 104 -49.5t41 -136.5q0 -91 -49 -168h-113q41 61 41 123q-20 -4 -33 -4q-51 0 -83.5 33.5
t-32.5 84.5z" />
    <glyph glyph-name="Rcaron" unicode="&#x158;" horiz-adv-x="1329" 
d="M197 0v1434h456q251 0 399 -127t148 -340q0 -171 -98.5 -289.5t-272.5 -159.5l390 -518h-232l-371 500h-231v-500h-188zM279 1880h182l155 -188l156 188h182l-254 -303h-168zM385 672h268q172 0 263.5 76.5t91.5 218.5t-91.5 218.5t-263.5 76.5h-268v-590z" />
    <glyph glyph-name="rcaron" unicode="&#x159;" horiz-adv-x="751" 
d="M160 0v963h159l15 -148h6q34 77 105.5 121.5t160.5 44.5q53 0 96 -16v-156q-44 6 -84 6q-136 0 -207 -77.5t-71 -233.5v-504h-180zM127 1401h164l127 -172l127 172h164l-220 -287h-143z" />
    <glyph glyph-name="Sacute" unicode="&#x15a;" horiz-adv-x="1220" 
d="M621 -25q-227 0 -374 129.5t-153 346.5h193q13 -149 104.5 -227.5t235.5 -78.5q141 0 227 71t86 183q0 88 -68 143.5t-239 92.5l-131 29q-387 84 -387 376q0 183 138 300.5t355 117.5q213 0 348 -115.5t154 -318.5h-192q-20 133 -101.5 198.5t-212.5 65.5
q-137 0 -218 -65.5t-81 -173.5q0 -88 67 -140.5t238 -89.5l131 -28q203 -45 296 -137.5t93 -237.5q0 -195 -142.5 -318t-366.5 -123zM477 1577l146 303h235l-215 -303h-166z" />
    <glyph glyph-name="sacute" unicode="&#x15b;" horiz-adv-x="946" 
d="M485 -25q-175 0 -281.5 85t-117.5 231h180q10 -82 68.5 -126t152.5 -44q93 0 149 41t56 106q0 53 -44 86t-150 54l-117 22q-281 55 -281 262q0 130 102.5 212.5t276.5 82.5q163 0 261 -75.5t110 -213.5h-180q-8 68 -59.5 106t-141.5 38q-91 0 -143 -38t-52 -102
q0 -47 40 -76t153 -51l117 -22q146 -28 214 -93.5t68 -176.5q0 -138 -102 -223t-279 -85zM360 1114l138 287h223l-203 -287h-158z" />
    <glyph glyph-name="Scircumflex" unicode="&#x15c;" horiz-adv-x="1220" 
d="M621 -25q-227 0 -374 129.5t-153 346.5h193q13 -149 104.5 -227.5t235.5 -78.5q141 0 227 71t86 183q0 88 -68 143.5t-239 92.5l-131 29q-387 84 -387 376q0 183 138 300.5t355 117.5q213 0 348 -115.5t154 -318.5h-192q-20 133 -101.5 198.5t-212.5 65.5
q-137 0 -218 -65.5t-81 -173.5q0 -88 67 -140.5t238 -89.5l131 -28q203 -45 296 -137.5t93 -237.5q0 -195 -142.5 -318t-366.5 -123zM262 1577l254 303h168l254 -303h-182l-156 188l-156 -188h-182z" />
    <glyph glyph-name="scircumflex" unicode="&#x15d;" horiz-adv-x="946" 
d="M485 -25q-175 0 -281.5 85t-117.5 231h180q10 -82 68.5 -126t152.5 -44q93 0 149 41t56 106q0 53 -44 86t-150 54l-117 22q-281 55 -281 262q0 130 102.5 212.5t276.5 82.5q163 0 261 -75.5t110 -213.5h-180q-8 68 -59.5 106t-141.5 38q-91 0 -143 -38t-52 -102
q0 -47 40 -76t153 -51l117 -22q146 -28 214 -93.5t68 -176.5q0 -138 -102 -223t-279 -85zM154 1114l239 287h160l240 -287h-172l-148 178l-147 -178h-172z" />
    <glyph glyph-name="Scedilla" unicode="&#x15e;" horiz-adv-x="1220" 
d="M582 -463q-41 0 -88 6v129q29 -4 75 -4q123 0 123 68q0 29 -34.5 43t-137.5 14l15 189q-194 24 -314.5 149t-126.5 320h193q13 -149 104.5 -227.5t235.5 -78.5q141 0 227 71t86 183q0 88 -68 143.5t-239 92.5l-131 29q-387 84 -387 376q0 183 138 300.5t355 117.5
q213 0 348 -115.5t154 -318.5h-192q-20 133 -101.5 198.5t-212.5 65.5q-137 0 -218 -65.5t-81 -173.5q0 -88 67 -140.5t238 -89.5l131 -28q203 -45 296 -137.5t93 -237.5q0 -185 -129 -306t-337 -133l-2 -86q85 -9 131.5 -52t46.5 -115q0 -86 -66.5 -136.5t-191.5 -50.5z
" />
    <glyph glyph-name="scedilla" unicode="&#x15f;" horiz-adv-x="946" 
d="M440 -463q-41 0 -88 6v129q29 -4 76 -4q123 0 123 68q0 29 -34.5 43t-137.5 14l14 189q-136 22 -217 103t-90 206h180q10 -82 68.5 -126t152.5 -44q93 0 149 41t56 106q0 53 -44 86t-150 54l-117 22q-281 55 -281 262q0 130 102.5 212.5t276.5 82.5q163 0 261 -75.5
t110 -213.5h-180q-8 68 -59.5 106t-141.5 38q-91 0 -143 -38t-52 -102q0 -47 40 -76t153 -51l117 -22q146 -28 214 -93.5t68 -176.5q0 -130 -92 -214.5t-252 -93.5l-2 -84q85 -9 131.5 -52t46.5 -115q0 -86 -66.5 -136.5t-191.5 -50.5z" />
    <glyph glyph-name="Scaron" unicode="&#x160;" horiz-adv-x="1220" 
d="M621 -25q-227 0 -374 129.5t-153 346.5h193q13 -149 104.5 -227.5t235.5 -78.5q141 0 227 71t86 183q0 88 -68 143.5t-239 92.5l-131 29q-387 84 -387 376q0 183 138 300.5t355 117.5q213 0 348 -115.5t154 -318.5h-192q-20 133 -101.5 198.5t-212.5 65.5
q-137 0 -218 -65.5t-81 -173.5q0 -88 67 -140.5t238 -89.5l131 -28q203 -45 296 -137.5t93 -237.5q0 -195 -142.5 -318t-366.5 -123zM262 1880h182l156 -188l156 188h182l-254 -303h-168z" />
    <glyph glyph-name="scaron" unicode="&#x161;" horiz-adv-x="946" 
d="M485 -25q-175 0 -281.5 85t-117.5 231h180q10 -82 68.5 -126t152.5 -44q93 0 149 41t56 106q0 53 -44 86t-150 54l-117 22q-281 55 -281 262q0 130 102.5 212.5t276.5 82.5q163 0 261 -75.5t110 -213.5h-180q-8 68 -59.5 106t-141.5 38q-91 0 -143 -38t-52 -102
q0 -47 40 -76t153 -51l117 -22q146 -28 214 -93.5t68 -176.5q0 -138 -102 -223t-279 -85zM154 1401h172l147 -178l148 178h172l-240 -287h-160z" />
    <glyph glyph-name="uni0162" unicode="&#x162;" horiz-adv-x="1155" 
d="M483 0v1262h-438v172h1065v-172h-438v-1262h-189zM442 -279q0 48 36 82.5t89 34.5q64 0 105 -49.5t41 -136.5q0 -91 -49 -168h-113q41 61 41 123q-20 -4 -33 -4q-51 0 -84 33.5t-33 84.5z" />
    <glyph glyph-name="uni0163" unicode="&#x163;" horiz-adv-x="739" 
d="M541 -25q-170 0 -251 84.5t-81 276.5v473h-176v154h176v243h180v-243h273v-154h-273v-473q0 -119 42.5 -163t146.5 -44q51 0 92 8v-147q-58 -15 -129 -15zM313 -279q0 48 36 82.5t89 34.5q64 0 105 -49.5t41 -136.5q0 -91 -49 -168h-113q41 61 41 123q-20 -4 -33 -4
q-51 0 -84 33.5t-33 84.5z" />
    <glyph glyph-name="Tcaron" unicode="&#x164;" horiz-adv-x="1155" 
d="M483 0v1262h-438v172h1065v-172h-438v-1262h-189zM240 1880h182l156 -188l155 188h182l-253 -303h-168z" />
    <glyph glyph-name="tcaron" unicode="&#x165;" horiz-adv-x="739" 
d="M541 -25q-170 0 -251 84.5t-81 276.5v473h-176v154h176v243h180v-243h273v-154h-273v-473q0 -119 42.5 -163t146.5 -44q51 0 92 8v-147q-58 -15 -129 -15zM463 1393q0 48 36 82t89 34q63 0 104 -49.5t41 -136.5q0 -91 -49 -168h-113q41 61 41 123q-20 -4 -32 -4
q-51 0 -84 34t-33 85z" />
    <glyph glyph-name="Tbar" unicode="&#x166;" horiz-adv-x="1155" 
d="M483 0v573h-268v152h268v537h-438v172h1065v-172h-438v-537h268v-152h-268v-573h-189z" />
    <glyph glyph-name="tbar" unicode="&#x167;" horiz-adv-x="763" 
d="M45 422v131h176v256h-176v154h176v243h180v-243h273v-154h-273v-256h273v-131h-273v-86q0 -119 42.5 -163t146.5 -44q51 0 92 8v-147q-58 -15 -129 -15q-170 0 -251 84.5t-81 276.5v86h-176z" />
    <glyph glyph-name="Utilde" unicode="&#x168;" horiz-adv-x="1445" 
d="M723 -25q-251 0 -399 158t-148 428v873h189v-881q0 -194 96 -300t262 -106t262 106t96 300v881h189v-873q0 -270 -148 -428t-399 -158zM375 1589q0 146 55.5 221.5t147.5 75.5q51 0 94.5 -25.5t93.5 -82.5q64 -72 102 -72q32 0 52 40t20 124h133q0 -146 -55.5 -221.5
t-147.5 -75.5q-50 0 -93 25t-95 83q-67 72 -102 72q-32 0 -52 -40t-20 -124h-133z" />
    <glyph glyph-name="utilde" unicode="&#x169;" horiz-adv-x="1140" 
d="M494 -25q-153 0 -247.5 100t-94.5 279v609h180v-539q0 -154 53.5 -221.5t157.5 -67.5q119 0 188.5 77.5t69.5 225.5v525h180v-963h-162l-12 129h-6q-46 -72 -128 -113t-179 -41zM244 1126q0 137 52 209t138 72q92 0 178 -102q58 -68 97 -68q67 0 67 154h125
q0 -137 -52 -209t-138 -72q-90 0 -179 102q-60 68 -96 68q-67 0 -67 -154h-125z" />
    <glyph glyph-name="Umacron" unicode="&#x16a;" horiz-adv-x="1445" 
d="M723 -25q-251 0 -399 158t-148 428v873h189v-881q0 -194 96 -300t262 -106t262 106t96 300v881h189v-873q0 -270 -148 -428t-399 -158zM438 1645v147h570v-147h-570z" />
    <glyph glyph-name="umacron" unicode="&#x16b;" horiz-adv-x="1140" 
d="M494 -25q-153 0 -247.5 100t-94.5 279v609h180v-539q0 -154 53.5 -221.5t157.5 -67.5q119 0 188.5 77.5t69.5 225.5v525h180v-963h-162l-12 129h-6q-46 -72 -128 -113t-179 -41zM303 1178v139h537v-139h-537z" />
    <glyph glyph-name="Ubreve" unicode="&#x16c;" horiz-adv-x="1445" 
d="M723 -25q-251 0 -399 158t-148 428v873h189v-881q0 -194 96 -300t262 -106t262 106t96 300v881h189v-873q0 -270 -148 -428t-399 -158zM430 1862v10h156q0 -84 36 -126t101 -42t101 42t36 126h156v-10q0 -133 -78 -209t-215 -76t-215 76t-78 209z" />
    <glyph glyph-name="ubreve" unicode="&#x16d;" horiz-adv-x="1140" 
d="M494 -25q-153 0 -247.5 100t-94.5 279v609h180v-539q0 -154 53.5 -221.5t157.5 -67.5q119 0 188.5 77.5t69.5 225.5v525h180v-963h-162l-12 129h-6q-46 -72 -128 -113t-179 -41zM295 1382v11h147q0 -158 129 -158t129 158h148v-11q0 -125 -73.5 -196.5t-203.5 -71.5
t-203 71.5t-73 196.5z" />
    <glyph glyph-name="Uring" unicode="&#x16e;" horiz-adv-x="1445" 
d="M723 -25q-251 0 -399 158t-148 428v873h189v-881q0 -194 96 -300t262 -106t262 106t96 300v881h189v-873q0 -270 -148 -428t-399 -158zM494 1778q0 93 65.5 156t163.5 63t163.5 -63t65.5 -156t-65.5 -156t-163.5 -63t-163.5 63t-65.5 156zM627 1778q0 -41 26.5 -69
t69.5 -28t69.5 28t26.5 69t-26.5 68.5t-69.5 27.5t-69.5 -27.5t-26.5 -68.5z" />
    <glyph glyph-name="uring" unicode="&#x16f;" horiz-adv-x="1140" 
d="M494 -25q-153 0 -247.5 100t-94.5 279v609h180v-539q0 -154 53.5 -221.5t157.5 -67.5q119 0 188.5 77.5t69.5 225.5v525h180v-963h-162l-12 129h-6q-46 -72 -128 -113t-179 -41zM354 1307q0 88 62.5 147t154.5 59t154.5 -59t62.5 -147t-62.5 -147.5t-154.5 -59.5
t-154.5 59.5t-62.5 147.5zM481 1307q0 -39 24.5 -64.5t65.5 -25.5t66 25.5t25 64.5t-25 64.5t-66 25.5t-65.5 -25.5t-24.5 -64.5z" />
    <glyph glyph-name="Uhungarumlaut" unicode="&#x170;" horiz-adv-x="1445" 
d="M723 -25q-251 0 -399 158t-148 428v873h189v-881q0 -194 96 -300t262 -106t262 106t96 300v881h189v-873q0 -270 -148 -428t-399 -158zM430 1577l127 303h197l-181 -303h-143zM770 1577l129 303h195l-181 -303h-143z" />
    <glyph glyph-name="uhungarumlaut" unicode="&#x171;" horiz-adv-x="1140" 
d="M494 -25q-153 0 -247.5 100t-94.5 279v609h180v-539q0 -154 53.5 -221.5t157.5 -67.5q119 0 188.5 77.5t69.5 225.5v525h180v-963h-162l-12 129h-6q-46 -72 -128 -113t-179 -41zM297 1114l121 287h184l-170 -287h-135zM618 1114l121 287h185l-170 -287h-136z" />
    <glyph glyph-name="Uogonek" unicode="&#x172;" horiz-adv-x="1445" 
d="M819 -461q-112 0 -178 55.5t-66 149.5q0 65 35 125.5t101 105.5q-246 5 -390.5 162t-144.5 424v873h189v-881q0 -194 96 -300t262 -106t262 106t96 300v881h189v-873q0 -212 -94 -357.5t-261 -199.5q-170 -129 -170 -227q0 -86 103 -86q36 0 67 10v-152q-48 -10 -96 -10z
" />
    <glyph glyph-name="uogonek" unicode="&#x173;" horiz-adv-x="1140" 
d="M494 -25q-153 0 -247.5 100t-94.5 279v609h180v-539q0 -154 53.5 -221.5t157.5 -67.5q119 0 188.5 77.5t69.5 225.5v525h180v-963q-87 -66 -123.5 -117t-36.5 -98q0 -80 97 -80q32 0 63 8v-141q-45 -10 -90 -10q-105 0 -167 52t-62 140q0 74 44.5 139t127.5 107h-15
l-12 129h-6q-46 -72 -128 -113t-179 -41z" />
    <glyph glyph-name="Wcircumflex" unicode="&#x174;" horiz-adv-x="2050" 
d="M487 0l-444 1434h190l351 -1145h6l344 1145h182l344 -1145h6l351 1145h190l-444 -1434h-189l-346 1159h-6l-346 -1159h-189zM688 1577l254 303h168l254 -303h-182l-156 188l-156 -188h-182z" />
    <glyph glyph-name="wcircumflex" unicode="&#x175;" horiz-adv-x="1613" 
d="M367 0l-322 963h186l232 -732h6l256 732h164l256 -732h6l231 732h187l-322 -963h-184l-254 727h-4l-254 -727h-184zM487 1114l240 287h160l239 -287h-172l-147 178l-148 -178h-172z" />
    <glyph glyph-name="Ycircumflex" unicode="&#x176;" horiz-adv-x="1277" 
d="M545 0v563l-529 871h213l408 -695h4l408 695h213l-529 -871v-563h-188zM301 1577l254 303h168l254 -303h-182l-156 188l-156 -188h-182z" />
    <glyph glyph-name="ycircumflex" unicode="&#x177;" horiz-adv-x="1021" 
d="M231 -459l189 459l-395 963h190l293 -748h6l297 748h186l-583 -1422h-183zM193 1114l239 287h160l239 -287h-172l-147 178l-147 -178h-172z" />
    <glyph glyph-name="Ydieresis" unicode="&#x178;" horiz-adv-x="1277" 
d="M545 0v563l-529 871h213l408 -695h4l408 695h213l-529 -871v-563h-188zM291 1729q0 55 38.5 93t92.5 38t92.5 -38t38.5 -93t-38.5 -93.5t-92.5 -38.5t-92.5 38.5t-38.5 93.5zM725 1729q0 55 38.5 93t92.5 38t92.5 -38t38.5 -93t-38.5 -93.5t-92.5 -38.5t-92.5 38.5
t-38.5 93.5z" />
    <glyph glyph-name="Zacute" unicode="&#x179;" horiz-adv-x="1175" 
d="M102 0v143l727 1119h-710v172h938v-144l-727 -1118h743v-172h-971zM461 1577l145 303h236l-215 -303h-166z" />
    <glyph glyph-name="zacute" unicode="&#x17a;" horiz-adv-x="913" 
d="M78 0v119l520 690h-512v154h737v-119l-518 -688h531v-156h-758zM344 1114l137 287h224l-203 -287h-158z" />
    <glyph glyph-name="Zdotaccent" unicode="&#x17b;" horiz-adv-x="1175" 
d="M102 0v143l727 1119h-710v172h938v-144l-727 -1118h743v-172h-971zM453 1729q0 55 38.5 93t92.5 38t92.5 -38t38.5 -93t-38.5 -93.5t-92.5 -38.5t-92.5 38.5t-38.5 93.5z" />
    <glyph glyph-name="zdotaccent" unicode="&#x17c;" horiz-adv-x="913" 
d="M78 0v119l520 690h-512v154h737v-119l-518 -688h531v-156h-758zM334 1257q0 52 36 87.5t87 35.5t87 -35.5t36 -87.5t-36 -87t-87 -35t-87 35t-36 87z" />
    <glyph glyph-name="Zcaron" unicode="&#x17d;" horiz-adv-x="1175" 
d="M102 0v143l727 1119h-710v172h938v-144l-727 -1118h743v-172h-971zM246 1880h182l156 -188l155 188h183l-254 -303h-168z" />
    <glyph glyph-name="zcaron" unicode="&#x17e;" horiz-adv-x="913" 
d="M78 0v119l520 690h-512v154h737v-119l-518 -688h531v-156h-758zM137 1401h172l148 -178l147 178h172l-239 -287h-160z" />
    <glyph glyph-name="florin" unicode="&#x192;" horiz-adv-x="950" 
d="M150 -25q-50 0 -97 13v157q40 -6 74 -6q79 0 122 42t64 153l76 397h-229v143h256l53 281q30 158 112.5 230.5t219.5 72.5q53 0 96 -12v-158q-40 6 -74 6q-79 0 -122 -41.5t-64 -152.5l-43 -226h266v-143h-293l-86 -452q-30 -158 -112.5 -231t-218.5 -73z" />
    <glyph glyph-name="uni01CD" unicode="&#x1cd;" horiz-adv-x="1325" 
d="M33 0l528 1434h203l528 -1434h-190l-129 358h-621l-129 -358h-190zM326 1880h182l156 -188l155 188h182l-253 -303h-168zM410 522h505l-249 695h-7z" />
    <glyph glyph-name="uni01CE" unicode="&#x1ce;" horiz-adv-x="1110" 
d="M438 -25q-146 0 -234.5 77t-88.5 200q0 119 86.5 195.5t251.5 99.5l327 45v20q0 222 -225 222q-104 0 -160.5 -47t-62.5 -134h-185q11 156 120.5 245t293.5 89q190 0 293.5 -98t103.5 -277v-612h-161l-13 131h-6q-47 -69 -139.5 -112.5t-200.5 -43.5zM227 1401h172
l148 -178l147 178h172l-239 -287h-160zM299 258q0 -62 46.5 -97.5t131.5 -35.5q133 0 218 82t85 207v41l-268 -37q-213 -28 -213 -160z" />
    <glyph glyph-name="uni01E2" unicode="&#x1e2;" horiz-adv-x="2064" 
d="M25 0l929 1434h975v-172h-684v-455h627v-172h-627v-463h684v-172h-872v375h-576l-237 -375h-219zM586 539h471v723h-13zM1098 1645v147h569v-147h-569z" />
    <glyph glyph-name="uni01E3" unicode="&#x1e3;" horiz-adv-x="1830" 
d="M467 -25q-166 0 -259 77.5t-93 207.5q0 143 115 226t335 83h236v31q0 122 -57 178t-177 56q-222 0 -235 -181h-185q11 156 122.5 245t303.5 89q254 0 342 -166h7q66 80 161 123t205 43q196 0 322.5 -130t126.5 -341q0 -38 -6 -78h-746q10 -147 93.5 -227t205.5 -80
q90 0 158.5 39.5t105.5 112.5h172q-38 -141 -159 -224.5t-283 -83.5q-126 0 -233 56t-164 153h-7q-51 -97 -159 -153t-248 -56zM299 268q0 -67 47.5 -103t138.5 -36q141 0 228.5 81.5t87.5 207.5v8h-238q-264 0 -264 -158zM668 1178v139h536v-139h-536zM993 580h561
q-17 127 -87.5 190.5t-178.5 63.5q-113 0 -192 -66t-103 -188z" />
    <glyph glyph-name="Gcaron" unicode="&#x1e6;" horiz-adv-x="1599" 
d="M797 -25q-193 0 -350 92.5t-247.5 262t-90.5 385.5q0 162 53.5 301t147.5 236t226 151.5t285 54.5q248 0 422 -133.5t213 -361.5h-196q-29 152 -146 238.5t-289 86.5q-232 0 -378 -155t-146 -416q0 -260 144.5 -416t369.5 -156q190 0 318 114.5t151 313.5h-444v168h616
v-741h-149l-23 213h-6q-70 -113 -197.5 -175.5t-283.5 -62.5zM481 1880h183l155 -188l156 188h182l-254 -303h-168z" />
    <glyph glyph-name="gcaron" unicode="&#x1e7;" horiz-adv-x="1026" 
d="M510 -483q-226 0 -343.5 76.5t-117.5 211.5q0 73 35.5 129.5t101.5 88.5q-96 58 -96 167q0 69 40 121t106 76q-101 98 -101 248q0 155 106.5 253.5t278.5 98.5h481v-110l-178 -15q82 -91 82 -227q0 -155 -106.5 -253.5t-278.5 -98.5q-92 0 -174 32q-41 -8 -66.5 -34.5
t-25.5 -63.5q0 -40 31 -62t88 -22h311q152 0 234.5 -74t82.5 -209q0 -158 -122.5 -245.5t-368.5 -87.5zM213 1401h172l147 -178l148 178h172l-240 -287h-159zM221 -168q0 -162 301 -162q307 0 307 176q0 64 -42.5 96.5t-139.5 32.5h-270q-70 0 -113 -40t-43 -103zM303 635
q0 -95 58.5 -152t158.5 -57t158.5 57t58.5 152q0 96 -58.5 153.5t-158.5 57.5t-158.5 -57.5t-58.5 -153.5z" />
    <glyph glyph-name="uni01E8" unicode="&#x1e8;" horiz-adv-x="1288" 
d="M197 0v1434h188v-666h6l623 666h233l-669 -713l686 -721h-250l-623 653h-6v-653h-188zM334 1880h182l156 -188l155 188h183l-254 -303h-168z" />
    <glyph glyph-name="uni01E9" unicode="&#x1e9;" horiz-adv-x="1034" 
d="M160 0v1434h180v-883h4l428 412h232l-474 -455l486 -508h-236l-434 457h-6v-457h-180zM-70 1872h172l148 -178l147 178h172l-239 -287h-160z" />
    <glyph glyph-name="AEacute" unicode="&#x1fc;" horiz-adv-x="2064" 
d="M25 0l929 1434h975v-172h-684v-455h627v-172h-627v-463h684v-172h-872v375h-576l-237 -375h-219zM586 539h471v723h-13zM1260 1577l145 303h235l-215 -303h-165z" />
    <glyph glyph-name="aeacute" unicode="&#x1fd;" horiz-adv-x="1830" 
d="M467 -25q-166 0 -259 77.5t-93 207.5q0 143 115 226t335 83h236v31q0 122 -57 178t-177 56q-222 0 -235 -181h-185q11 156 122.5 245t303.5 89q254 0 342 -166h7q66 80 161 123t205 43q196 0 322.5 -130t126.5 -341q0 -38 -6 -78h-746q10 -147 93.5 -227t205.5 -80
q90 0 158.5 39.5t105.5 112.5h172q-38 -141 -159 -224.5t-283 -83.5q-126 0 -233 56t-164 153h-7q-51 -97 -159 -153t-248 -56zM299 268q0 -67 47.5 -103t138.5 -36q141 0 228.5 81.5t87.5 207.5v8h-238q-264 0 -264 -158zM823 1114l138 287h223l-203 -287h-158zM993 580
h561q-17 127 -87.5 190.5t-178.5 63.5q-113 0 -192 -66t-103 -188z" />
    <glyph glyph-name="Oslashacute" unicode="&#x1fe;" horiz-adv-x="1658" 
d="M829 -25q-266 0 -462 166l-156 -155l-113 112l162 162q-137 196 -137 457q0 214 91.5 383.5t252.5 263.5t362 94q267 0 463 -166l156 156l113 -113l-162 -161q137 -196 137 -457q0 -214 -91.5 -383.5t-253 -264t-362.5 -94.5zM315 717q0 -186 80 -324l770 770
q-135 123 -336 123q-226 0 -370 -155.5t-144 -413.5zM494 270q135 -123 335 -123q226 0 370 156t144 414q0 187 -79 323zM707 1577l145 303h235l-215 -303h-165z" />
    <glyph glyph-name="oslashacute" unicode="&#x1ff;" horiz-adv-x="1202" 
d="M602 -25q-174 0 -309 101l-135 -135l-97 96l138 137q-93 137 -93 307q0 222 140.5 364t355.5 142q176 0 309 -100l133 133l97 -96l-135 -136q92 -136 92 -307q0 -222 -140.5 -364t-355.5 -142zM285 481q0 -108 41 -188l475 475q-82 70 -199 70q-139 0 -228 -98.5
t-89 -258.5zM403 195q82 -70 199 -70q139 0 228.5 98t89.5 258q0 109 -41 189zM489 1114l138 287h223l-203 -287h-158z" />
    <glyph glyph-name="uni0218" unicode="&#x218;" horiz-adv-x="1220" 
d="M621 -25q-227 0 -374 129.5t-153 346.5h193q13 -149 104.5 -227.5t235.5 -78.5q141 0 227 71t86 183q0 88 -68 143.5t-239 92.5l-131 29q-387 84 -387 376q0 183 138 300.5t355 117.5q213 0 348 -115.5t154 -318.5h-192q-20 133 -101.5 198.5t-212.5 65.5
q-137 0 -218 -65.5t-81 -173.5q0 -88 67 -140.5t238 -89.5l131 -28q203 -45 296 -137.5t93 -237.5q0 -195 -142.5 -318t-366.5 -123zM465 -279q0 48 36 82.5t89 34.5q63 0 104 -49.5t41 -136.5q0 -91 -49 -168h-113q41 61 41 123q-20 -4 -32 -4q-51 0 -84 33.5t-33 84.5z
" />
    <glyph glyph-name="uni0219" unicode="&#x219;" horiz-adv-x="946" 
d="M485 -25q-175 0 -281.5 85t-117.5 231h180q10 -82 68.5 -126t152.5 -44q93 0 149 41t56 106q0 53 -44 86t-150 54l-117 22q-281 55 -281 262q0 130 102.5 212.5t276.5 82.5q163 0 261 -75.5t110 -213.5h-180q-8 68 -59.5 106t-141.5 38q-91 0 -143 -38t-52 -102
q0 -47 40 -76t153 -51l117 -22q146 -28 214 -93.5t68 -176.5q0 -138 -102 -223t-279 -85zM324 -279q0 48 36 82.5t89 34.5q63 0 104 -49.5t41 -136.5q0 -91 -49 -168h-113q41 61 41 123q-20 -4 -33 -4q-51 0 -83.5 33.5t-32.5 84.5z" />
    <glyph glyph-name="uni021A" unicode="&#x21a;" horiz-adv-x="1155" 
d="M483 0v1262h-438v172h1065v-172h-438v-1262h-189zM442 -279q0 48 36 82.5t89 34.5q64 0 105 -49.5t41 -136.5q0 -91 -49 -168h-113q41 61 41 123q-20 -4 -33 -4q-51 0 -84 33.5t-33 84.5z" />
    <glyph glyph-name="uni021B" unicode="&#x21b;" horiz-adv-x="739" 
d="M541 -25q-170 0 -251 84.5t-81 276.5v473h-176v154h176v243h180v-243h273v-154h-273v-473q0 -119 42.5 -163t146.5 -44q51 0 92 8v-147q-58 -15 -129 -15zM313 -279q0 48 36 82.5t89 34.5q64 0 105 -49.5t41 -136.5q0 -91 -49 -168h-113q41 61 41 123q-20 -4 -33 -4
q-51 0 -84 33.5t-33 84.5z" />
    <glyph glyph-name="uni0237" unicode="&#x237;" horiz-adv-x="499" 
d="M63 -483q-55 0 -100 10v149q32 -4 62 -4q73 0 104 34t31 122v1135h180v-1135q0 -164 -67 -237.5t-210 -73.5z" />
    <glyph glyph-name="circumflex" unicode="&#x2c6;" horiz-adv-x="1228" 
d="M295 1114l240 287h159l240 -287h-172l-148 178l-147 -178h-172z" />
    <glyph glyph-name="caron" unicode="&#x2c7;" horiz-adv-x="1228" 
d="M535 1114l-240 287h172l147 -178l148 178h172l-240 -287h-159z" />
    <glyph glyph-name="breve" unicode="&#x2d8;" horiz-adv-x="1228" 
d="M614 1114q-130 0 -203 71.5t-73 196.5v11h147q0 -158 129 -158t129 158h148v-11q0 -125 -73.5 -196.5t-203.5 -71.5z" />
    <glyph glyph-name="dotaccent" unicode="&#x2d9;" horiz-adv-x="1228" 
d="M614 1135q-51 0 -86.5 35t-35.5 87t35.5 87.5t86.5 35.5t87 -35.5t36 -87.5t-36 -87t-87 -35z" />
    <glyph glyph-name="ring" unicode="&#x2da;" horiz-adv-x="1228" 
d="M614 1100q-92 0 -154.5 59.5t-62.5 147.5t62.5 147t154.5 59t154.5 -59t62.5 -147t-62.5 -147.5t-154.5 -59.5zM524 1307q0 -39 24.5 -64.5t65.5 -25.5t66 25.5t25 64.5t-25 64.5t-66 25.5t-65.5 -25.5t-24.5 -64.5z" />
    <glyph glyph-name="ogonek" unicode="&#x2db;" horiz-adv-x="1228" 
d="M684 -438q-105 0 -167 52t-62 140q0 91 66.5 167t187.5 112l65 -33q-87 -66 -123.5 -117t-36.5 -98q0 -80 97 -80q32 0 63 8v-141q-45 -10 -90 -10z" />
    <glyph glyph-name="tilde" unicode="&#x2dc;" horiz-adv-x="1228" 
d="M754 1110q-90 0 -179 102q-60 68 -96 68q-67 0 -67 -154h-125q0 137 52 209t138 72q92 0 178 -102q58 -68 97 -68q67 0 67 154h125q0 -137 -52 -209t-138 -72z" />
    <glyph glyph-name="hungarumlaut" unicode="&#x2dd;" horiz-adv-x="1228" 
d="M670 1114l121 287h184l-170 -287h-135zM348 1114l121 287h184l-170 -287h-135z" />
    <glyph glyph-name="gravecomb" unicode="&#x300;" 
d="M594 1114l-203 287h223l138 -287h-158z" />
    <glyph glyph-name="acutecomb" unicode="&#x301;" 
d="M461 1114l137 287h223l-203 -287h-157z" />
    <glyph glyph-name="uni0302" unicode="&#x302;" 
d="M295 1114l240 287h159l240 -287h-172l-148 178l-147 -178h-172z" />
    <glyph glyph-name="tildecomb" unicode="&#x303;" 
d="M754 1110q-90 0 -179 102q-60 68 -96 68q-67 0 -67 -154h-125q0 137 52 209t138 72q92 0 178 -102q58 -68 97 -68q67 0 67 154h125q0 -137 -52 -209t-138 -72z" />
    <glyph glyph-name="uni0304" unicode="&#x304;" 
d="M346 1178v139h537v-139h-537z" />
    <glyph glyph-name="uni0306" unicode="&#x306;" 
d="M614 1114q-130 0 -203 71.5t-73 196.5v11h147q0 -158 129 -158t129 158h148v-11q0 -125 -73.5 -196.5t-203.5 -71.5z" />
    <glyph glyph-name="uni0307" unicode="&#x307;" 
d="M614 1135q-51 0 -86.5 35t-35.5 87t35.5 87.5t86.5 35.5t87 -35.5t36 -87.5t-36 -87t-87 -35z" />
    <glyph glyph-name="uni0308" unicode="&#x308;" 
d="M819 1135q-51 0 -87 35t-36 87t36 87.5t87 35.5t87 -35.5t36 -87.5t-36 -87t-87 -35zM287 1257q0 52 36 87.5t87 35.5t86.5 -35.5t35.5 -87.5t-35.5 -87t-86.5 -35t-87 35t-36 87z" />
    <glyph glyph-name="uni030A" unicode="&#x30a;" 
d="M614 1100q-92 0 -154.5 59.5t-62.5 147.5t62.5 147t154.5 59t154.5 -59t62.5 -147t-62.5 -147.5t-154.5 -59.5zM524 1307q0 -39 24.5 -64.5t65.5 -25.5t66 25.5t25 64.5t-25 64.5t-66 25.5t-65.5 -25.5t-24.5 -64.5z" />
    <glyph glyph-name="uni030B" unicode="&#x30b;" 
d="M670 1114l121 287h184l-170 -287h-135zM348 1114l121 287h184l-170 -287h-135z" />
    <glyph glyph-name="uni030C" unicode="&#x30c;" 
d="M535 1114l-240 287h172l147 -178l148 178h172l-240 -287h-159z" />
    <glyph glyph-name="uni0315" unicode="&#x315;" 
d="M508 1026q124 110 121 201q-20 -4 -33 -4q-51 0 -84 33.5t-33 84.5q0 48 36 82.5t89 34.5q64 0 105 -49.5t41 -136.5q0 -180 -179 -314z" />
    <glyph glyph-name="uni0326" unicode="&#x326;" 
d="M588 -516q41 61 41 123q-20 -4 -33 -4q-51 0 -84 33.5t-33 84.5q0 48 36 82.5t89 34.5q64 0 105 -49.5t41 -136.5q0 -89 -50 -168h-112z" />
    <glyph glyph-name="uni0327" unicode="&#x327;" 
d="M528 -463q-42 0 -88 6v129q29 -4 76 -4q123 0 123 68q0 29 -34.5 43t-137.5 14l16 207h127l-2 -109q85 -9 131.5 -52t46.5 -115q0 -86 -66.5 -136.5t-191.5 -50.5z" />
    <glyph glyph-name="uni0328" unicode="&#x328;" 
d="M684 -438q-105 0 -167 52t-62 140q0 91 66.5 167t187.5 112l65 -33q-87 -66 -123.5 -117t-36.5 -98q0 -80 97 -80q32 0 63 8v-141q-45 -10 -90 -10z" />
    <glyph glyph-name="uni03BC" unicode="&#x3bc;" horiz-adv-x="1148" 
d="M160 -459v1422h180v-545q0 -279 227 -279q111 0 176.5 77t65.5 222v525h180v-963h-162l-12 129h-6q-98 -154 -258 -154q-134 0 -211 107v-541h-180z" />
    <glyph glyph-name="pi" unicode="&#x3c0;" horiz-adv-x="1155" 
d="M160 0v963h776v-676q0 -66 28 -96.5t87 -30.5h51v-160h-76q-270 0 -270 266v537h-416v-803h-180z" />
    <glyph glyph-name="uni1E20" unicode="&#x1e20;" horiz-adv-x="1599" 
d="M797 -25q-193 0 -350 92.5t-247.5 262t-90.5 385.5q0 162 53.5 301t147.5 236t226 151.5t285 54.5q248 0 422 -133.5t213 -361.5h-196q-29 152 -146 238.5t-289 86.5q-232 0 -378 -155t-146 -416q0 -260 144.5 -416t369.5 -156q190 0 318 114.5t151 313.5h-444v168h616
v-741h-149l-23 213h-6q-70 -113 -197.5 -175.5t-283.5 -62.5zM535 1645v147h569v-147h-569z" />
    <glyph glyph-name="uni1E21" unicode="&#x1e21;" horiz-adv-x="1026" 
d="M510 -483q-226 0 -343.5 76.5t-117.5 211.5q0 73 35.5 129.5t101.5 88.5q-96 58 -96 167q0 69 40 121t106 76q-101 98 -101 248q0 155 106.5 253.5t278.5 98.5h481v-110l-178 -15q82 -91 82 -227q0 -155 -106.5 -253.5t-278.5 -98.5q-92 0 -174 32q-41 -8 -66.5 -34.5
t-25.5 -63.5q0 -40 31 -62t88 -22h311q152 0 234.5 -74t82.5 -209q0 -158 -122.5 -245.5t-368.5 -87.5zM221 -168q0 -162 301 -162q307 0 307 176q0 64 -42.5 96.5t-139.5 32.5h-270q-70 0 -113 -40t-43 -103zM264 1178v139h537v-139h-537zM303 635q0 -95 58.5 -152
t158.5 -57t158.5 57t58.5 152q0 96 -58.5 153.5t-158.5 57.5t-158.5 -57.5t-58.5 -153.5z" />
    <glyph glyph-name="uni1E30" unicode="&#x1e30;" horiz-adv-x="1288" 
d="M197 0v1434h188v-666h6l623 666h233l-669 -713l686 -721h-250l-623 653h-6v-653h-188zM549 1577l145 303h236l-215 -303h-166z" />
    <glyph glyph-name="uni1E31" unicode="&#x1e31;" horiz-adv-x="1034" 
d="M160 0v1434h180v-883h4l428 412h232l-474 -455l486 -508h-236l-434 457h-6v-457h-180zM137 1585l137 287h224l-203 -287h-158z" />
    <glyph glyph-name="uni1E3E" unicode="&#x1e3e;" horiz-adv-x="1878" 
d="M197 0v1434h204l535 -1182h6l535 1182h204v-1434h-184v1042h-6l-479 -1042h-146l-479 1042h-6v-1042h-184zM817 1577l146 303h235l-215 -303h-166z" />
    <glyph glyph-name="uni1E3F" unicode="&#x1e3f;" horiz-adv-x="1757" 
d="M160 0v963h162l12 -129h6q45 71 126.5 112t174.5 41q98 0 174 -46t115 -134h6q48 81 137.5 130.5t196.5 49.5q152 0 244 -100.5t92 -278.5v-608h-181v547q0 146 -51 213t-151 67q-113 0 -181.5 -78.5t-68.5 -220.5v-528h-180v547q0 147 -50.5 213.5t-150.5 66.5
q-113 0 -182.5 -78t-69.5 -221v-528h-180zM766 1114l137 287h223l-202 -287h-158z" />
    <glyph glyph-name="uni1E40" unicode="&#x1e40;" horiz-adv-x="1878" 
d="M197 0v1434h204l535 -1182h6l535 1182h204v-1434h-184v1042h-6l-479 -1042h-146l-479 1042h-6v-1042h-184zM809 1729q0 55 38.5 93t92.5 38t92.5 -38t38.5 -93t-38.5 -93.5t-92.5 -38.5t-92.5 38.5t-38.5 93.5z" />
    <glyph glyph-name="uni1E41" unicode="&#x1e41;" horiz-adv-x="1757" 
d="M160 0v963h162l12 -129h6q45 71 126.5 112t174.5 41q98 0 174 -46t115 -134h6q48 81 137.5 130.5t196.5 49.5q152 0 244 -100.5t92 -278.5v-608h-181v547q0 146 -51 213t-151 67q-113 0 -181.5 -78.5t-68.5 -220.5v-528h-180v547q0 147 -50.5 213.5t-150.5 66.5
q-113 0 -182.5 -78t-69.5 -221v-528h-180zM756 1257q0 52 36 87.5t87 35.5t86.5 -35.5t35.5 -87.5t-35.5 -87t-86.5 -35t-87 35t-36 87z" />
    <glyph glyph-name="uni1E44" unicode="&#x1e44;" horiz-adv-x="1529" 
d="M197 0v1434h198l744 -1129h6v1129h188v-1434h-198l-744 1128h-6v-1128h-188zM635 1729q0 55 38.5 93t92.5 38t92.5 -38t38.5 -93t-38.5 -93.5t-92.5 -38.5t-92.5 38.5t-38.5 93.5z" />
    <glyph glyph-name="uni1E45" unicode="&#x1e45;" horiz-adv-x="1153" 
d="M160 0v963h162l12 -129h6q46 72 128.5 112.5t184.5 40.5q160 0 254 -100t94 -279v-608h-180v539q0 155 -54 221.5t-163 66.5q-123 0 -193.5 -77t-70.5 -226v-524h-180zM461 1257q0 52 36 87.5t87 35.5t87 -35.5t36 -87.5t-36 -87t-87 -35t-87 35t-36 87z" />
    <glyph glyph-name="Wgrave" unicode="&#x1e80;" horiz-adv-x="2050" 
d="M487 0l-444 1434h190l351 -1145h6l344 1145h182l344 -1145h6l351 1145h190l-444 -1434h-189l-346 1159h-6l-346 -1159h-189zM760 1880h235l146 -303h-166z" />
    <glyph glyph-name="wgrave" unicode="&#x1e81;" horiz-adv-x="1613" 
d="M367 0l-322 963h186l232 -732h6l256 732h164l256 -732h6l231 732h187l-322 -963h-184l-254 727h-4l-254 -727h-184zM551 1401h223l137 -287h-157z" />
    <glyph glyph-name="Wacute" unicode="&#x1e82;" horiz-adv-x="2050" 
d="M487 0l-444 1434h190l351 -1145h6l344 1145h182l344 -1145h6l351 1145h190l-444 -1434h-189l-346 1159h-6l-346 -1159h-189zM903 1577l146 303h235l-215 -303h-166z" />
    <glyph glyph-name="wacute" unicode="&#x1e83;" horiz-adv-x="1613" 
d="M367 0l-322 963h186l232 -732h6l256 732h164l256 -732h6l231 732h187l-322 -963h-184l-254 727h-4l-254 -727h-184zM694 1114l137 287h224l-203 -287h-158z" />
    <glyph glyph-name="Wdieresis" unicode="&#x1e84;" horiz-adv-x="2050" 
d="M487 0l-444 1434h190l351 -1145h6l344 1145h182l344 -1145h6l351 1145h190l-444 -1434h-189l-346 1159h-6l-346 -1159h-189zM678 1729q0 55 38.5 93t92.5 38t92.5 -38t38.5 -93t-38.5 -93.5t-92.5 -38.5t-92.5 38.5t-38.5 93.5zM1112 1729q0 55 38.5 93t92.5 38t92.5 -38
t38.5 -93t-38.5 -93.5t-92.5 -38.5t-92.5 38.5t-38.5 93.5z" />
    <glyph glyph-name="wdieresis" unicode="&#x1e85;" horiz-adv-x="1613" 
d="M367 0l-322 963h186l232 -732h6l256 732h164l256 -732h6l231 732h187l-322 -963h-184l-254 727h-4l-254 -727h-184zM479 1257q0 52 36 87.5t87 35.5t87 -35.5t36 -87.5t-36 -87t-87 -35t-87 35t-36 87zM889 1257q0 52 36 87.5t87 35.5t87 -35.5t36 -87.5t-36 -87t-87 -35
t-87 35t-36 87z" />
    <glyph glyph-name="uni1E90" unicode="&#x1e90;" horiz-adv-x="1175" 
d="M102 0v143l727 1119h-710v172h938v-144l-727 -1118h743v-172h-971zM246 1577l254 303h168l254 -303h-183l-155 188l-156 -188h-182z" />
    <glyph glyph-name="uni1E91" unicode="&#x1e91;" horiz-adv-x="913" 
d="M78 0v119l520 690h-512v154h737v-119l-518 -688h531v-156h-758zM137 1114l240 287h160l239 -287h-172l-147 178l-148 -178h-172z" />
    <glyph glyph-name="uni1E9E" unicode="&#x1e9e;" horiz-adv-x="1421" 
d="M852 -25q-112 0 -221 23v172q98 -23 200 -23q308 0 308 240q0 122 -83.5 179t-269.5 57h-90v157l334 408q-103 100 -295 100q-189 0 -279.5 -93.5t-90.5 -291.5v-903h-189v903q0 274 143.5 414.5t405.5 140.5q183 0 319.5 -65.5t219.5 -186.5l-353 -430q420 -38 420 -391
q0 -192 -124 -301t-355 -109z" />
    <glyph glyph-name="Ygrave" unicode="&#x1ef2;" horiz-adv-x="1277" 
d="M545 0v563l-529 871h213l408 -695h4l408 695h213l-529 -871v-563h-188zM373 1880h235l146 -303h-166z" />
    <glyph glyph-name="ygrave" unicode="&#x1ef3;" horiz-adv-x="1021" 
d="M231 -459l189 459l-395 963h190l293 -748h6l297 748h186l-583 -1422h-183zM256 1401h223l137 -287h-157z" />
    <glyph glyph-name="uni2000" unicode="&#x2000;" horiz-adv-x="1024" 
 />
    <glyph glyph-name="uni2001" unicode="&#x2001;" horiz-adv-x="2048" 
 />
    <glyph glyph-name="uni2002" unicode="&#x2002;" horiz-adv-x="1024" 
 />
    <glyph glyph-name="uni2003" unicode="&#x2003;" horiz-adv-x="2048" 
 />
    <glyph glyph-name="uni2009" unicode="&#x2009;" horiz-adv-x="307" 
 />
    <glyph glyph-name="uni200A" unicode="&#x200a;" horiz-adv-x="204" 
 />
    <glyph glyph-name="uni200B" unicode="&#x200b;" 
 />
    <glyph glyph-name="endash" unicode="&#x2013;" horiz-adv-x="1024" 
d="M0 487v160h1024v-160h-1024z" />
    <glyph glyph-name="emdash" unicode="&#x2014;" horiz-adv-x="2048" 
d="M0 487v160h2048v-160h-2048z" />
    <glyph glyph-name="quoteleft" unicode="&#x2018;" horiz-adv-x="454" 
d="M238 958q-64 0 -105 50t-41 137q0 180 178 313l64 -67q-120 -106 -117 -201q16 4 29 4q51 0 83.5 -34t32.5 -85q0 -48 -35.5 -82.5t-88.5 -34.5z" />
    <glyph glyph-name="quoteright" unicode="&#x2019;" horiz-adv-x="454" 
d="M217 1458q63 0 104 -49.5t41 -136.5q0 -181 -178 -314l-63 68q120 106 117 201q-16 -4 -29 -4q-51 0 -84 33.5t-33 84.5q0 48 36 82.5t89 34.5z" />
    <glyph glyph-name="quotesinglbase" unicode="&#x201a;" horiz-adv-x="524" 
d="M252 236q63 0 104 -50t41 -137q0 -180 -178 -313l-63 67q64 57 91 104.5t25 96.5q-16 -4 -28 -4q-51 0 -84 34t-33 85q0 48 36 82.5t89 34.5z" />
    <glyph glyph-name="quotedblleft" unicode="&#x201c;" horiz-adv-x="806" 
d="M238 958q-64 0 -105 50t-41 137q0 180 178 313l64 -67q-120 -106 -117 -201q16 4 29 4q51 0 83.5 -34t32.5 -85q0 -48 -35.5 -82.5t-88.5 -34.5zM444 1145q0 179 179 313l63 -67q-120 -106 -117 -201q16 4 29 4q51 0 84 -34t33 -85q0 -48 -36 -82.5t-89 -34.5
q-64 0 -105 50t-41 137z" />
    <glyph glyph-name="quotedblright" unicode="&#x201d;" horiz-adv-x="806" 
d="M569 1458q64 0 105 -49.5t41 -136.5q0 -181 -178 -314l-64 68q120 106 117 201q-16 -4 -29 -4q-51 0 -84 33.5t-33 84.5q0 48 36 82.5t89 34.5zM92 1341q0 48 36 82.5t89 34.5q63 0 104 -49.5t41 -136.5q0 -181 -178 -314l-63 68q120 106 117 201q-16 -4 -29 -4
q-51 0 -84 33.5t-33 84.5z" />
    <glyph glyph-name="quotedblbase" unicode="&#x201e;" horiz-adv-x="876" 
d="M604 236q64 0 105 -50t41 -137q0 -179 -179 -313l-63 67q120 106 117 201q-16 -4 -29 -4q-51 0 -84 34t-33 85q0 48 36 82.5t89 34.5zM127 119q0 48 36 82.5t89 34.5q63 0 104 -50t41 -137q0 -180 -178 -313l-63 67q64 57 91 104.5t25 96.5q-16 -4 -28 -4q-51 0 -84 34
t-33 85z" />
    <glyph glyph-name="dagger" unicode="&#x2020;" horiz-adv-x="1060" 
d="M444 -262v1139h-352v163h352v480h172v-480h353v-163h-353v-1139h-172z" />
    <glyph glyph-name="daggerdbl" unicode="&#x2021;" horiz-adv-x="1101" 
d="M465 -262v524h-311v164h311v451h-352v163h352v480h172v-480h352v-163h-352v-451h311v-164h-311v-524h-172z" />
    <glyph glyph-name="bullet" unicode="&#x2022;" horiz-adv-x="1060" 
d="M530 412q-130 0 -217.5 88t-87.5 217t87.5 217t217.5 88t218 -88t88 -217t-88 -217t-218 -88z" />
    <glyph glyph-name="ellipsis" unicode="&#x2026;" horiz-adv-x="1495" 
d="M256 -14q-56 0 -92.5 37t-36.5 92t36.5 92t92.5 37t92.5 -37t36.5 -92t-36.5 -92t-92.5 -37zM618 115q0 55 37 92t93 37t92.5 -37t36.5 -92t-36.5 -92t-92.5 -37t-93 37t-37 92zM1110 115q0 55 37 92t92 37t92 -37t37 -92t-37 -92t-92 -37t-92 37t-37 92z" />
    <glyph glyph-name="perthousand" unicode="&#x2030;" horiz-adv-x="2627" 
d="M2183 -25q-153 0 -257.5 106t-104.5 259t104.5 259t257.5 106t258 -106t105 -259t-105 -259t-258 -106zM82 1094q0 153 104.5 258.5t257.5 105.5t258 -105.5t105 -258.5t-105 -259t-258 -106t-257.5 106t-104.5 259zM236 1094q0 -98 57 -161t151 -63t151.5 63t57.5 161
t-57.5 160.5t-151.5 62.5t-151 -62.5t-57 -160.5zM336 0l930 1434h182l-930 -1434h-182zM977 340q0 153 104.5 259t257.5 106t258 -106t105 -259t-105 -259t-258 -106t-257.5 106t-104.5 259zM1130 340q0 -99 57 -161t152 -62t152 62t57 161t-57 161t-152 62t-152 -62
t-57 -161zM1974 340q0 -99 57 -161t152 -62t152 62t57 161t-57 161t-152 62t-152 -62t-57 -161z" />
    <glyph glyph-name="guilsinglleft" unicode="&#x2039;" horiz-adv-x="706" 
d="M399 147l-307 439l307 438h205l-305 -438l305 -439h-205z" />
    <glyph glyph-name="guilsinglright" unicode="&#x203a;" horiz-adv-x="706" 
d="M307 147h-205l306 439l-306 438h205l307 -438z" />
    <glyph glyph-name="fraction" unicode="&#x2044;" horiz-adv-x="1112" 
d="M0 0l930 1434h182l-930 -1434h-182z" />
    <glyph glyph-name="uni2070" unicode="&#x2070;" horiz-adv-x="821" 
d="M410 541q-155 0 -239.5 87t-84.5 246v250q0 159 84.5 246.5t239.5 87.5q156 0 240.5 -87.5t84.5 -246.5v-250q0 -159 -84.5 -246t-240.5 -87zM246 866q0 -89 43 -134.5t121 -45.5q79 0 122 45.5t43 134.5v267q0 89 -43 134.5t-122 45.5q-78 0 -121 -45.5t-43 -134.5v-267
z" />
    <glyph glyph-name="uni2074" unicode="&#x2074;" horiz-adv-x="804" 
d="M498 545v168h-428v127l387 594h190v-584h109v-137h-109v-168h-149zM233 850h265v405z" />
    <glyph glyph-name="uni2075" unicode="&#x2075;" horiz-adv-x="778" 
d="M393 530q-131 0 -215.5 74t-87.5 201h160q4 -59 45.5 -94t101.5 -35q68 0 112 45.5t44 118.5q0 71 -42.5 112t-109.5 41q-92 0 -143 -67h-156l60 508h495v-146h-360l-27 -213q70 49 164 49q121 0 199 -79.5t78 -210.5q0 -136 -88.5 -220t-229.5 -84z" />
    <glyph glyph-name="uni2076" unicode="&#x2076;" horiz-adv-x="790" 
d="M395 530q-136 0 -229.5 91.5t-93.5 228.5q0 112 98 256l219 328h189l-193 -285q12 2 37 2q125 0 212 -85.5t87 -215.5q0 -135 -94 -227.5t-232 -92.5zM229 848q0 -74 48.5 -123t119.5 -49t117.5 48.5t46.5 123.5t-46.5 122.5t-117.5 47.5t-119.5 -48t-48.5 -122z" />
    <glyph glyph-name="uni2077" unicode="&#x2077;" horiz-adv-x="677" 
d="M119 545l321 739h-391v150h572v-146l-312 -743h-190z" />
    <glyph glyph-name="uni2078" unicode="&#x2078;" horiz-adv-x="786" 
d="M393 541q-145 0 -230 71.5t-85 184.5q0 73 37.5 131t107.5 88q-65 31 -98 83.5t-33 114.5q0 105 84.5 174.5t216.5 69.5q133 0 217 -70t84 -174q0 -63 -33 -114.5t-98 -83.5q70 -31 108 -88t38 -131q0 -113 -85.5 -184.5t-230.5 -71.5zM238 811q0 -60 44.5 -97.5
t110.5 -37.5q67 0 111.5 38t44.5 97q0 60 -44 97.5t-112 37.5t-111.5 -37.5t-43.5 -97.5zM250 1198q0 -56 39 -91.5t104 -35.5t104.5 35.5t39.5 91.5q0 57 -40.5 93t-103.5 36t-103 -36t-40 -93z" />
    <glyph glyph-name="uni2079" unicode="&#x2079;" horiz-adv-x="790" 
d="M215 555l193 285q-12 -2 -37 -2q-125 0 -212 85.5t-87 215.5q0 135 93.5 227t231.5 92q136 0 230 -91t94 -228q0 -112 -98 -256l-220 -328h-188zM231 1141q0 -75 46.5 -122.5t117.5 -47.5t119.5 48t48.5 122t-48.5 123t-119.5 49t-117.5 -48.5t-46.5 -123.5z" />
    <glyph glyph-name="Euro" unicode="&#x20ac;" horiz-adv-x="1310" 
d="M784 -25q-196 0 -335 137t-179 388h-180v127h166q-2 25 -2 78q0 36 4 102h-168v127h184q48 251 191.5 387.5t337.5 136.5q174 0 292.5 -110t141.5 -306h-184q-15 129 -81 196t-167 67q-123 0 -218 -96t-132 -275h481v-127h-498q-4 -58 -4 -90q0 -61 2 -90h500v-127h-483
q36 -180 127 -273.5t213 -93.5q108 0 182.5 67.5t89.5 186.5h180q-29 -192 -156 -302t-305 -110z" />
    <glyph glyph-name="uni2116" unicode="&#x2116;" horiz-adv-x="2549" 
d="M197 0v1434h198l744 -1129h6v1129h188v-1434h-198l-744 1128h-6v-1128h-188zM1575 1024q0 190 120.5 312t305.5 122t305.5 -121.5t120.5 -312.5q0 -190 -120.5 -311t-305.5 -121t-305.5 121t-120.5 311zM1683 248v160h635v-160h-635zM1755 1024q0 -125 69.5 -202
t176.5 -77q108 0 178 77.5t70 201.5q0 125 -70 202t-178 77q-107 0 -176.5 -77t-69.5 -202z" />
    <glyph glyph-name="trademark" unicode="&#x2122;" horiz-adv-x="1536" 
d="M692 807v627h152l213 -316l213 316h153v-627h-139v428l-178 -264h-98l-179 264v-428h-137zM72 1300v134h508v-134h-183v-493h-143v493h-182z" />
    <glyph glyph-name="uni2126" unicode="&#x2126;" horiz-adv-x="1671" 
d="M152 0v164h301q-145 95 -223 242t-78 335q0 155 54.5 289.5t147 227.5t218 146.5t264.5 53.5t264.5 -53.5t218 -146.5t147 -227.5t54.5 -289.5q0 -188 -78 -335t-223 -242h301v-164h-572v164q188 81 289.5 224t101.5 349q0 252 -140 406.5t-363 154.5t-363.5 -154.5
t-140.5 -406.5q0 -206 101.5 -349t289.5 -224v-164h-571z" />
    <glyph glyph-name="estimated" unicode="&#x212e;" horiz-adv-x="1720" 
d="M860 0q-145 0 -275.5 52t-228.5 147q-97 94 -151.5 228t-54.5 290q0 155 55 292t151 230q98 92 229 143.5t275 51.5t274.5 -51.5t227.5 -143.5q98 -93 153.5 -230t55.5 -292v-25h-1196v-309q0 -72 20.5 -119t71.5 -84q171 -127 393 -127q172 0 315.5 75t231.5 210l43 -33
q-97 -145 -252 -225t-338 -80zM375 741h981v299q0 71 -20 120.5t-68 86.5q-177 133 -408 133q-222 0 -393 -127q-51 -37 -71.5 -84t-20.5 -120v-308z" />
    <glyph glyph-name="arrowleft" unicode="&#x2190;" horiz-adv-x="1454" 
d="M715 1133l-336 -330h1003v-172h-1003l336 -330l-113 -117l-528 533l528 532z" />
    <glyph glyph-name="arrowup" unicode="&#x2191;" horiz-adv-x="1454" 
d="M311 737l-116 113l532 528l533 -528l-117 -113l-330 336v-1003h-172v1003z" />
    <glyph glyph-name="arrowright" unicode="&#x2192;" horiz-adv-x="1454" 
d="M739 1133l113 116l528 -532l-528 -533l-113 117l336 330h-1003v172h1003z" />
    <glyph glyph-name="arrowdown" unicode="&#x2193;" horiz-adv-x="1454" 
d="M311 696l330 -336v1004h172v-1004l330 336l117 -112l-533 -529l-532 529z" />
    <glyph glyph-name="uni2196" unicode="&#x2196;" horiz-adv-x="1454" 
d="M395 461l-162 -2l3 749l749 2l-2 -161l-471 6l711 -711l-123 -123l-711 711z" />
    <glyph glyph-name="uni2197" unicode="&#x2197;" horiz-adv-x="1454" 
d="M471 1049l-2 161l750 -2l2 -749l-162 2l6 471l-711 -711l-123 123l711 711z" />
    <glyph glyph-name="uni2198" unicode="&#x2198;" horiz-adv-x="1454" 
d="M1059 973l162 2l-2 -750l-750 -2l2 162l471 -6l-711 711l123 122l711 -710z" />
    <glyph glyph-name="uni2199" unicode="&#x2199;" horiz-adv-x="1454" 
d="M983 385l2 -162l-749 2l-3 750l162 -2l-6 -471l711 710l123 -122l-711 -711z" />
    <glyph glyph-name="partialdiff" unicode="&#x2202;" horiz-adv-x="1302" 
d="M635 -25q-237 0 -385 140.5t-148 359.5q0 204 142.5 341.5t359.5 137.5q131 0 236.5 -53t167.5 -153h4q-12 292 -117.5 422t-308.5 130q-149 0 -299 -77v170q140 65 307 65q295 0 445.5 -201t150.5 -579q0 -386 -170 -553q-153 -150 -385 -150zM283 475
q0 -153 96.5 -245.5t255.5 -92.5t255.5 92.5t96.5 245.5q0 145 -97 232.5t-255 87.5t-255 -87.5t-97 -232.5z" />
    <glyph glyph-name="uni2206" unicode="&#x2206;" horiz-adv-x="1394" 
d="M113 0l-62 100l598 1334h96l598 -1334l-61 -100h-1169zM264 164h866l-432 966z" />
    <glyph glyph-name="product" unicode="&#x220f;" horiz-adv-x="1392" 
d="M197 -262v1782h999v-1782h-180v1614h-639v-1614h-180z" />
    <glyph glyph-name="summation" unicode="&#x2211;" horiz-adv-x="1105" 
d="M113 -262v164l522 727l-522 727v164h931v-164h-735l522 -727l-522 -727h735v-164h-931z" />
    <glyph glyph-name="minus" unicode="&#x2212;" horiz-adv-x="1331" 
d="M215 569v160h901v-160h-901z" />
    <glyph glyph-name="radical" unicode="&#x221a;" horiz-adv-x="1290" 
d="M547 -262l-277 764h-219v164h346l238 -678l436 1532h178l-512 -1782h-190z" />
    <glyph glyph-name="infinity" unicode="&#x221e;" horiz-adv-x="1564" 
d="M1116 319q-80 0 -145.5 31t-107 74.5t-81.5 107.5q-30 -47 -60 -82.5t-70 -66.5t-91 -47.5t-112 -16.5q-158 0 -257.5 103.5t-99.5 269.5t99.5 269.5t257.5 103.5q61 0 112 -16.5t91 -47.5t70 -66.5t60 -82.5q40 64 81.5 107.5t107 74.5t145.5 31q158 0 257.5 -103.5
t99.5 -269.5t-99.5 -269.5t-257.5 -103.5zM256 692q0 -101 51 -161t135 -60q44 0 81.5 16.5t68 50.5t52.5 68t50 86q-28 52 -50 86t-52.5 68t-68 50.5t-81.5 16.5q-84 0 -135 -60t-51 -161zM870 692q28 -52 50 -86t52.5 -68t68 -50.5t81.5 -16.5q84 0 135.5 60t51.5 161
t-51.5 161t-135.5 60q-44 0 -81.5 -16.5t-68 -50.5t-52.5 -68t-50 -86z" />
    <glyph glyph-name="integral" unicode="&#x222b;" horiz-adv-x="806" 
d="M51 -262v160h144q60 0 89 27.5t29 88.5v1246q0 137 66.5 198.5t208.5 61.5h168v-160h-144q-118 0 -118 -117v-1245q0 -137 -66.5 -198.5t-208.5 -61.5h-168z" />
    <glyph glyph-name="approxequal" unicode="&#x2248;" horiz-adv-x="1331" 
d="M881 731q-75 0 -214 44t-214 44q-113 0 -238 -84v160q112 82 242 82q72 0 213 -44t209 -44q64 0 127.5 24t109.5 62v-160q-117 -84 -235 -84zM215 324v161q114 82 242 82q72 0 213 -44t209 -44q65 0 129.5 24.5t107.5 61.5v-162q-118 -81 -235 -81q-75 0 -214 44t-214 44
q-113 0 -238 -86z" />
    <glyph glyph-name="notequal" unicode="&#x2260;" horiz-adv-x="1331" 
d="M328 96l127 266h-240v162h317l119 250h-436v162h514l127 266h145l-127 -266h242v-162h-319l-119 -250h438v-162h-516l-127 -266h-145z" />
    <glyph glyph-name="lessequal" unicode="&#x2264;" horiz-adv-x="1331" 
d="M1116 279l-903 350v172l903 352v-172l-704 -266l704 -264v-172zM213 0v160h903v-160h-903z" />
    <glyph glyph-name="greaterequal" unicode="&#x2265;" horiz-adv-x="1331" 
d="M215 279v172l705 264l-705 266v172l901 -352v-172zM215 0v160h901v-160h-901z" />
    <glyph glyph-name="filledbox" unicode="&#x25a0;" horiz-adv-x="1843" 
d="M205 0v1434h1433v-1434h-1433z" />
    <glyph glyph-name="triagup" unicode="&#x25b2;" horiz-adv-x="1843" 
d="M205 0l717 1434l716 -1434h-1433z" />
    <glyph glyph-name="triagdn" unicode="&#x25bc;" horiz-adv-x="1843" 
d="M922 0l-717 1434h1433z" />
    <glyph glyph-name="uni25C6" unicode="&#x25c6;" horiz-adv-x="1843" 
d="M920 0l-715 715l715 719l718 -719z" />
    <glyph glyph-name="lozenge" unicode="&#x25ca;" horiz-adv-x="1290" 
d="M61 717l514 717h140l514 -717l-514 -717h-140zM268 715l375 -525l379 529l-375 524z" />
    <glyph glyph-name="uni25CF" unicode="&#x25cf;" horiz-adv-x="1843" 
d="M922 0q-145 0 -278 57t-229 153t-153 229t-57 278t57 278t153 229t229 153t278 57t278 -57t228.5 -153t152.5 -228.5t57 -278.5t-57 -278.5t-152.5 -228.5t-228.5 -153t-278 -57z" />
    <glyph glyph-name="uni2610" unicode="&#x2610;" horiz-adv-x="1843" 
d="M205 0v1434h1433v-1434h-1433zM358 143h1127v1147h-1127v-1147z" />
    <glyph glyph-name="uni2611" unicode="&#x2611;" horiz-adv-x="1843" 
d="M205 0v1434h1433v-1434h-1433zM358 143h1127v1147h-1127v-1147zM539 471l79 139l185 -108l371 643l133 -76l-451 -780z" />
    <glyph glyph-name="uni2612" unicode="&#x2612;" horiz-adv-x="1843" 
d="M205 0v1434h1433v-1434h-1433zM358 143h1127v1147h-1127v-1147zM506 403l313 314l-313 313l102 103l314 -314l313 314l102 -103l-313 -313l313 -314l-102 -102l-313 313l-314 -313z" />
    <glyph glyph-name="heart" unicode="&#x2665;" horiz-adv-x="1843" 
d="M922 98q-65 63 -150.5 127t-153.5 107t-139 98.5t-118 108.5t-77 130t-30 169q0 97 32 176t84 127.5t115.5 74t130.5 25.5q119 0 205.5 -73t96.5 -205h8q10 132 96 205t205 73q67 0 130.5 -25.5t115.5 -74t84 -127.5t32 -176q0 -92 -30 -169t-77 -130t-117.5 -108.5
t-138.5 -98.5t-153.5 -107t-150.5 -127z" />
    <glyph glyph-name="uni2B51" unicode="&#x2b51;" horiz-adv-x="1843" 
d="M446 -6l183 557l-469 340h581l179 553l178 -555h585l-473 -342l181 -553l-471 344z" />
    <glyph glyph-name="uni004A0301" horiz-adv-x="1236" 
d="M573 -25q-234 0 -360.5 130t-126.5 384v158h188v-145q0 -184 75.5 -269.5t223.5 -85.5q299 0 299 355v760h-606v172h795v-945q0 -254 -127 -384t-361 -130zM535 1577l145 303h235l-215 -303h-165z" />
    <glyph glyph-name="i.loclTRK" horiz-adv-x="499" 
d="M160 0v963h180v-963h-180zM127 1257q0 52 36 87.5t87 35.5t87 -35.5t36 -87.5t-36 -87t-87 -35t-87 35t-36 87z" />
    <glyph glyph-name="uni006A0301" horiz-adv-x="499" 
d="M63 -483q-55 0 -100 10v149q32 -4 62 -4q73 0 104 34t31 122v1135h180v-1135q0 -164 -67 -237.5t-210 -73.5zM137 1114l96 287h224l-162 -287h-158z" />
    <glyph glyph-name="a.ss01" horiz-adv-x="1226" 
d="M561 -25q-197 0 -329 142.5t-132 363.5t132 363.5t329 142.5q106 0 195 -42.5t131 -110.5h6l12 129h162v-963h-162l-12 129h-6q-42 -68 -131 -111t-195 -43zM285 481q0 -161 85 -255.5t222 -94.5q139 0 223 94.5t84 255.5t-84 255.5t-223 94.5q-137 0 -222 -94.5
t-85 -255.5z" />
    <glyph glyph-name="aacute.ss01" horiz-adv-x="1226" 
d="M561 -25q-197 0 -329 142.5t-132 363.5t132 363.5t329 142.5q106 0 195 -42.5t131 -110.5h6l12 129h162v-963h-162l-12 129h-6q-42 -68 -131 -111t-195 -43zM285 481q0 -161 85 -255.5t222 -94.5q139 0 223 94.5t84 255.5t-84 255.5t-223 94.5q-137 0 -222 -94.5
t-85 -255.5zM506 1114l137 287h223l-202 -287h-158z" />
    <glyph glyph-name="abreve.ss01" horiz-adv-x="1226" 
d="M561 -25q-197 0 -329 142.5t-132 363.5t132 363.5t329 142.5q106 0 195 -42.5t131 -110.5h6l12 129h162v-963h-162l-12 129h-6q-42 -68 -131 -111t-195 -43zM285 481q0 -161 85 -255.5t222 -94.5q139 0 223 94.5t84 255.5t-84 255.5t-223 94.5q-137 0 -222 -94.5
t-85 -255.5zM342 1382v11h147q0 -158 129 -158q62 0 96 39t34 119h147v-11q0 -125 -73.5 -196.5t-203.5 -71.5t-203 71.5t-73 196.5z" />
    <glyph glyph-name="uni01CE.ss01" horiz-adv-x="1226" 
d="M561 -25q-197 0 -329 142.5t-132 363.5t132 363.5t329 142.5q106 0 195 -42.5t131 -110.5h6l12 129h162v-963h-162l-12 129h-6q-42 -68 -131 -111t-195 -43zM285 481q0 -161 85 -255.5t222 -94.5q139 0 223 94.5t84 255.5t-84 255.5t-223 94.5q-137 0 -222 -94.5
t-85 -255.5zM299 1401h172l147 -178l148 178h172l-240 -287h-159z" />
    <glyph glyph-name="acircumflex.ss01" horiz-adv-x="1226" 
d="M561 -25q-197 0 -329 142.5t-132 363.5t132 363.5t329 142.5q106 0 195 -42.5t131 -110.5h6l12 129h162v-963h-162l-12 129h-6q-42 -68 -131 -111t-195 -43zM285 481q0 -161 85 -255.5t222 -94.5q139 0 223 94.5t84 255.5t-84 255.5t-223 94.5q-137 0 -222 -94.5
t-85 -255.5zM299 1114l240 287h159l240 -287h-172l-148 178l-147 -178h-172z" />
    <glyph glyph-name="adieresis.ss01" horiz-adv-x="1226" 
d="M561 -25q-197 0 -329 142.5t-132 363.5t132 363.5t329 142.5q106 0 195 -42.5t131 -110.5h6l12 129h162v-963h-162l-12 129h-6q-42 -68 -131 -111t-195 -43zM285 481q0 -161 85 -255.5t222 -94.5q139 0 223 94.5t84 255.5t-84 255.5t-223 94.5q-137 0 -222 -94.5
t-85 -255.5zM291 1257q0 52 36 87.5t87 35.5t87 -35.5t36 -87.5t-36 -87t-87 -35t-87 35t-36 87zM700 1257q0 52 36 87.5t87 35.5t87 -35.5t36 -87.5t-36 -87t-87 -35t-87 35t-36 87z" />
    <glyph glyph-name="agrave.ss01" horiz-adv-x="1226" 
d="M561 -25q-197 0 -329 142.5t-132 363.5t132 363.5t329 142.5q106 0 195 -42.5t131 -110.5h6l12 129h162v-963h-162l-12 129h-6q-42 -68 -131 -111t-195 -43zM285 481q0 -161 85 -255.5t222 -94.5q139 0 223 94.5t84 255.5t-84 255.5t-223 94.5q-137 0 -222 -94.5
t-85 -255.5zM362 1401h224l137 -287h-158z" />
    <glyph glyph-name="amacron.ss01" horiz-adv-x="1226" 
d="M561 -25q-197 0 -329 142.5t-132 363.5t132 363.5t329 142.5q106 0 195 -42.5t131 -110.5h6l12 129h162v-963h-162l-12 129h-6q-42 -68 -131 -111t-195 -43zM285 481q0 -161 85 -255.5t222 -94.5q139 0 223 94.5t84 255.5t-84 255.5t-223 94.5q-137 0 -222 -94.5
t-85 -255.5zM350 1178v139h537v-139h-537z" />
    <glyph glyph-name="aogonek.ss01" horiz-adv-x="1226" 
d="M561 -25q-197 0 -329 142.5t-132 363.5t132 363.5t329 142.5q106 0 195 -42.5t131 -110.5h6l12 129h162v-963q-87 -66 -123.5 -117t-36.5 -98q0 -80 97 -80q32 0 63 8v-141q-45 -10 -90 -10q-105 0 -167 52t-62 140q0 74 44.5 139t127.5 107h-15l-12 129h-6
q-42 -68 -131 -111t-195 -43zM285 481q0 -161 85 -255.5t222 -94.5q139 0 223 94.5t84 255.5t-84 255.5t-223 94.5q-137 0 -222 -94.5t-85 -255.5z" />
    <glyph glyph-name="aring.ss01" horiz-adv-x="1226" 
d="M561 -25q-197 0 -329 142.5t-132 363.5t132 363.5t329 142.5q106 0 195 -42.5t131 -110.5h6l12 129h162v-963h-162l-12 129h-6q-42 -68 -131 -111t-195 -43zM285 481q0 -161 85 -255.5t222 -94.5q139 0 223 94.5t84 255.5t-84 255.5t-223 94.5q-137 0 -222 -94.5
t-85 -255.5zM401 1307q0 88 62.5 147t154.5 59t155 -59t63 -147t-63 -147.5t-155 -59.5t-154.5 59.5t-62.5 147.5zM528 1307q0 -39 24.5 -64.5t65.5 -25.5t66 25.5t25 64.5t-25 64.5t-66 25.5t-65.5 -25.5t-24.5 -64.5z" />
    <glyph glyph-name="atilde.ss01" horiz-adv-x="1226" 
d="M561 -25q-197 0 -329 142.5t-132 363.5t132 363.5t329 142.5q106 0 195 -42.5t131 -110.5h6l12 129h162v-963h-162l-12 129h-6q-42 -68 -131 -111t-195 -43zM285 481q0 -161 85 -255.5t222 -94.5q139 0 223 94.5t84 255.5t-84 255.5t-223 94.5q-137 0 -222 -94.5
t-85 -255.5zM291 1126q0 137 52 209t138 72q92 0 178 -102q58 -68 97 -68q67 0 67 154h125q0 -137 -52 -209t-138 -72q-47 0 -89 24t-89 78q-60 68 -97 68q-67 0 -67 -154h-125z" />
    <glyph glyph-name="g.ss02" horiz-adv-x="1228" 
d="M578 -483q-201 0 -326 98t-137 270h184q13 -101 89 -158t196 -57q147 0 229 84.5t82 233.5v153h-6q-41 -68 -131 -109.5t-197 -41.5q-197 0 -328 140t-131 357t132 358.5t327 141.5q106 0 196 -42.5t132 -110.5h6l12 129h162v-967q0 -225 -131 -352t-360 -127zM287 487
q0 -157 84.5 -250.5t220.5 -93.5t220.5 93.5t84.5 250.5t-84.5 250.5t-220.5 93.5t-220.5 -93.5t-84.5 -250.5z" />
    <glyph glyph-name="gbreve.ss02" horiz-adv-x="1228" 
d="M578 -483q-201 0 -326 98t-137 270h184q13 -101 89 -158t196 -57q147 0 229 84.5t82 233.5v153h-6q-41 -68 -131 -109.5t-197 -41.5q-197 0 -328 140t-131 357t132 358.5t327 141.5q106 0 196 -42.5t132 -110.5h6l12 129h162v-967q0 -225 -131 -352t-360 -127zM287 487
q0 -157 84.5 -250.5t220.5 -93.5t220.5 93.5t84.5 250.5t-84.5 250.5t-220.5 93.5t-220.5 -93.5t-84.5 -250.5zM340 1382v11h147q0 -158 129 -158t129 158h148v-11q0 -125 -73.5 -196.5t-203.5 -71.5t-203 71.5t-73 196.5z" />
    <glyph glyph-name="gcaron.ss02" horiz-adv-x="1228" 
d="M578 -483q-201 0 -326 98t-137 270h184q13 -101 89 -158t196 -57q147 0 229 84.5t82 233.5v153h-6q-41 -68 -131 -109.5t-197 -41.5q-197 0 -328 140t-131 357t132 358.5t327 141.5q106 0 196 -42.5t132 -110.5h6l12 129h162v-967q0 -225 -131 -352t-360 -127zM287 487
q0 -157 84.5 -250.5t220.5 -93.5t220.5 93.5t84.5 250.5t-84.5 250.5t-220.5 93.5t-220.5 -93.5t-84.5 -250.5zM297 1401h172l147 -178l148 178h172l-240 -287h-159z" />
    <glyph glyph-name="gcircumflex.ss02" horiz-adv-x="1228" 
d="M578 -483q-201 0 -326 98t-137 270h184q13 -101 89 -158t196 -57q147 0 229 84.5t82 233.5v153h-6q-41 -68 -131 -109.5t-197 -41.5q-197 0 -328 140t-131 357t132 358.5t327 141.5q106 0 196 -42.5t132 -110.5h6l12 129h162v-967q0 -225 -131 -352t-360 -127zM287 487
q0 -157 84.5 -250.5t220.5 -93.5t220.5 93.5t84.5 250.5t-84.5 250.5t-220.5 93.5t-220.5 -93.5t-84.5 -250.5zM297 1114l240 287h159l240 -287h-172l-148 178l-147 -178h-172z" />
    <glyph glyph-name="uni0123.ss02" horiz-adv-x="1228" 
d="M578 -483q-201 0 -326 98t-137 270h184q13 -101 89 -158t196 -57q147 0 229 84.5t82 233.5v153h-6q-41 -68 -131 -109.5t-197 -41.5q-197 0 -328 140t-131 357t132 358.5t327 141.5q106 0 196 -42.5t132 -110.5h6l12 129h162v-967q0 -225 -131 -352t-360 -127zM287 487
q0 -157 84.5 -250.5t220.5 -93.5t220.5 93.5t84.5 250.5t-84.5 250.5t-220.5 93.5t-220.5 -93.5t-84.5 -250.5zM481 1311q0 91 49 168h113q-41 -61 -41 -123q20 4 33 4q51 0 84 -34t33 -85q0 -48 -36 -82.5t-89 -34.5q-63 0 -104.5 50t-41.5 137z" />
    <glyph glyph-name="gdotaccent.ss02" horiz-adv-x="1228" 
d="M578 -483q-201 0 -326 98t-137 270h184q13 -101 89 -158t196 -57q147 0 229 84.5t82 233.5v153h-6q-41 -68 -131 -109.5t-197 -41.5q-197 0 -328 140t-131 357t132 358.5t327 141.5q106 0 196 -42.5t132 -110.5h6l12 129h162v-967q0 -225 -131 -352t-360 -127zM287 487
q0 -157 84.5 -250.5t220.5 -93.5t220.5 93.5t84.5 250.5t-84.5 250.5t-220.5 93.5t-220.5 -93.5t-84.5 -250.5zM494 1257q0 52 35.5 87.5t86.5 35.5t87 -35.5t36 -87.5t-36 -87t-87 -35t-86.5 35t-35.5 87z" />
    <glyph glyph-name="uni1E21.ss02" horiz-adv-x="1228" 
d="M578 -483q-201 0 -326 98t-137 270h184q13 -101 89 -158t196 -57q147 0 229 84.5t82 233.5v153h-6q-41 -68 -131 -109.5t-197 -41.5q-197 0 -328 140t-131 357t132 358.5t327 141.5q106 0 196 -42.5t132 -110.5h6l12 129h162v-967q0 -225 -131 -352t-360 -127zM287 487
q0 -157 84.5 -250.5t220.5 -93.5t220.5 93.5t84.5 250.5t-84.5 250.5t-220.5 93.5t-220.5 -93.5t-84.5 -250.5zM348 1178v139h537v-139h-537z" />
    <glyph glyph-name="y.ss03" horiz-adv-x="1155" 
d="M551 -483q-181 0 -293.5 90.5t-124.5 251.5h182q9 -91 72.5 -140t165.5 -49q125 0 196.5 73t71.5 206v192h-6q-44 -72 -127.5 -112.5t-183.5 -40.5q-157 0 -253.5 100t-96.5 279v596h180v-531q0 -152 54.5 -218.5t162.5 -66.5q124 0 194 77t70 222v517h180v-1014
q0 -200 -120.5 -316t-323.5 -116z" />
    <glyph glyph-name="yacute.ss03" horiz-adv-x="1155" 
d="M551 -483q-181 0 -293.5 90.5t-124.5 251.5h182q9 -91 72.5 -140t165.5 -49q125 0 196.5 73t71.5 206v192h-6q-44 -72 -127.5 -112.5t-183.5 -40.5q-157 0 -253.5 100t-96.5 279v596h180v-531q0 -152 54.5 -218.5t162.5 -66.5q124 0 194 77t70 222v517h180v-1014
q0 -200 -120.5 -316t-323.5 -116zM465 1114l137 287h223l-202 -287h-158z" />
    <glyph glyph-name="ycircumflex.ss03" horiz-adv-x="1155" 
d="M551 -483q-181 0 -293.5 90.5t-124.5 251.5h182q9 -91 72.5 -140t165.5 -49q125 0 196.5 73t71.5 206v192h-6q-44 -72 -127.5 -112.5t-183.5 -40.5q-157 0 -253.5 100t-96.5 279v596h180v-531q0 -152 54.5 -218.5t162.5 -66.5q124 0 194 77t70 222v517h180v-1014
q0 -200 -120.5 -316t-323.5 -116zM258 1114l240 287h159l240 -287h-172l-147 178l-148 -178h-172z" />
    <glyph glyph-name="ydieresis.ss03" horiz-adv-x="1155" 
d="M551 -483q-181 0 -293.5 90.5t-124.5 251.5h182q9 -91 72.5 -140t165.5 -49q125 0 196.5 73t71.5 206v192h-6q-44 -72 -127.5 -112.5t-183.5 -40.5q-157 0 -253.5 100t-96.5 279v596h180v-531q0 -152 54.5 -218.5t162.5 -66.5q124 0 194 77t70 222v517h180v-1014
q0 -200 -120.5 -316t-323.5 -116zM250 1257q0 52 36 87.5t87 35.5t87 -35.5t36 -87.5t-36 -87t-87 -35t-87 35t-36 87zM659 1257q0 52 36 87.5t87 35.5t87 -35.5t36 -87.5t-36 -87t-87 -35t-87 35t-36 87z" />
    <glyph glyph-name="ygrave.ss03" horiz-adv-x="1155" 
d="M551 -483q-181 0 -293.5 90.5t-124.5 251.5h182q9 -91 72.5 -140t165.5 -49q125 0 196.5 73t71.5 206v192h-6q-44 -72 -127.5 -112.5t-183.5 -40.5q-157 0 -253.5 100t-96.5 279v596h180v-531q0 -152 54.5 -218.5t162.5 -66.5q124 0 194 77t70 222v517h180v-1014
q0 -200 -120.5 -316t-323.5 -116zM322 1401h223l137 -287h-158z" />
    <glyph glyph-name="zero.zero" horiz-adv-x="1323" 
d="M662 -25q-242 0 -374 142t-132 393v414q0 251 132 392.5t374 141.5t373.5 -141.5t131.5 -392.5v-414q0 -251 -131.5 -393t-373.5 -142zM340 600l635 424q-21 135 -101.5 202.5t-211.5 67.5q-154 0 -238 -93t-84 -277v-324zM348 410q21 -135 102 -203t212 -68
q154 0 237.5 93.5t83.5 277.5v326z" />
    <glyph glyph-name="zero.lf" horiz-adv-x="1323" 
d="M662 -25q-242 0 -374 142t-132 393v414q0 251 132 392.5t374 141.5t373.5 -141.5t131.5 -392.5v-414q0 -251 -131.5 -393t-373.5 -142zM340 510q0 -184 84 -277.5t238 -93.5t237.5 93.5t83.5 277.5v414q0 184 -83.5 277t-237.5 93t-238 -93t-84 -277v-414z" />
    <glyph glyph-name="one.lf" horiz-adv-x="843" 
d="M444 0v1122h-280v148h61q128 0 181.5 34t78.5 130h144v-1434h-185z" />
    <glyph glyph-name="two.lf" horiz-adv-x="1173" 
d="M125 86q0 115 36 203t126 176t252 188q190 118 258.5 207t68.5 189q0 116 -68 181.5t-192 65.5q-135 0 -212 -84t-83 -251h-184q4 233 136.5 365t346.5 132q196 0 318.5 -113t122.5 -305q0 -141 -85 -253.5t-304 -247.5q-186 -115 -260.5 -195.5t-86.5 -179.5h744v-164
h-934v86z" />
    <glyph glyph-name="three.lf" horiz-adv-x="1216" 
d="M598 -25q-210 0 -338.5 115.5t-132.5 319.5h184q6 -130 85.5 -200.5t209.5 -70.5q137 0 218 74.5t81 194.5q0 119 -82 185t-231 66h-125v158h125q135 0 203.5 64.5t68.5 175.5q0 112 -68 174.5t-194 62.5q-259 0 -276 -272h-185q7 202 135 319t330 117q197 0 319 -110
t122 -285q0 -216 -195 -320v-6q115 -44 176.5 -131.5t61.5 -206.5q0 -184 -136.5 -304t-355.5 -120z" />
    <glyph glyph-name="four.lf" horiz-adv-x="1204" 
d="M778 0v279h-696v147l651 1008h219v-1000h199v-155h-199v-279h-174zM270 434h508v787z" />
    <glyph glyph-name="five.lf" horiz-adv-x="1210" 
d="M608 -25q-199 0 -329 115.5t-140 315.5h185q15 -128 92 -197.5t198 -69.5q143 0 228.5 89.5t85.5 238.5q0 145 -80.5 227t-218.5 82q-90 0 -167.5 -36.5t-129.5 -106.5h-160l86 801h758v-164h-600l-49 -432q125 94 288 94q196 0 326.5 -130.5t130.5 -338.5
q0 -215 -140.5 -351.5t-363.5 -136.5z" />
    <glyph glyph-name="six.lf" horiz-adv-x="1202" 
d="M600 -25q-212 0 -357 139t-145 343q0 102 41.5 209t136.5 247l349 521h209l-345 -506q68 22 140 22q131 0 241 -62.5t175 -173.5t65 -245q0 -206 -147 -350t-363 -144zM283 467q0 -144 91.5 -236t229.5 -92t230 92.5t92 235.5t-92 235.5t-230 92.5t-229.5 -92t-91.5 -236
z" />
    <glyph glyph-name="seven.lf" horiz-adv-x="1069" 
d="M215 0l578 1270h-707v164h905v-148l-579 -1286h-197z" />
    <glyph glyph-name="eight.lf" horiz-adv-x="1232" 
d="M616 -25q-219 0 -354 112.5t-135 293.5q0 122 65.5 218t176.5 142v4q-106 46 -159.5 131t-53.5 191q0 171 128 281t332 110t332.5 -110t128.5 -281q0 -106 -53.5 -191t-159.5 -131v-4q111 -46 176.5 -142t65.5 -218q0 -180 -135.5 -293t-354.5 -113zM309 393
q0 -118 83.5 -188t223.5 -70t224 70t84 188q0 119 -85.5 194t-222.5 75t-222 -75t-85 -194zM336 1059q0 -110 74 -175t206 -65t206.5 65t74.5 175q0 109 -73.5 174t-207.5 65t-207 -64.5t-73 -174.5z" />
    <glyph glyph-name="nine.lf" horiz-adv-x="1202" 
d="M602 1458q212 0 357 -138.5t145 -342.5q0 -102 -41.5 -209.5t-136.5 -247.5l-348 -520h-209l344 506q-71 -23 -140 -23q-131 0 -241 62.5t-175 174t-65 245.5q0 101 39 191.5t106.5 157t162.5 105.5t202 39zM276 967q0 -143 92 -235.5t230 -92.5t230 92.5t92 235.5
t-92 235t-230 92t-230 -92t-92 -235z" />
    <glyph glyph-name="zero.tf" horiz-adv-x="1331" 
d="M666 -25q-242 0 -374 142t-132 393v414q0 251 132 392.5t374 141.5t373.5 -141.5t131.5 -392.5v-414q0 -251 -131.5 -393t-373.5 -142zM344 510q0 -184 84 -277.5t238 -93.5t237.5 93.5t83.5 277.5v414q0 184 -83.5 277t-237.5 93t-238 -93t-84 -277v-414z" />
    <glyph glyph-name="one.tf" horiz-adv-x="1331" 
d="M252 0v164h401v958h-350v148h131q128 0 181.5 34t78.5 130h144v-1270h340v-164h-926z" />
    <glyph glyph-name="two.tf" horiz-adv-x="1331" 
d="M207 86q0 115 36 203t126 176t252 188q190 118 258.5 207t68.5 189q0 116 -68 181.5t-192 65.5q-135 0 -212 -84t-83 -251h-184q4 233 136.5 365t346.5 132q196 0 318.5 -113t122.5 -305q0 -141 -85 -253.5t-305 -247.5q-186 -115 -260 -195.5t-86 -179.5h744v-164h-934
v86z" />
    <glyph glyph-name="three.tf" horiz-adv-x="1331" 
d="M659 -25q-210 0 -338.5 115.5t-132.5 319.5h185q6 -130 85.5 -200.5t209.5 -70.5q137 0 218 74.5t81 194.5q0 119 -82.5 185t-231.5 66h-125v158h125q135 0 204 64.5t69 175.5q0 112 -68 174.5t-194 62.5q-260 0 -277 -272h-184q7 202 135 319t330 117q197 0 318.5 -110
t121.5 -285q0 -216 -195 -320v-6q115 -44 176.5 -131.5t61.5 -206.5q0 -184 -136.5 -304t-355.5 -120z" />
    <glyph glyph-name="four.tf" horiz-adv-x="1331" 
d="M852 0v279h-696v147l651 1008h219v-1000h199v-155h-199v-279h-174zM344 434h508v787z" />
    <glyph glyph-name="five.tf" horiz-adv-x="1331" 
d="M668 -25q-199 0 -329 115.5t-140 315.5h184q15 -128 92.5 -197.5t198.5 -69.5q142 0 227.5 89.5t85.5 238.5q0 145 -80.5 227t-218.5 82q-90 0 -167.5 -36.5t-129.5 -106.5h-160l86 801h758v-164h-600l-49 -432q125 94 289 94q196 0 326 -130.5t130 -338.5
q0 -215 -140 -351.5t-363 -136.5z" />
    <glyph glyph-name="six.tf" horiz-adv-x="1331" 
d="M666 -25q-212 0 -357 139t-145 343q0 102 41.5 209t136.5 247l348 521h209l-344 -506q68 22 139 22q131 0 241.5 -62.5t175.5 -173.5t65 -245q0 -206 -147 -350t-363 -144zM348 467q0 -143 92 -235.5t230 -92.5t229.5 92t91.5 236t-91.5 236t-229.5 92t-230 -92.5
t-92 -235.5z" />
    <glyph glyph-name="seven.tf" horiz-adv-x="1331" 
d="M354 0l578 1270h-742v164h940v-148l-579 -1286h-197z" />
    <glyph glyph-name="eight.tf" horiz-adv-x="1331" 
d="M666 -25q-219 0 -354.5 113t-135.5 293q0 122 65.5 218t176.5 142v4q-106 46 -159.5 131t-53.5 191q0 171 128.5 281t332.5 110t332 -110t128 -281q0 -106 -53.5 -191t-159.5 -131v-4q111 -46 176.5 -142t65.5 -218q0 -181 -135 -293.5t-354 -112.5zM358 393
q0 -118 84 -188t224 -70t223.5 70t83.5 188q0 119 -85 194t-222 75t-222.5 -75t-85.5 -194zM385 1059q0 -110 74.5 -175t206.5 -65t206 65t74 175t-73 174.5t-207 64.5t-207.5 -65t-73.5 -174z" />
    <glyph glyph-name="nine.tf" horiz-adv-x="1331" 
d="M666 1458q212 0 356.5 -138.5t144.5 -342.5q0 -102 -41.5 -209.5t-136.5 -247.5l-348 -520h-209l344 506q-71 -23 -139 -23q-131 0 -241 62.5t-175 174t-65 245.5q0 101 39 191.5t106.5 157t162.5 105.5t202 39zM340 967q0 -143 92 -235.5t230 -92.5t229.5 92t91.5 236
q0 143 -91.5 235t-229.5 92t-230 -92t-92 -235z" />
    <glyph glyph-name="zero.tf.zero" horiz-adv-x="1331" 
d="M666 -25q-242 0 -374 142t-132 393v414q0 251 132 392.5t374 141.5t373.5 -141.5t131.5 -392.5v-414q0 -251 -131.5 -393t-373.5 -142zM344 600l635 424q-21 135 -101.5 202.5t-211.5 67.5q-154 0 -238 -93t-84 -277v-324zM352 410q21 -135 102 -203t212 -68
q154 0 237.5 93.5t83.5 277.5v326z" />
    <glyph glyph-name="colon.case" horiz-adv-x="532" 
d="M276 225q-56 0 -92.5 36.5t-36.5 92.5t36.5 92.5t92.5 36.5t93 -37t37 -92t-37 -92t-93 -37zM147 1073q0 55 36.5 92t92.5 37t93 -37t37 -92t-37 -92t-93 -37t-92.5 37t-36.5 92z" />
    <glyph glyph-name="exclamdown.case" horiz-adv-x="569" 
d="M215 991h139l25 -991h-189zM156 1319q0 55 37 92t92 37t92 -37t37 -92t-37 -92t-92 -37t-92 37t-37 92z" />
    <glyph glyph-name="questiondown.case" horiz-adv-x="1005" 
d="M643 903q0 -102 -32 -165t-128 -144l-100 -84q-61 -53 -85 -94t-24 -90q0 -84 55 -134.5t152 -50.5q112 0 179.5 67t68.5 187h182q-6 -191 -125 -302t-303 -111q-171 0 -280 94t-109 243q0 83 43 160t142 160l100 84q54 45 69 78t15 102v94h180v-94zM424 1325q0 55 37 92
t92 37t92 -37t37 -92t-37 -92t-92 -37t-92 37t-37 92z" />
    <glyph glyph-name="hyphen.case" horiz-adv-x="847" 
d="M106 575v160h635v-160h-635z" />
    <glyph glyph-name="endash.case" horiz-adv-x="1024" 
d="M0 575v160h1024v-160h-1024z" />
    <glyph glyph-name="emdash.case" horiz-adv-x="2048" 
d="M0 575v160h2048v-160h-2048z" />
    <glyph glyph-name="parenleft.case" horiz-adv-x="671" 
d="M467 -182q-156 182 -240 417t-84 482t84 482t240 417l135 -98q-118 -143 -196 -362.5t-78 -438.5t78 -438.5t196 -362.5z" />
    <glyph glyph-name="parenright.case" horiz-adv-x="671" 
d="M70 -84q118 143 196 362.5t78 438.5t-78 438.5t-196 362.5l135 98q156 -182 239.5 -416.5t83.5 -482.5t-83.5 -482.5t-239.5 -416.5z" />
    <glyph glyph-name="braceleft.case" horiz-adv-x="759" 
d="M520 -160q-150 0 -218.5 62.5t-68.5 197.5v418q0 62 -30.5 90.5t-100.5 28.5h-24v160h24q70 0 100.5 28t30.5 90v418q0 135 68.5 197.5t218.5 62.5h168v-159h-156q-118 0 -118 -117v-387q0 -161 -138 -209v-8q138 -48 138 -209v-387q0 -117 118 -117h156v-160h-168z" />
    <glyph glyph-name="braceright.case" horiz-adv-x="759" 
d="M240 -160h-168v160h155q119 0 119 117v387q0 162 137 209v8q-137 47 -137 209v387q0 117 -119 117h-155v159h168q150 0 218 -62t68 -198v-418q0 -62 30.5 -90t100.5 -28h25v-160h-25q-70 0 -100.5 -28.5t-30.5 -90.5v-418q0 -136 -68 -198t-218 -62z" />
    <glyph glyph-name="bracketleft.case" horiz-adv-x="743" 
d="M197 -160v1753h475v-159h-295v-1434h295v-160h-475z" />
    <glyph glyph-name="bracketright.case" horiz-adv-x="743" 
d="M547 -160h-475v160h295v1434h-295v159h475v-1753z" />
    <glyph glyph-name="guillemotleft.case" horiz-adv-x="1187" 
d="M420 279l-307 438l307 438h205l-306 -438l306 -438h-205zM553 717l307 438h205l-305 -438l305 -438h-205z" />
    <glyph glyph-name="guillemotright.case" horiz-adv-x="1187" 
d="M768 279h-205l305 438l-305 438h205l307 -438zM123 279l305 438l-305 438h205l307 -438l-307 -438h-205z" />
    <glyph glyph-name="guilsinglleft.case" horiz-adv-x="747" 
d="M420 279l-307 438l307 438h205l-306 -438l306 -438h-205z" />
    <glyph glyph-name="guilsinglright.case" horiz-adv-x="747" 
d="M328 279h-205l305 438l-305 438h205l307 -438z" />
    <glyph glyph-name="florin.tf" horiz-adv-x="1331" 
d="M340 -25q-49 0 -96 13v157q41 -6 73 -6q79 0 122.5 42t64.5 153l76 397h-230v143h256l53 281q30 158 112.5 230.5t219.5 72.5q53 0 96 -12v-158q-41 6 -73 6q-79 0 -122.5 -41.5t-64.5 -152.5l-43 -226h267v-143h-293l-86 -452q-30 -158 -112.5 -231t-219.5 -73z" />
    <glyph glyph-name="at.case" horiz-adv-x="1955" 
d="M1030 -154q-258 0 -463.5 109t-321.5 306t-116 446q0 189 70 354t189.5 279.5t282 180.5t343.5 66q170 0 324 -58.5t268 -161.5t181.5 -253t67.5 -323q0 -225 -103.5 -364.5t-258.5 -139.5q-88 0 -153 47t-89 137h-6q-36 -90 -113.5 -137t-175.5 -47q-160 0 -265 118
t-105 304t105 303.5t265 117.5q87 0 155 -38.5t103 -110.5h7l12 121h137v-508q0 -172 125 -172q93 0 148 92.5t55 257.5q0 153 -52.5 279.5t-144.5 210t-216 129t-267 45.5q-156 0 -290.5 -54.5t-229 -149.5t-148 -230t-53.5 -291q0 -210 93 -373t260.5 -252.5t383.5 -89.5
q231 0 404 90v-158q-187 -82 -408 -82zM754 709q0 -126 65.5 -199.5t167.5 -73.5t168 73.5t66 199.5t-66 199t-168 73t-167.5 -73t-65.5 -199z" />
    <glyph glyph-name="cent.tf" horiz-adv-x="1331" 
d="M621 0v215q-190 23 -306 161t-116 341q0 201 116.5 338.5t305.5 163.5v215h118v-213q171 -11 281 -111t129 -264h-176q-12 94 -74 152.5t-160 70.5v-704q101 12 167.5 71t78.5 152h170q-19 -161 -131.5 -261t-284.5 -114v-213h-118zM377 717q0 -140 66.5 -231t177.5 -115
v692q-111 -24 -177.5 -115t-66.5 -231z" />
    <glyph glyph-name="currency.tf" horiz-adv-x="1331" 
d="M666 319q-130 0 -230 68l-149 -149l-101 98l154 153q-66 97 -66 228q0 130 66 227l-154 154l101 98l149 -149q98 67 230 67q134 0 229 -67l152 149l98 -98l-152 -154q66 -101 66 -227q0 -127 -66 -228l152 -153l-98 -98l-152 149q-96 -68 -229 -68zM434 717
q0 -109 64 -176.5t168 -67.5t168.5 67.5t64.5 176.5t-64.5 176.5t-168.5 67.5t-168 -67.5t-64 -176.5z" />
    <glyph glyph-name="dollar.tf" horiz-adv-x="1331" 
d="M604 -86v139q-183 18 -297.5 128.5t-120.5 287.5h189q7 -108 67 -172t162 -82v442l-39 9q-350 76 -350 340q0 153 109 257t288 119v138h115v-138q170 -15 275.5 -113t115.5 -263h-188q-6 94 -57.5 148.5t-145.5 66.5v-422l57 -13q182 -39 266.5 -122.5t84.5 -214.5
q0 -165 -115 -274.5t-301 -123.5v-137h-115zM397 1012q0 -71 46.5 -113.5t168.5 -73.5v396q-102 -12 -158.5 -67t-56.5 -142zM719 213q108 12 170.5 72.5t62.5 150.5q0 73 -51.5 118.5t-181.5 76.5v-418z" />
    <glyph glyph-name="Euro.tf" horiz-adv-x="1331" 
d="M791 -25q-197 0 -336 137t-179 388h-180v127h166q-2 25 -2 78q0 36 4 102h-168v127h185q48 251 191 387.5t337 136.5q174 0 292.5 -110t141.5 -306h-184q-15 129 -81 196t-167 67q-123 0 -218 -96t-132 -275h481v-127h-498q-4 -58 -4 -90q0 -61 2 -90h500v-127h-483
q36 -180 127 -273.5t213 -93.5q108 0 182.5 67.5t89.5 186.5h180q-29 -192 -155.5 -302t-304.5 -110z" />
    <glyph glyph-name="sterling.tf" horiz-adv-x="1331" 
d="M215 125q137 68 201.5 153t64.5 193q0 53 -18 123h-240v143h178q-66 133 -85 192q-23 73 -23 142q0 167 120 277t314 110t308 -114.5t114 -321.5h-178q-3 142 -65.5 214.5t-178.5 72.5q-117 0 -186.5 -68t-69.5 -174q0 -31 5.5 -62t20.5 -70.5t23.5 -60t33 -72
t30.5 -65.5h389v-143h-336q18 -77 18 -131q0 -187 -147 -303h643v-160h-936v125z" />
    <glyph glyph-name="yen.tf" horiz-adv-x="1331" 
d="M578 0v272h-369v127h369v181h-369v127h307l-389 727h195l344 -668l344 668h194l-389 -727h307v-127h-368v-181h368v-127h-368v-272h-176z" />
    <glyph glyph-name="uni0308.case" 
d="M831 1126q-54 0 -92.5 38t-38.5 93t38.5 93.5t92.5 38.5t93 -38.5t39 -93.5t-39 -93t-93 -38zM266 1257q0 55 38.5 93.5t92.5 38.5t92.5 -38.5t38.5 -93.5t-38.5 -93t-92.5 -38t-92.5 38t-38.5 93z" />
    <glyph glyph-name="uni0307.case" 
d="M614 1126q-54 0 -92.5 38t-38.5 93t38.5 93.5t92.5 38.5t92.5 -38.5t38.5 -93.5t-38.5 -93t-92.5 -38z" />
    <glyph glyph-name="gravecomb.case" 
d="M596 1106l-215 303h235l146 -303h-166z" />
    <glyph glyph-name="acutecomb.case" 
d="M451 1106l145 303h235l-215 -303h-165z" />
    <glyph glyph-name="uni030B.case" 
d="M670 1106l129 303h194l-180 -303h-143zM330 1106l127 303h196l-180 -303h-143z" />
    <glyph glyph-name="uni0302.case" 
d="M276 1106l254 303h168l254 -303h-182l-156 188l-155 -188h-183z" />
    <glyph glyph-name="uni030C.case" 
d="M530 1106l-254 303h183l155 -188l156 188h182l-254 -303h-168z" />
    <glyph glyph-name="uni0306.case" 
d="M614 1106q-137 0 -214.5 76t-77.5 209v10h155q0 -84 36 -126t101 -42t101.5 42t36.5 126h155v-10q0 -133 -78 -209t-215 -76z" />
    <glyph glyph-name="uni030A.case" 
d="M614 1087q-98 0 -163.5 63.5t-65.5 156.5t65.5 156t163.5 63t164 -63t66 -156t-66 -156.5t-164 -63.5zM518 1307q0 -41 26.5 -69t69.5 -28t70 28t27 69t-27 68.5t-70 27.5t-69.5 -27.5t-26.5 -68.5z" />
    <glyph glyph-name="tildecomb.case" 
d="M762 1102q-50 0 -93.5 25t-95.5 83q-67 72 -102 72q-32 0 -52 -40t-20 -124h-133q0 146 55.5 221.5t147.5 75.5q51 0 94.5 -25.5t93.5 -82.5q64 -72 103 -72q32 0 51.5 40t19.5 124h134q0 -146 -55.5 -221.5t-147.5 -75.5z" />
    <glyph glyph-name="uni0304.case" 
d="M330 1174v147h569v-147h-569z" />
    <glyph glyph-name="uni0315.case" 
d="M508 1026q124 110 121 201q-20 -4 -33 -4q-51 0 -84 33.5t-33 84.5q0 48 36 82.5t89 34.5q64 0 105 -49.5t41 -136.5q0 -180 -179 -314z" />
    <glyph glyph-name="uni0326.case" 
d="M588 -516q41 61 41 123q-20 -4 -33 -4q-51 0 -84 33.5t-33 84.5q0 48 36 82.5t89 34.5q64 0 105 -49.5t41 -136.5q0 -89 -50 -168h-112z" />
    <glyph glyph-name="uni0327.case" 
d="M528 -463q-42 0 -88 6v129q29 -4 76 -4q123 0 123 68q0 29 -34.5 43t-137.5 14l16 207h127l-2 -109q85 -9 131.5 -52t46.5 -115q0 -86 -66.5 -136.5t-191.5 -50.5z" />
    <glyph glyph-name="uni0328.case" 
d="M678 -465q-112 0 -178 55.5t-66 149.5q0 95 71 175.5t200 119.5l69 -35q-170 -129 -170 -227q0 -86 103 -86q36 0 67 10v-152q-48 -10 -96 -10z" />
    <glyph glyph-name="uni0308.narrow" 
d="M428 1135q-51 0 -87 35t-36 87t36 87.5t87 35.5t87 -35.5t36 -87.5t-36 -87t-87 -35zM-51 1257q0 52 36 87.5t87 35.5t87 -35.5t36 -87.5t-36 -87t-87 -35t-87 35t-36 87z" />
    <glyph glyph-name="gravecomb.narrow" 
d="M197 1114l-162 287h223l96 -287h-157z" />
    <glyph glyph-name="acutecomb.narrow" 
d="M137 1114l96 287h224l-162 -287h-158z" />
    <glyph glyph-name="uni0302.narrow" 
d="M-41 1114l219 287h144l219 -287h-164l-127 172l-127 -172h-164z" />
    <glyph glyph-name="uni030C.narrow" 
d="M178 1114l-219 287h164l127 -172l127 172h164l-219 -287h-144z" />
    <glyph glyph-name="uni0306.narrow" 
d="M250 1114q-125 0 -192.5 71t-67.5 197v11h137q0 -79 32.5 -118.5t90.5 -39.5t90.5 39.5t32.5 118.5h137v-11q0 -126 -67.5 -197t-192.5 -71z" />
    <glyph glyph-name="tildecomb.narrow" 
d="M383 1110q-46 0 -85 23.5t-87 78.5q-60 68 -92 68q-26 0 -44 -37.5t-18 -116.5h-118q0 136 49 208.5t129 72.5q47 0 87.5 -24t86.5 -78q58 -68 90 -68q26 0 43.5 37.5t17.5 116.5h119q0 -136 -49 -208.5t-129 -72.5z" />
    <glyph glyph-name="uni0304.narrow" 
d="M0 1178v139h500v-139h-500z" />
    <glyph glyph-name="uni0328.narrow" 
d="M260 -438q-94 0 -151.5 51t-57.5 133q0 86 61.5 165.5t161.5 115.5l66 -27q-75 -75 -103 -123.5t-28 -89.5q0 -82 80 -82q24 0 51 8v-141q-42 -10 -80 -10z" />
    </font>
</defs>
</svg>
